SplineFontDB: 3.0
FontName: Untitled
FullName: Untitled
FamilyName: Open453 Normal
Weight: Regular
Version: 
ItalicAngle: 0
UnderlinePosition: -204
UnderlineWidth: 102
Ascent: 1536
Descent: 512
UFOAscent: 1536
UFODescent: -512
LayerCount: 2
Layer: 0 0 "Back"  1
Layer: 1 0 "Fore"  0
FSType: 3
OS2Version: 0
OS2_WeightWidthSlopeOnly: 0
OS2_UseTypoMetrics: 0
CreationTime: 1348457890
ModificationTime: 1348458205
PfmFamily: 0
TTFWeight: 400
TTFWidth: 1
LineGap: 0
VLineGap: 0
Panose: 0 0 0 0 0 0 0 0 0 0
OS2TypoAscent: 1536
OS2TypoAOffset: 0
OS2TypoDescent: -512
OS2TypoDOffset: 0
OS2TypoLinegap: 0
OS2WinAscent: 0
OS2WinAOffset: 0
OS2WinDescent: 0
OS2WinDOffset: 0
HheadAscent: 0
HheadAOffset: 1
HheadDescent: 0
HheadDOffset: 1
OS2SubXSize: 1434
OS2SubYSize: 1331
OS2SubXOff: 0
OS2SubYOff: 287
OS2SupXSize: 1434
OS2SupYSize: 1331
OS2SupXOff: 0
OS2SupYOff: 977
OS2StrikeYSize: 102
OS2StrikeYPos: 512
OS2Vendor: 'newt'
DEI: 91125
LangName: 1033 "" "" "" "" "" "Version " "" "" "" "vernon adams" 
PickledData: "(dp1
S'public.glyphOrder'
p2
(S'A'
S'C'
S'E'
S'F'
S'H'
S'I'
S'L'
S'M'
S'N'
S'O'
S'P'
S'R'
S'S'
S'T'
S'Y'
S'a'
S'b'
S'c'
S'd'
S'e'
S'f'
S'g'
S'h'
S'i'
S'j'
S'k'
S'l'
S'm'
S'n'
S'o'
S'p'
S'q'
S'r'
S's'
S't'
S'u'
S'v'
S'w'
S'x'
S'y'
S'z'
S'zero'
S'one'
S'two'
S'three'
S'four'
S'five'
S'six'
S'seven'
S'eight'
S'nine'
S'quoteleft'
S'comma'
S'space'
S'_111'
S'_112'
S'_113'
S'_114'
S'_115'
S'_116'
S'_117'
S'_118'
S'_119'
S'_120'
S'_121'
S'_122'
S'_128'
S'_129'
S'_130'
S'_131'
S'_132'
S'_133'
S'_26'
S'_27'
S'_28'
S'_29'
S'_30'
S'_31'
S'_32'
S'_33'
S'_34'
S'_35'
S'_36'
S'_37'
S'_38'
S'_39'
S'_40'
S'_41'
S'_42'
S'_43'
S'_44'
S'_45'
S'_46'
S'_47'
S'_48'
S'_49'
S'_50'
S'_51'
S'_52'
S'_53'
S'_54'
S'_55'
S'_56'
S'_57'
S'_58'
S'_59'
S'_60'
S'_61'
S'_62'
S'_63'
S'_64'
S'_65'
S'_66'
S'_67'
S'_68'
S'_69'
S'_70'
S'_71'
S'_72'
S'_73'
S'_74'
S'_75'
S'_76'
S'_77'
S'_78'
S'_79'
S'_80'
S'_81'
S'_82'
S'_83'
S'_84'
S'_85'
S'_86'
S'_87'
S'_88'
S'_89'
S'_90'
S'plusminus'
S'aring'
S'less'
S'ograve'
S'V'

StartChar: A
Encoding: 65 65 0
Width: 4388
VWidth: 0
Flags: W
LayerCount: 2
Fore
SplineSet
2210 834 m 1
 2646 301 l 2
 2650 295 2663 285 2669 285 c 2
 2744 293 l 2
 2750 293 2753 316 2753 324 c 2
 2753 330 l 1
 2749 367 2726 528 2722 563 c 1
 2722 1241 l 1
 2724 1241 2730 1245 2730 1247 c 0
 2730 1249 2722 1262 2722 1264 c 2
 2722 1276 l 2
 2722 1339 2722 1405 2736 1466 c 1
 2740 1478 2751 1516 2753 1518 c 1
 2753 1520 2779 1553 2789 1563 c 1
 2801 1577 2810 1587 2826 1593 c 0
 2838 1597 2898 1614 2910 1616 c 1
 2924 1622 2925 1628 2925 1640 c 0
 2925 1656 2922 1667 2916 1683 c 1
 2766 1691 2616 1694 2466 1698 c 0
 2464 1698 2449 1700 2445 1700 c 0
 2437 1700 2419 1700 2413 1692 c 1
 2413 1690 2408 1663 2406 1653 c 1
 2406 1649 l 1
 2406 1647 l 1
 2408 1643 2425 1626 2429 1624 c 0
 2443 1620 2511 1599 2525 1593 c 0
 2527 1593 2554 1571 2564 1563 c 0
 2617 1518 2619 1434 2623 1368 c 1
 2625 1352 2630 1278 2632 1264 c 1
 2632 662 l 2
 2632 656 2623 653 2619 653 c 2
 2615 653 l 1
 2615 655 2603 674 2601 676 c 0
 2556 731 2511 787 2466 842 c 0
 2443 871 2369 965 2361 977 c 1
 2357 981 2347 1002 2345 1008 c 1
 2259 1102 2165 1217 2083 1315 c 0
 2009 1403 1942 1501 1864 1585 c 1
 1860 1591 1816 1632 1812 1638 c 0
 1810 1640 1806 1653 1804 1653 c 1
 1798 1661 1767 1692 1759 1698 c 1
 1571 1698 l 1
 1563 1700 1491 1706 1481 1706 c 2
 1477 1706 l 2
 1473 1706 1444 1702 1444 1692 c 2
 1444 1638 l 2
 1444 1636 1536 1601 1556 1585 c 1
 1576 1571 1645 1511 1655 1503 c 0
 1659 1499 1681 1472 1683 1466 c 1
 1685 1413 1686 1171 1686 1120 c 0
 1686 1028 1685 786 1683 774 c 1
 1683 758 1677 624 1677 608 c 2
 1677 586 l 1
 1675 574 1671 537 1669 535 c 1
 1653 490 1632 442 1587 422 c 1
 1571 418 1497 401 1481 397 c 0
 1456 391 1458 371 1458 348 c 2
 1458 330 l 1
 1475 324 l 1
 1985 324 l 2
 1987 324 1993 334 1993 338 c 2
 1993 362 l 1
 1993 383 l 1
 1991 387 1974 404 1970 406 c 0
 1966 408 1929 412 1925 414 c 0
 1913 418 1853 445 1841 451 c 1
 1814 488 1798 535 1790 580 c 1
 1782 789 1780 999 1774 1210 c 1
 1774 1292 l 1
 1774 1346 l 1
 1782 1360 l 1
 1800 1358 1802 1343 1812 1331 c 1
 1816 1323 1843 1292 1849 1286 c 1
 1851 1282 1870 1266 1872 1264 c 0
 1876 1258 1905 1214 1911 1210 c 1
 1915 1202 1964 1149 1970 1143 c 1
 1972 1139 1991 1108 1993 1104 c 0
 2040 1038 2099 975 2150 909 c 1
 2168 884 2185 854 2210 834 c 1
3316 360 m 0
 3316 350 3322 307 3338 307 c 2
 3901 307 l 1
 3901 383 l 1
 3901 383 3891 389 3887 391 c 0
 3881 393 3867 397 3865 397 c 0
 3861 399 3836 397 3834 397 c 0
 3824 399 3787 412 3781 414 c 0
 3756 424 3731 487 3729 512 c 0
 3727 528 3721 609 3721 625 c 2
 3721 739 l 2
 3721 821 3711 895 3758 963 c 0
 3762 969 3799 1016 3803 1022 c 0
 3832 1067 3958 1278 3983 1323 c 1
 3992 1331 l 1
 4119 1526 l 1
 4146 1563 4200 1579 4239 1593 c 1
 4245 1599 4256 1649 4256 1657 c 0
 4256 1671 4249 1692 4231 1692 c 2
 3797 1692 l 2
 3783 1692 3781 1644 3781 1634 c 0
 3781 1628 3777 1612 3789 1608 c 0
 3820 1600 3874 1604 3901 1579 c 0
 3903 1577 3924 1544 3932 1534 c 1
 3940 1520 3940 1517 3940 1501 c 0
 3940 1499 3940 1489 3938 1489 c 1
 3901 1382 l 1
 3707 1053 l 2
 3699 1041 3692 1020 3676 1020 c 0
 3674 1020 3668 1022 3668 1022 c 1
 3623 1090 l 1
 3420 1466 l 1
 3416 1484 3406 1504 3406 1522 c 0
 3406 1600 3488 1606 3549 1616 c 1
 3557 1626 3557 1641 3557 1653 c 0
 3557 1671 3558 1696 3533 1698 c 1
 3209 1698 l 1
 3197 1700 3094 1706 3082 1706 c 2
 3041 1706 l 1
 3000 1706 l 1
 2986 1696 2984 1681 2984 1665 c 0
 2984 1645 2983 1622 3006 1616 c 0
 3045 1606 3096 1604 3119 1563 c 2
 3277 1286 l 1
 3285 1278 l 1
 3502 901 l 2
 3504 899 3510 832 3510 805 c 2
 3510 750 l 1
 3510 692 l 2
 3510 657 3504 553 3502 541 c 1
 3500 512 3485 476 3465 451 c 0
 3457 441 3438 418 3420 414 c 0
 3406 410 3338 393 3322 391 c 1
 3316 377 3316 372 3316 360 c 0
84 330 m 1
 229 334 348 324 489 324 c 0
 495 324 512 324 512 330 c 2
 512 397 l 2
 512 401 502 412 498 414 c 0
 492 416 448 426 444 428 c 0
 395 451 377 504 377 551 c 0
 377 598 379 647 391 692 c 0
 399 721 443 858 453 887 c 1
 471 885 568 881 588 879 c 1
 864 879 l 1
 870 875 885 848 887 842 c 0
 893 830 922 733 926 721 c 1
 926 721 932 709 932 707 c 0
 940 684 977 580 985 557 c 0
 987 551 987 524 987 518 c 0
 987 469 962 422 909 414 c 0
 901 412 858 408 850 406 c 1
 838 398 836 383 836 369 c 2
 836 352 l 2
 836 344 842 324 842 324 c 1
 1368 324 l 1
 1368 383 l 2
 1368 385 1358 397 1354 397 c 1
 1352 399 1325 406 1317 406 c 2
 1300 406 l 1
 1271 422 1229 465 1219 496 c 2
 1083 909 l 1
 1069 940 l 1
 858 1579 l 1
 854 1583 844 1604 842 1608 c 1
 840 1618 815 1704 813 1714 c 1
 811 1718 807 1729 805 1729 c 0
 801 1731 780 1737 774 1737 c 2
 602 1737 l 2
 594 1737 594 1726 594 1720 c 0
 594 1697 618 1682 618 1657 c 0
 618 1655 618 1647 616 1647 c 1
 565 1495 l 1
 565 1489 l 1
 553 1452 541 1432 535 1399 c 1
 346 864 l 1
 346 858 340 831 340 827 c 1
 330 794 293 684 287 670 c 0
 277 643 223 523 211 496 c 1
 199 488 209 487 197 473 c 0
 166 438 133 404 84 406 c 1
 72 396 76 370 76 360 c 2
 76 338 l 1
 84 330 l 1
4307 739 m 0
 4303 739 4303 733 4307 733 c 0
 4311 733 4311 739 4307 739 c 0
481 995 m 1
 481 999 l 1
 485 1011 508 1076 512 1090 c 0
 512 1092 518 1102 520 1104 c 1
 625 1427 l 1
 639 1450 646 1511 666 1511 c 0
 676 1511 694 1450 692 1444 c 1
 698 1426 723 1347 729 1331 c 0
 768 1222 797 1110 836 999 c 1
 836 985 l 1
 504 985 l 2
 502 985 485 989 481 991 c 1
 481 995 l 1
2939 1063 m 0
 2935 1063 2935 1057 2939 1057 c 0
 2943 1057 2943 1063 2939 1063 c 0
2068 1251 m 0
 2070 1251 2070 1243 2068 1243 c 0
 2064 1243 2064 1251 2068 1251 c 0
4217 1333 m 0
 4213 1333 4213 1327 4217 1327 c 0
 4221 1327 4221 1333 4217 1333 c 0
3684 1602 m 1
 3684 1593 l 1
 3690 1593 l 1
 3690 1602 l 1
 3684 1602 l 1
2194 1577 m 0
3949 10 m 0
EndSplineSet
EndChar

StartChar: B
Encoding: 66 66 1
Width: 1480
VWidth: 0
Flags: W
PickledData: "(dp1
S'com.typemytype.robofont.layerData'
p2
(dp3
S'back'
p4
(dp5
S'name'
p6
S'B'
sS'lib'
p7
(dp8
sS'unicodes'
p9
(tsS'width'
p10
I1480
sS'contours'
p11
((dp12
S'points'
p13
((dp14
S'y'
F1197
sS'x'
F953
sS'smooth'
p15
I00
s(dp16
S'y'
F1182
sS'x'
F954
sg15
I00
s(dp17
S'segmentType'
p18
S'curve'
p19
sS'x'
F954
sg15
I01
sS'y'
F1167
s(dp20
S'y'
F973
sS'x'
F954
sg15
I00
s(dp21
S'y'
F863
sS'x'
F834
sg15
I00
s(dp22
g18
S'curve'
p23
sS'x'
F547
sg15
I00
sS'y'
F863
s(dp24
g18
S'line'
p25
sS'x'
F547
sg15
I00
sS'y'
F1515
s(dp26
S'y'
F1515
sS'x'
F847
sg15
I00
s(dp27
S'y'
F1386
sS'x'
F937
sg15
I00
s(dp28
g18
S'curve'
p29
sS'x'
F952
sg15
I01
sS'y'
F1212
stp30
s(dp31
g13
((dp32
S'y'
F417
sS'x'
F1311
sg15
I00
s(dp33
S'y'
F431
sS'x'
F1312
sg15
I00
s(dp34
g18
S'curve'
p35
sS'x'
F1312
sg15
I01
sS'y'
F444
s(dp36
S'y'
F676
sS'x'
F1312
sg15
I00
s(dp37
S'y'
F784
sS'x'
F1155
sg15
I00
s(dp38
g18
S'curve'
p39
sS'x'
F911
sg15
I00
sS'y'
F858
s(dp40
S'y'
F907
sS'x'
F1135
sg15
I00
s(dp41
S'y'
F1059
sS'x'
F1210
sg15
I00
s(dp42
g18
S'curve'
p43
sS'x'
F1210
sg15
I01
sS'y'
F1201
s(dp44
S'y'
F1433
sS'x'
F1210
sg15
I00
s(dp45
S'y'
F1577
sS'x'
F1082
sg15
I00
s(dp46
g18
S'curve'
p47
sS'x'
F532
sg15
I01
sS'y'
F1577
s(dp48
S'y'
F1577
sS'x'
F513
sg15
I00
s(dp49
S'y'
F1577
sS'x'
F104
sg15
I00
s(dp50
g18
S'curve'
p51
sS'x'
F84
sg15
I00
sS'y'
F1577
s(dp52
g18
S'line'
p53
sS'x'
F84
sg15
I01
sS'y'
F1551
s(dp54
S'y'
F1544
sS'x'
F94
sg15
I00
s(dp55
S'y'
F1479
sS'x'
F271
sg15
I00
s(dp56
g18
S'curve'
p57
sS'x'
F307
sg15
I00
sS'y'
F1411
s(dp58
g18
S'line'
p59
sS'x'
F307
sg15
I00
sS'y'
F190
s(dp60
S'y'
F151
sS'x'
F307
sg15
I00
s(dp61
S'y'
F118
sS'x'
F291
sg15
I00
s(dp62
g18
S'curve'
p63
sS'x'
F74
sg15
I01
sS'y'
F42
s(dp64
S'y'
F42
sS'x'
F74
sg15
I00
s(dp65
S'y'
F1
sS'x'
F74
sg15
I00
s(dp66
g18
S'curve'
p67
sS'x'
F76
sg15
I00
sS'y'
F0
s(dp68
g18
S'line'
p69
sS'x'
F519
sg15
I01
sS'y'
F0
s(dp70
S'y'
F0
sS'x'
F944
sg15
I00
s(dp71
S'y'
F83
sS'x'
F1290
sg15
I00
s(dp72
g18
S'curve'
p73
sS'x'
F1310
sg15
I00
sS'y'
F402
stp74
s(dp75
g13
((dp76
g18
S'line'
p77
sS'x'
F547
sg15
I01
sS'y'
F69
s(dp78
g18
S'line'
p79
sS'x'
F547
sg15
I00
sS'y'
F800
s(dp80
S'y'
F800
sS'x'
F923
sg15
I00
s(dp81
S'y'
F694
sS'x'
F1077
sg15
I00
s(dp82
g18
S'curve'
p83
sS'x'
F1077
sg15
I01
sS'y'
F445
s(dp84
S'y'
F433
sS'x'
F1077
sg15
I00
s(dp85
S'y'
F420
sS'x'
F1077
sg15
I00
s(dp86
g18
S'curve'
p87
sS'x'
F1076
sg15
I01
sS'y'
F407
s(dp88
S'y'
F213
sS'x'
F1065
sg15
I00
s(dp89
S'y'
F69
sS'x'
F979
sg15
I00
s(dp90
g18
S'curve'
p91
sS'x'
F547
sg15
I00
sS'y'
F69
stp92
stp93
sS'components'
p94
(tsS'anchors'
p95
((dp96
S'y'
F0
sS'x'
F740
sg6
S'bottom'
p97
s(dp98
S'y'
F1577
sS'x'
F740
sg6
S'top'
p99
s(dp100
S'y'
F10
sS'x'
F1332
sg6
S'ogonek'
p101
stp102
sss."
LayerCount: 2
Fore
SplineSet
559 0 m 2
 1070 0 1312 155 1312 444 c 0
 1312 676 1155 784 911 858 c 1
 1135 907 1210 1059 1210 1201 c 0
 1210 1433 1082 1577 532 1577 c 2
 84 1577 l 1
 84 1551 l 1
 94 1544 271 1479 307 1411 c 1
 307 190 l 2
 307 151 291 118 74 42 c 1
 74 42 74 1 76 0 c 1
 559 0 l 2
980 1178 m 0
 980 984 834 863 547 863 c 1
 547 1515 l 1
 873 1515 980 1367 980 1178 c 0
547 69 m 1
 547 800 l 1
 923 800 1077 694 1077 445 c 0
 1077 254.166040758 1007.98778298 69 547 69 c 1
 547 69 l 1
740 1577 m 0
740 0 m 0
1332 10 m 0
EndSplineSet
EndChar

StartChar: C
Encoding: 67 67 3
Width: 1609
VWidth: 0
Flags: W
LayerCount: 2
Fore
SplineSet
463 279 m 0
 598 205 751 170 907 170 c 0
 1100 170 1297 188 1475 268 c 1
 1512 309 1497 340 1501 395 c 0
 1503 411 1518 547 1520 565 c 1
 1520 600 l 1
 1520 637 l 1
 1512 647 1497 655 1485 655 c 0
 1426 655 1423 600 1403 555 c 1
 1393 530 1370 490 1350 467 c 1
 1270 381 1190 308 1071 279 c 1
 1069 277 1055 279 1053 279 c 1
 1051 277 1038 270 1036 268 c 1
 950 268 l 1
 866 268 l 2
 862 268 837 275 829 279 c 1
 686 326 604 371 516 494 c 0
 489 531 426 625 426 627 c 2
 426 637 l 1
 362 842 l 1
 364 846 364 858 362 860 c 1
 362 868 354 926 354 932 c 2
 354 1057 l 1
 354 1184 l 1
 356 1219 366 1255 362 1290 c 1
 368 1317 406 1435 418 1460 c 1
 424 1478 475 1561 489 1577 c 0
 495 1585 571 1661 596 1686 c 0
 604 1694 637 1718 641 1720 c 0
 664 1732 746 1772 758 1776 c 0
 813 1790 881 1794 938 1794 c 0
 1176 1794 1331 1626 1411 1415 c 1
 1415 1411 1434 1399 1440 1399 c 0
 1456 1397 1493 1402 1501 1425 c 1
 1501 1431 1503 1458 1503 1466 c 0
 1503 1474 1501 1503 1501 1505 c 0
 1499 1521 1477 1643 1475 1659 c 0
 1475 1665 1477 1714 1475 1720 c 0
 1473 1732 1460 1770 1456 1776 c 1
 1456 1778 1429 1790 1421 1792 c 0
 1392 1802 1262 1847 1233 1855 c 1
 1206 1855 l 1
 1196 1857 1116 1872 1108 1874 c 0
 1061 1880 1028 1882 987 1882 c 0
 932 1882 876 1870 821 1874 c 1
 794 1868 676 1835 649 1829 c 1
 608 1817 572 1794 535 1776 c 1
 515 1764 489 1759 471 1747 c 1
 408 1710 338 1642 291 1595 c 1
 291 1591 285 1579 283 1577 c 0
 279 1571 233 1522 229 1516 c 0
 219 1502 188 1452 184 1444 c 0
 178 1432 143 1337 139 1327 c 0
 119 1278 86 1177 86 1128 c 2
 86 842 l 2
 86 836 98 768 104 743 c 0
 104 741 111 727 113 725 c 0
 115 721 129 678 131 672 c 0
 145 641 222 496 238 467 c 1
 254 447 336 364 354 350 c 1
 362 342 436 301 444 295 c 0
 446 293 459 281 463 279 c 0
1395 381 m 0
 1399 381 1399 373 1395 373 c 0
 1391 373 1391 381 1395 381 c 0
805 1577 m 0
805 0 m 0
EndSplineSet
EndChar

StartChar: E
Encoding: 69 69 4
Width: 1480
VWidth: 0
Flags: W
PickledData: "(dp1
S'com.typemytype.robofont.layerData'
p2
(dp3
S'back'
p4
(dp5
S'name'
p6
S'E'
sS'lib'
p7
(dp8
sS'unicodes'
p9
(tsS'width'
p10
I1480
sS'contours'
p11
(tsS'components'
p12
(tsS'anchors'
p13
(tsss."
LayerCount: 2
Fore
SplineSet
1163 553 m 2
 1163 552 1122 553 1122 553 c 1
 1056 788 983 770 731 790 c 1
 547 800 l 1
 547 69 l 1
 547 69 816 84 817 84 c 0
 1185 105 1203 198 1292 335 c 0
 1323 383 1328 401 1368 401 c 0
 1388 401 1393 382 1393 359 c 0
 1393 344 1391 328 1389 315 c 2
 1333 57 l 1
 1323 6 1292 0 1247 0 c 2
 76 0 l 1
 74 1 74 42 74 42 c 1
 291 118 307 151 307 190 c 2
 307 1411 l 1
 271 1479 94 1544 84 1551 c 1
 84 1577 l 1
 1117 1577 l 2
 1144 1577 1270 1579 1297 1579 c 0
 1301 1579 1316 1569 1316 1552 c 2
 1316 1255 l 1
 1312 1242 1267 1241 1267 1241 c 1
 1228 1241 1175 1496 1001 1501 c 2
 547 1515 l 1
 547 863 l 1
 743 873 l 1
 996 892 1053 865 1123 1096 c 1
 1151 1096 l 1
 1162 1083 1163 1071 1163 1043 c 2
 1163 553 l 2
740 1577 m 0
740 0 m 0
1332 10 m 0
EndSplineSet
EndChar

StartChar: F
Encoding: 70 70 5
Width: 1259
VWidth: 0
Flags: W
LayerCount: 2
Fore
SplineSet
100 307 m 1
 131 309 266 309 297 307 c 1
 328 307 573 301 604 301 c 0
 618 301 682 305 694 307 c 1
 694 375 l 2
 694 377 690 381 688 383 c 0
 665 397 652 391 621 397 c 1
 521 420 502 486 500 580 c 0
 500 586 494 854 492 963 c 1
 492 971 l 2
 492 983 492 983 500 999 c 1
 594 999 l 1
 688 999 l 1
 741 997 825 1001 868 954 c 1
 884 934 918 899 928 872 c 0
 946 827 934 774 991 774 c 0
 1003 774 1036 777 1032 797 c 1
 1032 1036 l 1
 1034 1050 1040 1159 1040 1171 c 0
 1040 1181 1036 1241 1032 1255 c 1
 1032 1259 1026 1270 1026 1270 c 1
 958 1270 l 2
 956 1270 950 1266 950 1264 c 0
 948 1258 938 1214 936 1210 c 0
 911 1144 842 1081 770 1081 c 2
 500 1081 l 1
 500 1081 494 1108 492 1120 c 1
 492 1126 l 1
 492 1135 l 1
 494 1145 498 1186 500 1194 c 1
 500 1602 l 1
 897 1602 l 1
 995 1571 l 2
 999 1569 1032 1538 1040 1526 c 1
 1046 1520 1084 1460 1094 1444 c 1
 1110 1413 1114 1382 1153 1382 c 0
 1167 1382 1198 1382 1198 1405 c 2
 1198 1468 l 1
 1198 1534 l 2
 1198 1550 1192 1637 1190 1653 c 1
 1186 1669 1177 1677 1161 1683 c 1
 621 1683 l 2
 584 1683 289 1690 252 1692 c 1
 223 1692 l 1
 199 1692 l 1
 183 1690 108 1685 94 1683 c 1
 84 1673 86 1659 86 1645 c 0
 86 1584 156 1614 199 1585 c 0
 242 1556 275 1534 281 1481 c 1
 285 1465 289 1405 289 1399 c 2
 289 631 l 2
 289 541 290 430 184 397 c 1
 178 397 129 391 123 391 c 1
 90 385 92 363 86 330 c 1
 86 326 l 1
 86 324 l 1
 88 322 98 309 100 307 c 1
748 1477 m 0
 744 1477 744 1468 748 1468 c 0
 752 1468 752 1477 748 1477 c 0
EndSplineSet
EndChar

StartChar: H
Encoding: 72 72 6
Width: 1830
VWidth: 0
Flags: W
LayerCount: 2
Fore
SplineSet
557 745 m 1
 1280 745 l 1
 1280 256 l 2
 1280 98 1047 143 1047 96 c 2
 1047 80 l 2
 1047 47 1047 14 1061 0 c 1
 1743 0 l 1
 1753 14 1753 49 1753 82 c 2
 1753 96 l 1
 1747 143 1520 98 1520 256 c 2
 1520 1321 l 2
 1520 1479 1747 1434 1753 1481 c 1
 1753 1495 l 2
 1753 1528 1753 1563 1743 1577 c 1
 1061 1577 l 1
 1047 1563 1047 1530 1047 1497 c 2
 1047 1481 l 2
 1047 1434 1280 1479 1280 1321 c 2
 1280 862 l 1
 557 862 l 1
 557 1321 l 2
 557 1479 791 1434 791 1481 c 2
 791 1497 l 2
 791 1530 790 1563 776 1577 c 1
 94 1577 l 1
 84 1563 84 1528 84 1495 c 2
 84 1481 l 1
 90 1434 317 1479 317 1321 c 2
 317 256 l 2
 317 98 90 143 84 96 c 1
 84 82 l 2
 84 49 84 14 94 0 c 1
 776 0 l 1
 790 14 791 47 791 80 c 2
 791 96 l 2
 791 143 557 98 557 256 c 2
 557 745 l 1
915 1577 m 0
915 789 m 0
EndSplineSet
EndChar

StartChar: I
Encoding: 73 73 7
Width: 862
VWidth: 0
Flags: W
LayerCount: 2
Fore
SplineSet
311 256 m 2
 311 1321 l 2
 311 1479 78 1434 78 1481 c 2
 78 1497 l 2
 78 1530 78 1563 92 1577 c 1
 774 1577 l 1
 784 1563 784 1528 784 1495 c 2
 784 1481 l 1
 778 1434 551 1479 551 1321 c 2
 551 256 l 2
 551 98 778 143 784 96 c 1
 784 82 l 2
 784 49 784 14 774 0 c 1
 92 0 l 1
 78 14 78 47 78 80 c 2
 78 96 l 2
 78 143 311 98 311 256 c 2
431 1577 m 0
776 10 m 0
EndSplineSet
EndChar

StartChar: L
Encoding: 76 76 8
Width: 1480
VWidth: 0
Flags: W
LayerCount: 2
Fore
SplineSet
551 399 m 2
 551 106 662 104 821 104 c 0
 1029 104 1177 178 1266 315 c 0
 1297 363 1302 401 1372 401 c 0
 1392 401 1397 382 1397 359 c 0
 1397 344 1395 328 1393 315 c 2
 1337 57 l 1
 1327 6 1296 0 1251 0 c 2
 92 0 l 1
 78 14 78 47 78 80 c 2
 78 96 l 2
 78 143 311 98 311 256 c 2
 311 1321 l 2
 311 1479 78 1434 78 1481 c 2
 78 1497 l 2
 78 1530 78 1563 92 1577 c 1
 774 1577 l 1
 784 1563 784 1528 784 1495 c 2
 784 1481 l 1
 778 1434 551 1479 551 1321 c 2
 551 399 l 2
740 1577 m 0
740 0 m 0
EndSplineSet
EndChar

StartChar: M
Encoding: 77 77 9
Width: 2086
VWidth: 0
Flags: W
LayerCount: 2
Fore
SplineSet
866 260 m 1
 866 252 l 1
 872 232 883 199 887 176 c 0
 889 166 899 92 901 84 c 0
 901 82 911 51 915 43 c 2
 922 29 l 1
 938 17 942 22 958 20 c 0
 960 20 989 14 993 14 c 0
 995 14 1016 25 1020 29 c 1
 1022 29 1026 39 1028 43 c 2
 1202 590 l 1
 1208 598 1227 643 1231 651 c 1
 1233 659 1249 715 1251 723 c 1
 1253 725 1266 748 1266 750 c 0
 1280 787 1338 952 1350 989 c 1
 1358 1004 l 1
 1427 1249 l 1
 1434 1262 l 1
 1442 1217 1456 1175 1462 1128 c 1
 1462 1116 l 1
 1518 680 l 1
 1520 676 1526 657 1526 651 c 0
 1542 538 1561 412 1561 295 c 0
 1561 229 1530 182 1477 147 c 0
 1475 145 1464 141 1462 139 c 1
 1456 139 1405 135 1399 133 c 1
 1362 127 1362 96 1358 63 c 1
 1358 59 l 2
 1358 36 1372 20 1395 20 c 2
 1399 20 l 1
 1424 22 1620 29 1645 29 c 2
 1989 29 l 1
 2003 35 l 1
 2003 35 2007 74 2009 92 c 1
 2009 98 l 2
 2009 116 2001 141 1978 141 c 1
 1974 139 l 2
 1972 139 1950 133 1946 133 c 0
 1909 133 1847 174 1835 211 c 1
 1827 231 1808 295 1806 301 c 0
 1800 330 1776 469 1772 498 c 1
 1774 531 1763 559 1757 590 c 0
 1753 610 1735 733 1729 764 c 1
 1711 887 1695 1014 1679 1137 c 1
 1671 1209 1659 1282 1659 1354 c 0
 1659 1405 1669 1438 1702 1481 c 1
 1702 1479 1706 1479 1708 1481 c 2
 1714 1493 l 1
 1741 1520 1812 1495 1812 1542 c 0
 1812 1603 1792 1599 1739 1599 c 2
 1694 1599 l 2
 1688 1599 1636 1591 1630 1591 c 2
 1399 1591 l 1
 1393 1585 l 1
 1391 1560 1382 1442 1378 1417 c 0
 1374 1388 1350 1346 1358 1311 c 1
 1251 975 l 1
 1235 948 1235 912 1217 885 c 1
 1049 457 l 2
 1049 455 1047 455 1047 455 c 1
 1024 455 1022 518 1006 541 c 1
 895 856 l 1
 895 870 l 1
 895 870 849 993 831 1044 c 0
 829 1050 821 1059 823 1067 c 1
 719 1382 l 1
 713 1397 l 1
 670 1571 l 1
 670 1577 649 1591 641 1591 c 2
 276 1591 l 2
 260 1591 262 1548 262 1540 c 2
 262 1536 l 1
 264 1528 270 1509 270 1507 c 1
 270 1507 287 1501 291 1501 c 1
 297 1499 342 1497 348 1493 c 1
 354 1491 389 1456 397 1444 c 0
 403 1436 422 1390 424 1382 c 0
 424 1380 426 1351 426 1339 c 0
 426 1329 424 1294 424 1290 c 0
 420 1247 395 1040 389 995 c 1
 371 950 377 897 369 848 c 0
 363 809 327 623 319 582 c 1
 321 566 313 548 311 532 c 0
 309 514 301 426 299 408 c 1
 287 394 287 364 285 350 c 1
 279 332 254 243 250 225 c 1
 240 217 225 194 221 188 c 1
 180 143 139 122 80 104 c 1
 74 86 74 77 74 59 c 0
 74 53 74 20 88 20 c 2
 571 20 l 2
 579 20 586 72 586 78 c 0
 586 146 504 110 473 133 c 1
 438 168 l 1
 420 193 403 229 403 260 c 2
 403 442 l 1
 467 891 l 1
 467 926 l 1
 502 1151 l 1
 500 1178 504 1216 508 1241 c 1
 510 1247 512 1257 520 1257 c 1
 522 1255 l 1
 537 1227 l 1
 748 616 l 1
 754 604 l 1
 866 260 l 1
EndSplineSet
EndChar

StartChar: N
Encoding: 78 78 10
Width: 1859
VWidth: 0
Flags: W
LayerCount: 2
Fore
SplineSet
1454 63 m 1
 1462 43 1478 14 1503 14 c 2
 1587 14 l 2
 1591 14 1602 25 1602 29 c 2
 1602 45 l 1
 1602 63 l 1
 1600 79 1577 209 1573 225 c 0
 1573 227 1575 256 1573 260 c 1
 1573 264 1567 297 1567 301 c 2
 1567 324 l 2
 1567 340 1561 488 1561 506 c 0
 1559 543 1561 852 1561 891 c 1
 1559 905 1552 1018 1552 1030 c 2
 1552 1094 l 1
 1552 1151 l 2
 1552 1157 1559 1213 1561 1221 c 1
 1561 1231 1559 1309 1561 1319 c 0
 1561 1321 1565 1346 1567 1354 c 0
 1569 1364 1585 1413 1587 1423 c 1
 1589 1425 1593 1430 1595 1432 c 0
 1597 1436 1626 1469 1630 1473 c 0
 1638 1481 1678 1505 1686 1507 c 1
 1711 1517 1762 1505 1778 1536 c 1
 1778 1565 l 2
 1778 1581 1782 1610 1755 1614 c 1
 1704 1612 1458 1612 1405 1614 c 0
 1391 1614 1280 1620 1266 1620 c 2
 1245 1620 l 2
 1210 1620 1188 1612 1188 1571 c 0
 1188 1551 1197 1536 1217 1530 c 0
 1227 1526 1305 1503 1315 1501 c 1
 1358 1487 1405 1430 1419 1389 c 0
 1431 1352 1430 1319 1440 1284 c 1
 1450 1075 1450 866 1454 659 c 0
 1454 649 1462 571 1462 561 c 0
 1462 543 1456 458 1454 442 c 1
 1440 442 l 2
 1438 442 1394 492 1378 512 c 0
 1372 518 1333 576 1329 582 c 0
 1311 605 1222 703 1202 723 c 1
 1167 791 1108 852 1055 905 c 1
 1055 907 1049 918 1049 920 c 1
 1045 924 1016 950 1012 954 c 1
 1008 960 987 989 985 995 c 1
 768 1241 l 1
 731 1290 l 1
 453 1606 l 1
 143 1606 l 2
 135 1606 106 1601 100 1599 c 0
 82 1591 80 1562 80 1546 c 0
 80 1507 114 1519 143 1507 c 0
 206 1482 256 1436 311 1397 c 1
 311 1389 l 1
 319 1385 348 1360 354 1354 c 1
 364 1340 360 1302 360 1290 c 0
 360 1278 367 1183 367 1171 c 0
 369 1095 369 748 367 674 c 1
 369 664 373 614 375 604 c 1
 375 600 l 1
 375 596 l 1
 373 588 369 526 367 518 c 1
 367 506 369 393 367 379 c 1
 367 365 352 284 346 266 c 0
 334 223 295 183 262 154 c 1
 260 154 252 147 248 147 c 1
 236 143 192 135 184 133 c 1
 143 133 l 1
 108 129 106 86 106 61 c 0
 106 57 109 43 109 43 c 1
 123 35 l 1
 711 35 l 2
 736 35 733 72 733 84 c 0
 733 107 732 135 705 139 c 1
 699 141 647 145 641 147 c 0
 631 149 577 174 563 182 c 0
 526 202 496 332 494 365 c 0
 494 379 487 486 487 498 c 1
 485 521 487 700 487 723 c 1
 485 733 479 811 479 821 c 2
 479 989 l 2
 479 1001 473 1108 473 1122 c 2
 473 1161 l 1
 473 1192 l 2
 473 1198 475 1206 483 1206 c 2
 487 1206 l 1
 528 1163 l 1
 745 897 l 1
 776 872 798 838 823 807 c 0
 872 746 926 684 977 625 c 1
 1020 582 l 2
 1026 576 1069 512 1075 506 c 0
 1079 502 1108 473 1110 469 c 1
 1114 467 1122 453 1124 449 c 1
 1454 63 l 1
930 1577 m 0
930 0 m 0
EndSplineSet
EndChar

StartChar: O
Encoding: 79 79 11
Width: 1652
VWidth: 0
Flags: W
LayerCount: 2
Fore
SplineSet
74 753 m 0
 74 312.477 394.967 -35 823 -35 c 0
 1255.31 -35 1575 316.552 1575 756 c 0
 1575 1225.79 1300.39 1593 827 1593 c 0
 417.71 1593 74 1208.6 74 753 c 0
1323 704 m 0
 1323 353.785 1176.66 63.7263 837.973 63.7263 c 0
 486.217 63.7263 326 461.36 326 792 c 0
 326 1133.46 443.444 1491.47 807.681 1491.47 c 0
 1176.19 1491.47 1323 1079.7 1323 704 c 0
826 1577 m 0
EndSplineSet
EndChar

StartChar: P
Encoding: 80 80 12
Width: 1417
VWidth: 0
Flags: W
LayerCount: 2
Fore
SplineSet
78 59 m 0
 78 30 90 14 123 14 c 0
 191 14 258 20 326 20 c 0
 439 20 551 14 664 14 c 2
 772 14 l 1
 790 24 793 45 793 63 c 0
 793 75 792 98 778 104 c 1
 651 118 559 136 547 281 c 0
 547 285 549 318 547 324 c 1
 547 332 543 371 541 379 c 1
 541 723 l 2
 541 733 535 817 535 827 c 0
 535 841 541 949 541 961 c 2
 541 965 l 2
 541 1074 532 1183 532 1294 c 0
 532 1321 535 1439 535 1466 c 1
 539 1476 547 1491 561 1493 c 0
 573 1495 631 1495 643 1495 c 0
 690 1495 727 1497 772 1487 c 0
 833 1473 891 1462 940 1423 c 0
 946 1419 990 1376 1004 1360 c 0
 1008 1356 1024 1335 1024 1333 c 1
 1030 1323 1055 1259 1059 1241 c 1
 1069 1214 1067 1194 1067 1165 c 0
 1067 1140 1069 1104 1059 1079 c 1
 1053 1059 1014 966 1004 946 c 1
 963 895 902 854 836 842 c 0
 822 840 708 829 694 827 c 0
 671 825 645 809 645 782 c 0
 645 755 659 733 688 729 c 1
 776 729 l 2
 887 729 996 738 1096 793 c 0
 1108 799 1147 823 1151 827 c 0
 1163 837 1241 912 1264 932 c 1
 1315 985 1333 1089 1333 1159 c 0
 1333 1280 1284 1386 1194 1466 c 1
 1178 1478 1110 1528 1096 1536 c 0
 1092 1538 1042 1552 1024 1556 c 0
 977 1568 926 1575 877 1579 c 0
 871 1579 708 1583 645 1585 c 1
 635 1585 l 1
 625 1585 l 2
 615 1585 536 1579 526 1579 c 1
 516 1577 438 1579 428 1579 c 1
 424 1577 385 1571 379 1571 c 0
 369 1571 284 1577 274 1579 c 1
 195 1579 l 1
 113 1579 l 1
 111 1577 94 1573 92 1571 c 1
 90 1571 84 1565 84 1565 c 1
 84 1501 l 2
 84 1499 100 1489 106 1487 c 0
 112 1485 170 1481 176 1481 c 1
 293 1452 301 1341 303 1241 c 1
 303 1090 l 1
 303 940 l 2
 303 932 295 870 295 862 c 2
 295 827 l 2
 295 733 303 641 303 545 c 0
 303 428 310 305 281 188 c 1
 273 149 221 135 190 127 c 0
 176 123 106 108 92 104 c 1
 76 98 78 73 78 59 c 0
113 1477 m 0
 109 1477 109 1468 113 1468 c 0
 117 1468 117 1477 113 1477 c 0
EndSplineSet
EndChar

StartChar: R
Encoding: 82 82 13
Width: 1511
VWidth: 0
Flags: W
LayerCount: 2
Fore
SplineSet
82 338 m 0
 82 315 86 301 113 301 c 2
 668 301 l 1
 668 391 l 1
 586 406 l 1
 582 408 575 416 575 420 c 1
 542 420 524 440 504 467 c 1
 502 467 496 479 496 481 c 0
 494 491 487 535 487 541 c 2
 487 940 l 2
 487 948 510 954 518 954 c 0
 586 954 649 917 690 864 c 2
 1059 391 l 1
 1141 307 l 1
 1413 301 l 1
 1438 299 1442 318 1442 338 c 0
 1442 399 1393 399 1346 428 c 0
 1338 434 1300 459 1292 467 c 1
 1261 492 1242 520 1217 549 c 0
 1207 561 1128 658 1118 670 c 1
 1104 684 l 1
 1102 688 1083 719 1081 721 c 0
 1077 725 1046 756 1044 760 c 1
 1034 770 962 862 954 872 c 1
 940 886 872 957 856 969 c 1
 999 1030 l 1
 1003 1040 1020 1040 1028 1044 c 0
 1036 1048 1067 1069 1073 1075 c 1
 1147 1132 1180 1237 1180 1327 c 0
 1180 1474 1050 1610 915 1653 c 1
 860 1673 790 1692 729 1692 c 2
 90 1692 l 1
 90 1616 l 2
 90 1593 192 1596 217 1571 c 0
 248 1540 270 1495 270 1450 c 2
 270 541 l 2
 270 475 218 407 150 397 c 1
 136 397 98 391 96 391 c 0
 94 391 90 385 90 383 c 0
 88 375 82 344 82 338 c 0
487 1059 m 1
 487 1171 l 1
 487 1286 l 2
 487 1298 496 1407 496 1421 c 0
 496 1431 489 1528 487 1540 c 1
 487 1561 l 2
 487 1577 488 1586 496 1602 c 1
 545 1602 l 2
 649 1602 750 1594 834 1526 c 0
 906 1469 938 1392 938 1300 c 0
 938 1275 925 1230 915 1210 c 0
 911 1200 891 1157 887 1149 c 1
 885 1149 874 1139 870 1135 c 0
 768 1045 647 1044 514 1044 c 0
 504 1044 493 1053 487 1059 c 1
756 1577 m 0
756 0 m 0
EndSplineSet
EndChar

StartChar: S
Encoding: 83 83 14
Width: 1394
VWidth: 0
Flags: WO
PickledData: "(dp1
S'com.typemytype.robofont.layerData'
p2
(dp3
S'back'
p4
(dp5
S'name'
p6
S'S'
sS'lib'
p7
(dp8
sS'unicodes'
p9
(tsS'width'
p10
I1394
sS'contours'
p11
((dp12
S'points'
p13
((dp14
S'y'
F1593
sS'x'
F417.70999999999998
sS'smooth'
p15
I00
s(dp16
S'y'
F1208.5999999999999
sS'x'
F74
sg15
I00
s(dp17
S'segmentType'
p18
S'curve'
p19
sS'x'
F74
sg15
I01
sS'y'
F753
s(dp20
S'y'
F312.47699999999998
sS'x'
F74
sg15
I00
s(dp21
S'y'
F-35
sS'x'
F394.96699999999998
sg15
I00
s(dp22
g18
S'curve'
p23
sS'x'
F823
sg15
I01
sS'y'
F-35
s(dp24
S'y'
F-35
sS'x'
F1255.3099999999999
sg15
I00
s(dp25
S'y'
F316.55200000000002
sS'x'
F1575
sg15
I00
s(dp26
g18
S'curve'
p27
sS'x'
F1575
sg15
I01
sS'y'
F756
s(dp28
S'y'
F1225.79
sS'x'
F1575
sg15
I00
s(dp29
S'y'
F1593
sS'x'
F1300.3900000000001
sg15
I00
s(dp30
g18
S'curve'
p31
sS'x'
F827
sg15
I01
sS'y'
F1593
stp32
s(dp33
g13
((dp34
S'y'
F1491.47
sS'x'
F1176.1900000000001
sg15
I00
s(dp35
S'y'
F1079.7
sS'x'
F1323
sg15
I00
s(dp36
g18
S'curve'
p37
sS'x'
F1323
sg15
I01
sS'y'
F704
s(dp38
S'y'
F353.78500000000003
sS'x'
F1323
sg15
I00
s(dp39
S'y'
F63.726300000000002
sS'x'
F1176.6600000000001
sg15
I00
s(dp40
g18
S'curve'
p41
sS'x'
F837.97299999999996
sg15
I01
sS'y'
F63.726300000000002
s(dp42
S'y'
F63.726300000000002
sS'x'
F486.21699999999998
sg15
I00
s(dp43
S'y'
F461.36000000000001
sS'x'
F326
sg15
I00
s(dp44
g18
S'curve'
p45
sS'x'
F326
sg15
I01
sS'y'
F792
s(dp46
S'y'
F1133.46
sS'x'
F326
sg15
I00
s(dp47
S'y'
F1491.47
sS'x'
F443.44400000000002
sg15
I00
s(dp48
g18
S'curve'
p49
sS'x'
F807.68100000000004
sg15
I01
sS'y'
F1491.47
stp50
stp51
sS'components'
p52
(tsS'anchors'
p53
((dp54
S'y'
F1577
sS'x'
F826
sg6
S'top'
p55
stp56
sss."
LayerCount: 2
Back
SplineSet
774 -30 m 0
 1085 -30 1304 124 1304 423 c 0
 1304 607.364824033 1147.54135096 761.889873024 1000 840 c 2
 694 1004 l 2
 614.896484375 1046.39550781 510 1116.09613298 510 1244.66579543 c 0
 510 1416.44588458 606.205912666 1498 778.000007331 1498 c 0
 1058.90171116 1498 1113.99999732 1352.66579221 1183 1148 c 1
 1193 1150 1212 1154 1212 1157 c 2
 1212 1473 l 1
 1161.88347607 1562.09604253 907.199219735 1591 772 1591 c 0
 495.981921019 1591 295 1452.37845597 295 1187 c 0
 295 977.676671034 425.322265625 868.65625 568.000008545 787.992848166 c 2
 828 641 l 2
 990.691391272 549.021262457 1082 467.816278607 1082 330 c 0
 1082 171.658736592 967.432268369 65 772 65 c 0
 476.104702957 65 407 299.666015625 359 467 c 1
 325 467 l 1
 313 82 l 0
 356.632872948 -5.26574589668 667.54231185 -30 774 -30 c 0
EndSplineSet
Fore
SplineSet
774 -30 m 4
 1085 -30 1304 124 1304 423 c 4
 1304 558 1234 660 1128 749 c 5
 1108 764 1017 831 1000 840 c 4
 969 858 725 985 694 1004 c 4
 687 1008 608 1061 584 1080 c 4
 569 1091 555 1108 545 1122 c 5
 536 1140 510 1190 510 1192 c 6
 510 1327 l 6
 510 1329 528 1364 538 1378 c 5
 569 1431 637 1487 704 1498 c 5
 851 1498 l 5
 866 1496 923 1478 933 1473 c 4
 941 1469 1000 1414 1017 1396 c 4
 1020 1394 1034 1374 1037 1370 c 5
 1044 1354 1085 1281 1092 1268 c 4
 1112 1228 1103 1148 1171 1148 c 6
 1183 1148 l 5
 1193 1150 1212 1154 1212 1157 c 6
 1212 1473 l 5
 1203 1489 l 6
 1201 1491 1150 1515 1128 1524 c 5
 1113 1529 1029 1558 1010 1565 c 4
 928 1591 856 1591 772 1591 c 6
 685 1591 l 5
 670 1589 582 1572 565 1565 c 5
 457 1530 346 1398 305 1310 c 4
 303 1305 295 1279 295 1275 c 6
 295 1187 l 6
 295 1118 300 1057 341 995 c 4
 432 855 616 753 767 678 c 5
 777 671 l 6
 789 662 861 620 878 611 c 4
 911 593 949 578 971 550 c 5
 991 527 1050 455 1055 448 c 4
 1080 413 1082 372 1082 330 c 4
 1082 226 1024 115 906 82 c 4
 896 80 822 67 805 65 c 5
 772 65 l 6
 587 65 487 224 425 365 c 4
 410 400 415 441 379 467 c 5
 346 467 l 6
 338 467 303 470 295 458 c 4
 293 454 313 84 313 82 c 4
 320 68 359 51 369 49 c 4
 415 35 569 -7 593 -11 c 4
 608 -13 699 -25 721 -27 c 4
 724 -27 762 -30 774 -30 c 4
EndSplineSet
EndChar

StartChar: T
Encoding: 84 84 15
Width: 1628
VWidth: 0
Flags: W
LayerCount: 2
Fore
SplineSet
836 1579 m 1
 1454 1579 l 2
 1522 1579 1536 1567 1536 1544 c 0
 1536 1526 1534 1501 1534 1470 c 0
 1534 1353 1542 1284 1542 1239 c 0
 1542 1231 1520 1227 1493 1227 c 0
 1401 1227 1385 1481 1235 1481 c 2
 934 1481 l 1
 934 256 l 2
 934 98 1161 143 1167 96 c 1
 1167 82 l 2
 1167 49 1167 14 1157 0 c 1
 475 0 l 1
 461 14 461 47 461 80 c 2
 461 96 l 2
 461 143 694 98 694 256 c 2
 694 1481 l 1
 393 1481 l 2
 243 1481 227 1227 135 1227 c 0
 108 1227 86 1231 86 1239 c 0
 86 1284 94 1353 94 1470 c 0
 94 1501 92 1526 92 1544 c 0
 92 1567 106 1579 174 1579 c 2
 836 1579 l 1
814 1577 m 0
814 0 m 0
814 789 m 0
EndSplineSet
EndChar

StartChar: Y
Encoding: 89 89 16
Width: 1613
VWidth: 0
Flags: W
LayerCount: 2
Fore
SplineSet
477 78 m 0
 477 66 477 53 485 43 c 1
 489 35 504 20 506 20 c 2
 1130 20 l 1
 1145 35 l 1
 1145 57 l 2
 1145 75 1148 101 1130 113 c 1
 1028 117 977 133 940 231 c 0
 938 237 934 256 934 260 c 0
 932 270 934 348 934 358 c 0
 934 366 928 434 926 442 c 1
 926 565 l 1
 926 688 l 1
 930 719 945 735 963 758 c 0
 971 768 965 772 975 778 c 1
 995 815 1093 981 1116 1018 c 1
 1143 1059 1173 1100 1200 1143 c 1
 1251 1229 1296 1327 1362 1403 c 0
 1372 1415 1405 1448 1411 1452 c 0
 1417 1456 1477 1485 1495 1493 c 1
 1497 1495 1520 1499 1522 1501 c 1
 1528 1503 1536 1507 1536 1507 c 1
 1536 1579 l 2
 1536 1583 1516 1591 1516 1591 c 1
 1510 1591 1481 1593 1475 1593 c 0
 1465 1593 1434 1591 1432 1591 c 0
 1403 1591 1264 1587 1235 1585 c 1
 1221 1591 l 1
 1004 1591 l 2
 990 1591 989 1542 989 1528 c 0
 989 1520 987 1511 997 1507 c 0
 1036 1491 1081 1501 1122 1481 c 0
 1134 1475 1145 1452 1151 1444 c 0
 1165 1426 1174 1401 1174 1374 c 0
 1174 1372 1171 1362 1171 1360 c 0
 1167 1342 1132 1253 1122 1235 c 1
 1106 1200 1017 1043 997 1010 c 1
 985 1004 987 989 975 981 c 1
 891 836 l 1
 889 828 882 821 874 821 c 2
 870 821 l 1
 866 825 852 844 850 848 c 1
 842 856 l 1
 729 1044 l 1
 694 1064 703 1131 668 1151 c 1
 654 1178 587 1310 575 1339 c 0
 571 1347 563 1376 561 1382 c 1
 561 1407 l 2
 561 1491 649 1497 717 1507 c 1
 723 1516 l 1
 723 1579 l 2
 723 1583 702 1591 702 1591 c 1
 141 1591 l 1
 84 1585 l 1
 78 1583 78 1567 78 1561 c 0
 78 1543 80 1517 98 1507 c 1
 110 1505 164 1491 176 1487 c 0
 180 1485 209 1470 217 1466 c 0
 219 1466 223 1460 225 1458 c 0
 233 1448 258 1413 260 1409 c 2
 451 1087 l 1
 461 1081 467 1057 471 1053 c 1
 524 967 584 881 633 793 c 1
 649 762 657 723 682 694 c 1
 684 671 694 564 694 541 c 1
 696 537 696 491 696 473 c 0
 696 416 694 364 688 309 c 0
 686 289 682 240 682 238 c 0
 674 220 639 160 633 154 c 1
 604 133 l 1
 590 131 526 117 512 113 c 0
 494 107 477 101 477 78 c 0
954 965 m 0
 950 965 950 956 954 956 c 0
 958 956 958 965 954 965 c 0
807 1577 m 0
EndSplineSet
EndChar

StartChar: _111
Encoding: 65536 -1 17
Width: 4388
VWidth: 0
Flags: W
LayerCount: 2
Fore
SplineSet
2210 834 m 1
 2646 301 l 2
 2650 295 2663 285 2669 285 c 2
 2744 293 l 2
 2750 293 2753 316 2753 324 c 2
 2753 330 l 1
 2749 367 2726 528 2722 563 c 1
 2722 1241 l 1
 2724 1241 2730 1245 2730 1247 c 0
 2730 1249 2722 1262 2722 1264 c 2
 2722 1276 l 2
 2722 1339 2722 1405 2736 1466 c 1
 2740 1478 2751 1516 2753 1518 c 1
 2753 1520 2779 1553 2789 1563 c 1
 2801 1577 2810 1587 2826 1593 c 0
 2838 1597 2898 1614 2910 1616 c 1
 2924 1622 2925 1628 2925 1640 c 0
 2925 1656 2922 1667 2916 1683 c 1
 2766 1691 2616 1694 2466 1698 c 0
 2464 1698 2449 1700 2445 1700 c 0
 2437 1700 2419 1700 2413 1692 c 1
 2413 1690 2408 1663 2406 1653 c 1
 2406 1649 l 1
 2406 1647 l 1
 2408 1643 2425 1626 2429 1624 c 0
 2443 1620 2511 1599 2525 1593 c 0
 2527 1593 2554 1571 2564 1563 c 0
 2617 1518 2619 1434 2623 1368 c 1
 2625 1352 2630 1278 2632 1264 c 1
 2632 662 l 2
 2632 656 2623 653 2619 653 c 2
 2615 653 l 1
 2615 655 2603 674 2601 676 c 0
 2556 731 2511 787 2466 842 c 0
 2443 871 2369 965 2361 977 c 1
 2357 981 2347 1002 2345 1008 c 1
 2259 1102 2165 1217 2083 1315 c 0
 2009 1403 1942 1501 1864 1585 c 1
 1860 1591 1816 1632 1812 1638 c 0
 1810 1640 1806 1653 1804 1653 c 1
 1798 1661 1767 1692 1759 1698 c 1
 1571 1698 l 1
 1563 1700 1491 1706 1481 1706 c 2
 1477 1706 l 2
 1473 1706 1444 1702 1444 1692 c 2
 1444 1638 l 2
 1444 1636 1536 1601 1556 1585 c 1
 1576 1571 1645 1511 1655 1503 c 0
 1659 1499 1681 1472 1683 1466 c 1
 1685 1413 1686 1171 1686 1120 c 0
 1686 1028 1685 786 1683 774 c 1
 1683 758 1677 624 1677 608 c 2
 1677 586 l 1
 1675 574 1671 537 1669 535 c 1
 1653 490 1632 442 1587 422 c 1
 1571 418 1497 401 1481 397 c 0
 1456 391 1458 371 1458 348 c 2
 1458 330 l 1
 1475 324 l 1
 1985 324 l 2
 1987 324 1993 334 1993 338 c 2
 1993 362 l 1
 1993 383 l 1
 1991 387 1974 404 1970 406 c 0
 1966 408 1929 412 1925 414 c 0
 1913 418 1853 445 1841 451 c 1
 1814 488 1798 535 1790 580 c 1
 1782 789 1780 999 1774 1210 c 1
 1774 1292 l 1
 1774 1346 l 1
 1782 1360 l 1
 1800 1358 1802 1343 1812 1331 c 1
 1816 1323 1843 1292 1849 1286 c 1
 1851 1282 1870 1266 1872 1264 c 0
 1876 1258 1905 1214 1911 1210 c 1
 1915 1202 1964 1149 1970 1143 c 1
 1972 1139 1991 1108 1993 1104 c 0
 2040 1038 2099 975 2150 909 c 1
 2168 884 2185 854 2210 834 c 1
3316 360 m 0
 3316 350 3322 307 3338 307 c 2
 3901 307 l 1
 3901 383 l 1
 3901 383 3891 389 3887 391 c 0
 3881 393 3867 397 3865 397 c 0
 3861 399 3836 397 3834 397 c 0
 3824 399 3787 412 3781 414 c 0
 3756 424 3731 487 3729 512 c 0
 3727 528 3721 609 3721 625 c 2
 3721 739 l 2
 3721 821 3711 895 3758 963 c 0
 3762 969 3799 1016 3803 1022 c 0
 3832 1067 3958 1278 3983 1323 c 1
 3992 1331 l 1
 4119 1526 l 1
 4146 1563 4200 1579 4239 1593 c 1
 4245 1599 4256 1649 4256 1657 c 0
 4256 1671 4249 1692 4231 1692 c 2
 3797 1692 l 2
 3783 1692 3781 1644 3781 1634 c 0
 3781 1628 3777 1612 3789 1608 c 0
 3820 1600 3874 1604 3901 1579 c 0
 3903 1577 3924 1544 3932 1534 c 1
 3940 1520 3940 1517 3940 1501 c 0
 3940 1499 3940 1489 3938 1489 c 1
 3901 1382 l 1
 3707 1053 l 2
 3699 1041 3692 1020 3676 1020 c 0
 3674 1020 3668 1022 3668 1022 c 1
 3623 1090 l 1
 3420 1466 l 1
 3416 1484 3406 1504 3406 1522 c 0
 3406 1600 3488 1606 3549 1616 c 1
 3557 1626 3557 1641 3557 1653 c 0
 3557 1671 3558 1696 3533 1698 c 1
 3209 1698 l 1
 3197 1700 3094 1706 3082 1706 c 2
 3041 1706 l 1
 3000 1706 l 1
 2986 1696 2984 1681 2984 1665 c 0
 2984 1645 2983 1622 3006 1616 c 0
 3045 1606 3096 1604 3119 1563 c 2
 3277 1286 l 1
 3285 1278 l 1
 3502 901 l 2
 3504 899 3510 832 3510 805 c 2
 3510 750 l 1
 3510 692 l 2
 3510 657 3504 553 3502 541 c 1
 3500 512 3485 476 3465 451 c 0
 3457 441 3438 418 3420 414 c 0
 3406 410 3338 393 3322 391 c 1
 3316 377 3316 372 3316 360 c 0
84 330 m 1
 229 334 348 324 489 324 c 0
 495 324 512 324 512 330 c 2
 512 397 l 2
 512 401 502 412 498 414 c 0
 492 416 448 426 444 428 c 0
 395 451 377 504 377 551 c 0
 377 598 379 647 391 692 c 0
 399 721 443 858 453 887 c 1
 471 885 568 881 588 879 c 1
 864 879 l 1
 870 875 885 848 887 842 c 0
 893 830 922 733 926 721 c 1
 926 721 932 709 932 707 c 0
 940 684 977 580 985 557 c 0
 987 551 987 524 987 518 c 0
 987 469 962 422 909 414 c 0
 901 412 858 408 850 406 c 1
 838 398 836 383 836 369 c 2
 836 352 l 2
 836 344 842 324 842 324 c 1
 1368 324 l 1
 1368 383 l 2
 1368 385 1358 397 1354 397 c 1
 1352 399 1325 406 1317 406 c 2
 1300 406 l 1
 1271 422 1229 465 1219 496 c 2
 1083 909 l 1
 1069 940 l 1
 858 1579 l 1
 854 1583 844 1604 842 1608 c 1
 840 1618 815 1704 813 1714 c 1
 811 1718 807 1729 805 1729 c 0
 801 1731 780 1737 774 1737 c 2
 602 1737 l 2
 594 1737 594 1726 594 1720 c 0
 594 1697 618 1682 618 1657 c 0
 618 1655 618 1647 616 1647 c 1
 565 1495 l 1
 565 1489 l 1
 553 1452 541 1432 535 1399 c 1
 346 864 l 1
 346 858 340 831 340 827 c 1
 330 794 293 684 287 670 c 0
 277 643 223 523 211 496 c 1
 199 488 209 487 197 473 c 0
 166 438 133 404 84 406 c 1
 72 396 76 370 76 360 c 2
 76 338 l 1
 84 330 l 1
4307 739 m 0
 4303 739 4303 733 4307 733 c 0
 4311 733 4311 739 4307 739 c 0
481 995 m 1
 481 999 l 1
 485 1011 508 1076 512 1090 c 0
 512 1092 518 1102 520 1104 c 1
 625 1427 l 1
 639 1450 646 1511 666 1511 c 0
 676 1511 694 1450 692 1444 c 1
 698 1426 723 1347 729 1331 c 0
 768 1222 797 1110 836 999 c 1
 836 985 l 1
 504 985 l 2
 502 985 485 989 481 991 c 1
 481 995 l 1
2939 1063 m 0
 2935 1063 2935 1057 2939 1057 c 0
 2943 1057 2943 1063 2939 1063 c 0
2068 1251 m 0
 2070 1251 2070 1243 2068 1243 c 0
 2064 1243 2064 1251 2068 1251 c 0
4217 1333 m 0
 4213 1333 4213 1327 4217 1327 c 0
 4221 1327 4221 1333 4217 1333 c 0
3684 1602 m 1
 3684 1593 l 1
 3690 1593 l 1
 3690 1602 l 1
 3684 1602 l 1
EndSplineSet
EndChar

StartChar: _112
Encoding: 65537 -1 18
Width: 991
VWidth: 0
Flags: W
LayerCount: 2
Fore
SplineSet
82 676 m 0
 82 670 90 616 90 608 c 2
 90 467 l 2
 90 461 96 426 98 422 c 1
 98 414 l 1
 100 404 104 377 104 375 c 0
 110 363 142 348 150 346 c 0
 187 334 312 297 332 293 c 0
 344 291 418 281 436 279 c 0
 438 279 469 276 479 276 c 0
 731 276 909 412 909 676 c 0
 909 795 852 885 766 963 c 0
 750 977 676 1036 662 1044 c 0
 637 1060 439 1172 414 1188 c 0
 408 1192 344 1239 324 1255 c 0
 312 1265 301 1280 293 1292 c 1
 285 1308 264 1352 264 1354 c 2
 264 1473 l 2
 264 1475 279 1506 287 1518 c 1
 312 1565 367 1614 422 1624 c 1
 481 1624 l 1
 541 1624 l 1
 553 1622 600 1606 608 1602 c 0
 614 1598 662 1550 676 1534 c 0
 678 1532 690 1515 692 1511 c 0
 698 1497 731 1433 737 1421 c 0
 753 1386 746 1315 801 1315 c 2
 811 1315 l 1
 819 1317 834 1321 834 1323 c 2
 834 1602 l 1
 827 1616 l 2
 825 1618 784 1639 766 1647 c 1
 754 1651 686 1677 670 1683 c 0
 604 1706 545 1706 477 1706 c 2
 406 1706 l 1
 394 1704 323 1689 309 1683 c 1
 221 1652 131 1536 98 1458 c 0
 96 1454 90 1431 90 1427 c 2
 90 1350 l 2
 90 1289 94 1235 127 1180 c 0
 201 1057 350 967 473 901 c 0
 475 901 479 895 481 895 c 1
 491 887 549 850 563 842 c 0
 590 826 621 813 639 788 c 1
 655 768 703 704 707 698 c 0
 727 667 729 631 729 594 c 0
 729 502 682 404 586 375 c 0
 578 373 518 362 504 360 c 1
 477 360 l 2
 327 360 246 500 195 625 c 0
 183 656 187 692 158 715 c 1
 131 715 l 2
 125 715 96 717 90 707 c 0
 88 703 82 682 82 676 c 0
EndSplineSet
EndChar

StartChar: _113
Encoding: 65538 -1 19
Width: 1304
VWidth: 0
Flags: W
LayerCount: 2
Fore
SplineSet
616 307 m 1
 665 309 891 309 940 307 c 0
 952 307 1043 301 1053 301 c 0
 1067 301 1131 305 1143 307 c 1
 1145 309 1149 322 1151 324 c 1
 1157 344 1184 444 1188 467 c 1
 1188 481 l 1
 1200 530 1219 576 1219 625 c 0
 1219 648 1196 647 1180 647 c 0
 1157 647 1157 649 1143 631 c 0
 1135 621 1075 536 1067 526 c 0
 1055 512 997 459 985 451 c 0
 979 447 912 416 887 406 c 0
 852 392 807 391 768 391 c 2
 745 391 l 2
 731 391 622 397 610 397 c 1
 594 399 577 396 565 406 c 0
 508 451 489 508 489 580 c 2
 489 924 l 2
 489 934 494 971 498 977 c 1
 498 981 508 991 512 991 c 2
 662 989 l 1
 684 989 l 1
 813 985 l 2
 817 985 854 969 864 963 c 0
 917 930 920 862 940 811 c 1
 942 809 946 792 948 788 c 1
 975 788 l 2
 979 788 1022 787 1022 805 c 2
 1022 1157 l 1
 1026 1163 1030 1190 1030 1194 c 0
 1030 1202 1026 1239 1022 1247 c 1
 1020 1259 997 1255 993 1255 c 2
 971 1255 l 1
 955 1253 938 1127 872 1098 c 1
 858 1090 805 1075 797 1075 c 2
 535 1075 l 2
 531 1075 504 1079 498 1081 c 1
 496 1083 489 1088 489 1090 c 2
 489 1139 l 1
 489 1188 l 2
 489 1194 498 1249 498 1255 c 2
 498 1548 l 1
 504 1602 l 1
 842 1602 l 2
 963 1602 989 1511 1038 1421 c 0
 1054 1390 1065 1389 1100 1389 c 0
 1104 1389 1120 1391 1120 1391 c 1
 1128 1399 l 1
 1128 1653 l 2
 1128 1663 1112 1679 1106 1683 c 1
 848 1679 590 1692 332 1692 c 2
 106 1692 l 1
 94 1682 98 1657 98 1647 c 2
 98 1616 l 1
 129 1596 164 1607 197 1593 c 1
 240 1573 285 1522 287 1473 c 0
 287 1465 279 1399 279 1391 c 0
 279 1381 287 1296 287 1286 c 2
 287 1194 l 1
 287 1090 l 2
 287 1059 279 799 279 766 c 2
 279 631 l 2
 279 615 268 516 264 489 c 0
 258 444 217 397 174 391 c 0
 166 389 112 391 106 391 c 0
 81 389 82 362 82 346 c 0
 82 342 78 317 90 315 c 1
 151 315 437 309 498 307 c 1
 502 307 l 2
 522 307 542 315 565 315 c 0
 583 315 600 317 616 307 c 1
512 846 m 0
 508 846 508 838 512 838 c 0
 516 838 516 846 512 846 c 0
430 1112 m 1
 428 1108 422 1108 422 1112 c 1
 420 1116 430 1116 430 1112 c 1
414 1124 m 0
 418 1124 418 1116 414 1116 c 0
 410 1116 410 1124 414 1124 c 0
256 1350 m 0
 252 1350 252 1341 256 1341 c 0
 260 1341 260 1350 256 1350 c 0
EndSplineSet
EndChar

StartChar: _114
Encoding: 65539 -1 20
Width: 1511
VWidth: 0
Flags: W
LayerCount: 2
Fore
SplineSet
82 338 m 0
 82 315 86 301 113 301 c 2
 668 301 l 1
 668 391 l 1
 586 406 l 1
 582 408 575 416 575 420 c 1
 542 420 524 440 504 467 c 1
 502 467 496 479 496 481 c 0
 494 491 487 535 487 541 c 2
 487 940 l 2
 487 948 510 954 518 954 c 0
 586 954 649 917 690 864 c 2
 1059 391 l 1
 1141 307 l 1
 1413 301 l 1
 1438 299 1442 318 1442 338 c 0
 1442 399 1393 399 1346 428 c 0
 1338 434 1300 459 1292 467 c 1
 1261 492 1242 520 1217 549 c 0
 1207 561 1128 658 1118 670 c 1
 1104 684 l 1
 1102 688 1083 719 1081 721 c 0
 1077 725 1046 756 1044 760 c 1
 1034 770 962 862 954 872 c 1
 940 886 872 957 856 969 c 1
 999 1030 l 1
 1003 1040 1020 1040 1028 1044 c 0
 1036 1048 1067 1069 1073 1075 c 1
 1147 1132 1180 1237 1180 1327 c 0
 1180 1474 1050 1610 915 1653 c 1
 860 1673 790 1692 729 1692 c 2
 90 1692 l 1
 90 1616 l 2
 90 1593 192 1596 217 1571 c 0
 248 1540 270 1495 270 1450 c 2
 270 541 l 2
 270 475 218 407 150 397 c 1
 136 397 98 391 96 391 c 0
 94 391 90 385 90 383 c 0
 88 375 82 344 82 338 c 0
487 1059 m 1
 487 1171 l 1
 487 1286 l 2
 487 1298 496 1407 496 1421 c 0
 496 1431 489 1528 487 1540 c 1
 487 1561 l 2
 487 1577 488 1586 496 1602 c 1
 545 1602 l 2
 649 1602 750 1594 834 1526 c 0
 906 1469 938 1392 938 1300 c 0
 938 1275 925 1230 915 1210 c 0
 911 1200 891 1157 887 1149 c 1
 885 1149 874 1139 870 1135 c 0
 768 1045 647 1044 514 1044 c 0
 504 1044 493 1053 487 1059 c 1
EndSplineSet
EndChar

StartChar: _115
Encoding: 65540 -1 21
Width: 770
VWidth: 0
Flags: W
LayerCount: 2
Fore
SplineSet
82 324 m 1
 266 316 449 315 631 307 c 1
 653 307 l 2
 688 307 684 340 684 371 c 2
 684 383 l 1
 682 387 666 404 662 406 c 0
 660 408 641 406 639 406 c 0
 586 416 504 438 496 504 c 0
 496 510 489 574 489 594 c 2
 489 604 l 1
 489 616 l 2
 489 632 496 766 496 782 c 2
 496 1067 l 2
 496 1096 504 1325 504 1354 c 2
 504 1473 l 1
 516 1479 516 1505 518 1511 c 0
 538 1564 582 1600 639 1608 c 1
 659 1612 688 1595 698 1624 c 1
 698 1634 l 2
 698 1646 694 1692 676 1692 c 2
 346 1692 l 1
 297 1702 248 1700 199 1700 c 0
 187 1700 125 1700 113 1698 c 1
 97 1698 84 1671 82 1661 c 0
 82 1657 88 1636 90 1630 c 0
 104 1601 155 1610 180 1602 c 1
 211 1590 238 1575 256 1548 c 1
 297 1491 287 1414 287 1346 c 0
 287 1321 285 1245 285 1241 c 0
 285 1221 279 1064 279 1044 c 2
 279 788 l 2
 279 782 270 729 270 721 c 2
 270 526 l 1
 264 444 156 390 82 406 c 1
 82 404 76 393 76 391 c 0
 74 381 68 350 68 346 c 0
 68 340 78 328 82 324 c 1
526 1468 m 0
 522 1468 522 1462 526 1462 c 0
 530 1462 530 1468 526 1468 c 0
EndSplineSet
EndChar

StartChar: _116
Encoding: 65541 -1 22
Width: 1331
VWidth: 0
Flags: W
LayerCount: 2
Fore
SplineSet
590 315 m 1
 598 313 641 307 649 307 c 0
 653 307 664 313 666 315 c 1
 1153 315 l 2
 1167 315 1174 346 1176 352 c 0
 1190 411 1198 467 1212 526 c 0
 1222 565 1237 598 1237 639 c 0
 1237 651 1226 662 1214 662 c 0
 1183 662 1165 658 1145 631 c 0
 1141 625 1106 569 1100 563 c 0
 1088 549 1026 485 1010 473 c 1
 1008 473 997 467 995 467 c 1
 993 465 975 453 973 451 c 1
 891 414 844 406 756 406 c 2
 672 406 l 1
 643 422 613 408 582 422 c 0
 512 453 516 519 500 580 c 1
 500 946 l 2
 500 952 504 985 508 991 c 1
 508 993 512 999 514 999 c 2
 553 999 l 1
 590 999 l 2
 594 999 631 991 635 991 c 0
 639 991 662 997 666 999 c 1
 823 991 l 2
 829 991 860 981 868 977 c 0
 927 944 926 797 975 797 c 2
 987 797 l 1
 1001 799 1032 803 1032 805 c 2
 1040 819 l 1
 1040 1255 l 2
 1040 1257 1030 1270 1026 1270 c 2
 1026 1270 1012 1272 1008 1272 c 0
 996 1272 971 1269 965 1255 c 0
 963 1249 946 1194 942 1188 c 1
 936 1172 923 1149 913 1135 c 1
 901 1121 870 1110 860 1104 c 1
 837 1096 824 1090 801 1090 c 0
 774 1090 654 1083 627 1081 c 1
 623 1083 602 1090 598 1090 c 0
 582 1090 514 1087 500 1087 c 1
 500 1126 l 2
 500 1153 514 1364 514 1391 c 1
 516 1424 512 1577 512 1610 c 1
 567 1610 623 1616 680 1616 c 2
 733 1616 l 2
 743 1616 828 1610 838 1608 c 1
 971 1600 1012 1524 1063 1413 c 1
 1077 1405 1094 1397 1108 1397 c 0
 1118 1397 1145 1401 1145 1413 c 2
 1145 1669 l 2
 1145 1675 1136 1688 1130 1692 c 1
 800 1708 469 1694 139 1706 c 1
 119 1702 100 1692 100 1669 c 0
 100 1661 107 1630 109 1624 c 1
 125 1610 150 1614 168 1608 c 1
 213 1598 256 1577 274 1534 c 0
 278 1522 289 1485 289 1481 c 2
 289 856 l 1
 275 739 288 621 274 504 c 1
 266 447 205 412 154 406 c 0
 152 406 127 408 123 406 c 0
 117 404 96 393 94 391 c 0
 90 387 86 360 86 352 c 0
 86 348 98 328 100 324 c 1
 129 322 254 315 281 315 c 2
 590 315 l 1
1229 711 m 0
 1225 711 1225 702 1229 702 c 0
 1233 702 1233 711 1229 711 c 0
221 1575 m 0
 217 1575 217 1567 221 1567 c 0
 225 1567 225 1575 221 1575 c 0
EndSplineSet
EndChar

StartChar: _117
Encoding: 65542 -1 23
Width: 995
VWidth: 0
Flags: W
LayerCount: 2
Fore
SplineSet
145 346 m 1
 176 336 317 293 348 285 c 1
 385 277 450 276 487 276 c 0
 542 276 580 277 635 293 c 1
 821 352 913 475 913 674 c 0
 913 830 799 956 672 1036 c 1
 635 1061 455 1168 416 1188 c 1
 404 1196 352 1239 340 1247 c 1
 285 1296 272 1343 272 1413 c 0
 272 1462 274 1491 303 1534 c 1
 346 1595 403 1624 479 1624 c 0
 614 1624 662 1583 725 1466 c 1
 743 1429 752 1309 807 1309 c 0
 852 1309 852 1341 852 1378 c 0
 852 1415 844 1452 844 1489 c 2
 844 1511 l 1
 846 1513 852 1532 852 1534 c 2
 852 1534 846 1546 844 1548 c 1
 842 1564 852 1604 829 1616 c 0
 731 1663 629 1708 518 1708 c 0
 506 1708 471 1706 469 1706 c 0
 446 1704 340 1687 317 1683 c 1
 180 1611 92 1495 92 1339 c 2
 92 1300 l 1
 96 1282 123 1198 131 1180 c 0
 133 1174 160 1136 168 1126 c 0
 180 1112 240 1054 250 1044 c 1
 254 1042 279 1032 281 1030 c 0
 291 1024 363 969 371 963 c 0
 400 945 530 864 559 850 c 1
 567 836 600 821 612 811 c 0
 659 770 709 716 725 653 c 1
 725 598 l 2
 725 453 632 360 485 360 c 0
 460 360 441 361 416 369 c 0
 404 373 366 389 362 391 c 1
 266 489 l 1
 264 493 254 514 250 518 c 1
 248 522 223 559 221 563 c 0
 217 571 196 629 190 647 c 0
 190 649 184 680 182 684 c 0
 180 692 170 715 168 715 c 2
 100 715 l 2
 98 715 94 709 92 707 c 0
 90 703 86 686 86 684 c 0
 86 678 92 631 92 625 c 0
 94 609 92 475 92 459 c 1
 94 447 98 395 100 383 c 0
 104 363 131 352 145 346 c 1
145 1544 m 0
 141 1544 141 1536 145 1536 c 0
 149 1536 149 1544 145 1544 c 0
EndSplineSet
EndChar

StartChar: _118
Encoding: 65543 -1 24
Width: 1431
VWidth: 0
Flags: W
LayerCount: 2
Fore
SplineSet
694 41 m 0
 690 41 690 35 694 35 c 0
 698 35 698 41 694 41 c 0
213 518 m 1
 221 510 258 473 266 467 c 1
 289 444 319 413 348 397 c 1
 387 377 498 319 506 315 c 1
 518 311 570 295 582 293 c 1
 596 293 666 291 680 291 c 0
 705 291 772 293 776 293 c 0
 801 295 911 322 934 330 c 0
 938 332 948 338 950 338 c 1
 952 340 971 344 973 346 c 0
 991 356 1076 404 1094 414 c 1
 1094 414 1100 420 1100 422 c 1
 1106 426 1155 461 1161 467 c 1
 1165 469 1194 506 1198 512 c 0
 1288 614 1344 744 1364 879 c 1
 1364 989 l 1
 1364 1098 l 1
 1362 1116 1345 1201 1341 1217 c 1
 1329 1235 1325 1260 1319 1278 c 1
 1307 1307 1263 1403 1257 1413 c 0
 1255 1417 1231 1454 1221 1466 c 1
 1219 1466 1206 1479 1206 1481 c 1
 1118 1583 1010 1655 883 1698 c 0
 842 1712 750 1714 711 1714 c 0
 523 1714 359 1618 236 1481 c 1
 232 1475 203 1425 199 1421 c 0
 197 1419 184 1407 182 1405 c 0
 180 1401 170 1386 168 1382 c 0
 100 1247 55 1113 55 961 c 2
 55 946 l 2
 55 944 63 913 63 909 c 2
 63 872 l 1
 65 860 76 807 78 797 c 1
 86 772 111 692 115 684 c 0
 129 657 197 543 213 518 c 1
279 1040 m 0
 279 1302 375 1632 686 1632 c 0
 729 1632 766 1632 807 1616 c 0
 813 1614 862 1581 866 1579 c 0
 981 1509 1065 1399 1100 1270 c 0
 1110 1233 1141 1059 1145 1022 c 1
 1147 1018 1147 962 1147 944 c 0
 1147 932 1147 876 1145 864 c 1
 1143 860 1139 840 1139 834 c 1
 1125 756 1114 674 1077 602 c 1
 999 444 885 375 709 375 c 0
 566 375 477 456 401 571 c 1
 307 710 279 874 279 1040 c 0
EndSplineSet
EndChar

StartChar: _119
Encoding: 65544 -1 25
Width: 1259
VWidth: 0
Flags: W
LayerCount: 2
Fore
SplineSet
100 307 m 1
 131 309 266 309 297 307 c 1
 328 307 573 301 604 301 c 0
 618 301 682 305 694 307 c 1
 694 375 l 2
 694 377 690 381 688 383 c 0
 665 397 652 391 621 397 c 1
 521 420 502 486 500 580 c 0
 500 586 494 854 492 963 c 1
 492 971 l 2
 492 983 492 983 500 999 c 1
 594 999 l 1
 688 999 l 1
 741 997 825 1001 868 954 c 1
 884 934 918 899 928 872 c 0
 946 827 934 774 991 774 c 0
 1003 774 1036 777 1032 797 c 1
 1032 1036 l 1
 1034 1050 1040 1159 1040 1171 c 0
 1040 1181 1036 1241 1032 1255 c 1
 1032 1259 1026 1270 1026 1270 c 1
 958 1270 l 2
 956 1270 950 1266 950 1264 c 0
 948 1258 938 1214 936 1210 c 0
 911 1144 842 1081 770 1081 c 2
 500 1081 l 1
 500 1081 494 1108 492 1120 c 1
 492 1126 l 1
 492 1135 l 1
 494 1145 498 1186 500 1194 c 1
 500 1602 l 1
 897 1602 l 1
 995 1571 l 2
 999 1569 1032 1538 1040 1526 c 1
 1046 1520 1084 1460 1094 1444 c 1
 1110 1413 1114 1382 1153 1382 c 0
 1167 1382 1198 1382 1198 1405 c 2
 1198 1468 l 1
 1198 1534 l 2
 1198 1550 1192 1637 1190 1653 c 1
 1186 1669 1177 1677 1161 1683 c 1
 621 1683 l 2
 584 1683 289 1690 252 1692 c 1
 223 1692 l 1
 199 1692 l 1
 183 1690 108 1685 94 1683 c 1
 84 1673 86 1659 86 1645 c 0
 86 1584 156 1614 199 1585 c 0
 242 1556 275 1534 281 1481 c 1
 285 1465 289 1405 289 1399 c 2
 289 631 l 2
 289 541 290 430 184 397 c 1
 178 397 129 391 123 391 c 1
 90 385 92 363 86 330 c 1
 86 326 l 1
 86 324 l 1
 88 322 98 309 100 307 c 1
748 1477 m 0
 744 1477 744 1468 748 1468 c 0
 752 1468 752 1477 748 1477 c 0
EndSplineSet
EndChar

StartChar: _120
Encoding: 65545 -1 26
Width: 2787
VWidth: 0
Flags: W
LayerCount: 2
Fore
SplineSet
1761 340 m 0
 1761 328 1762 297 1778 293 c 0
 1784 291 1817 287 1823 285 c 1
 1833 285 1917 287 1927 285 c 1
 1956 285 2191 279 2220 279 c 2
 2290 279 l 1
 2333 279 l 1
 2349 293 l 1
 2349 346 l 1
 2333 360 l 1
 2288 368 2241 371 2206 406 c 0
 2194 418 2177 439 2175 459 c 0
 2175 463 2177 500 2175 504 c 1
 2175 514 2169 592 2169 602 c 0
 2169 606 2167 684 2167 713 c 0
 2167 740 2169 815 2169 819 c 0
 2169 854 2171 882 2191 909 c 0
 2197 917 2224 955 2228 963 c 1
 2242 983 2253 1007 2265 1030 c 1
 2310 1102 2421 1274 2423 1278 c 1
 2431 1286 l 1
 2507 1413 l 1
 2517 1419 2525 1444 2529 1450 c 0
 2531 1454 2558 1487 2566 1495 c 0
 2572 1501 2587 1518 2589 1518 c 1
 2595 1522 2659 1555 2679 1563 c 1
 2691 1569 2718 1573 2718 1593 c 0
 2718 1607 2715 1645 2695 1653 c 1
 2490 1653 l 2
 2486 1653 2451 1661 2445 1661 c 2
 2345 1661 l 1
 2243 1661 l 1
 2227 1643 2226 1628 2226 1608 c 0
 2226 1553 2277 1573 2318 1563 c 1
 2345 1559 2358 1529 2372 1511 c 1
 2382 1495 2386 1482 2386 1464 c 2
 2386 1450 l 1
 2318 1300 l 1
 2130 999 l 1
 2124 999 l 2
 2116 999 2113 1000 2107 1008 c 1
 2101 1018 2081 1049 2079 1053 c 2
 1868 1444 l 1
 1856 1464 1851 1486 1851 1511 c 0
 1851 1558 1898 1563 1935 1571 c 0
 1937 1571 1956 1577 1958 1579 c 1
 2001 1585 2003 1575 2003 1626 c 2
 2003 1653 l 1
 1999 1665 1970 1669 1966 1669 c 2
 1446 1669 l 2
 1434 1669 1432 1640 1432 1630 c 0
 1432 1618 1432 1591 1446 1585 c 1
 1503 1577 1544 1569 1575 1518 c 1
 1593 1485 1684 1327 1702 1292 c 1
 1710 1286 l 1
 1868 1014 l 1
 1872 1010 1888 989 1890 985 c 0
 1906 956 1948 872 1950 864 c 0
 1952 860 1956 787 1958 760 c 1
 1958 711 l 1
 1958 662 l 1
 1956 627 1952 522 1950 512 c 1
 1948 481 1927 422 1898 406 c 0
 1861 386 1819 375 1778 369 c 1
 1762 363 1761 352 1761 340 c 0
418 301 m 1
 490 299 831 295 905 293 c 1
 946 293 l 1
 989 293 l 1
 1001 301 1004 322 1004 334 c 0
 1004 385 938 379 905 391 c 0
 872 403 833 442 815 467 c 1
 819 526 807 586 807 645 c 2
 807 670 l 1
 809 684 815 805 815 819 c 2
 815 1436 l 1
 825 1485 825 1544 823 1593 c 1
 829 1602 l 1
 895 1602 l 2
 1045 1602 1145 1604 1229 1473 c 0
 1235 1463 1282 1378 1288 1368 c 1
 1296 1360 l 1
 1323 1360 l 2
 1335 1360 1354 1358 1364 1368 c 1
 1364 1401 l 1
 1364 1436 l 1
 1362 1452 1343 1577 1341 1593 c 0
 1339 1609 1347 1653 1327 1661 c 1
 1298 1663 1174 1667 1147 1669 c 1
 762 1669 l 1
 752 1671 698 1675 688 1675 c 1
 676 1677 585 1675 575 1675 c 0
 542 1677 277 1683 244 1683 c 2
 184 1683 l 1
 123 1683 l 1
 117 1679 111 1669 109 1661 c 0
 105 1632 88 1502 86 1473 c 1
 86 1432 l 1
 86 1391 l 1
 96 1377 115 1374 129 1374 c 0
 168 1374 175 1425 193 1450 c 1
 242 1528 295 1598 395 1602 c 1
 481 1602 l 2
 518 1602 573 1605 612 1593 c 1
 612 1423 l 1
 612 1255 l 2
 612 1230 606 1039 604 1014 c 1
 602 830 606 655 590 473 c 1
 588 471 577 455 575 451 c 0
 573 449 561 424 559 422 c 0
 526 387 457 381 418 375 c 1
 400 369 401 338 401 322 c 2
 401 307 l 1
 403 305 414 299 418 301 c 1
EndSplineSet
EndChar

StartChar: _121
Encoding: 65546 -1 27
Width: 1263
VWidth: 0
Flags: W
LayerCount: 2
Fore
SplineSet
102 293 m 1
 266 297 430 285 594 285 c 2
 688 285 l 1
 704 297 705 316 705 332 c 0
 705 346 706 363 688 369 c 1
 604 371 522 397 502 489 c 1
 500 522 494 680 494 715 c 2
 494 860 l 1
 494 999 l 2
 494 1013 502 1123 502 1135 c 2
 502 1540 l 2
 502 1544 506 1567 508 1571 c 1
 516 1579 l 1
 551 1587 579 1585 614 1585 c 0
 796 1585 961 1495 961 1292 c 0
 961 1249 960 1223 944 1180 c 0
 903 1067 830 1018 711 1008 c 0
 705 1008 657 999 651 999 c 0
 647 999 625 1001 621 999 c 0
 613 995 590 972 590 958 c 0
 590 927 614 909 643 909 c 2
 733 909 l 2
 786 909 815 904 862 918 c 1
 862 918 875 924 877 924 c 0
 932 940 989 952 1034 991 c 0
 1050 1005 1125 1076 1139 1090 c 1
 1182 1156 1194 1216 1194 1294 c 0
 1194 1501 1036 1641 831 1661 c 1
 616 1659 403 1669 190 1669 c 2
 133 1669 l 1
 111 1661 l 1
 111 1593 l 2
 111 1581 184 1585 207 1571 c 1
 213 1569 227 1556 229 1556 c 1
 282 1511 291 1471 291 1403 c 2
 291 1360 l 1
 289 1305 283 845 283 788 c 2
 283 594 l 2
 283 576 272 485 268 467 c 1
 243 410 198 395 139 383 c 0
 119 379 100 389 88 369 c 1
 88 365 86 346 86 342 c 0
 86 324 86 305 102 293 c 1
215 1026 m 0
 211 1026 211 1018 215 1018 c 0
 219 1018 219 1026 215 1026 c 0
EndSplineSet
EndChar

StartChar: _122
Encoding: 65547 -1 28
Width: 1327
VWidth: 0
Flags: W
LayerCount: 2
Fore
SplineSet
106 293 m 1
 588 293 l 2
 600 293 709 287 723 285 c 1
 743 285 920 287 940 285 c 1
 971 285 1112 281 1143 279 c 1
 1157 281 1163 289 1165 301 c 2
 1225 541 l 1
 1223 555 1233 570 1233 584 c 2
 1233 586 l 1
 1231 594 1219 616 1219 616 c 1
 1217 616 1202 618 1196 618 c 0
 1190 618 1174 616 1174 616 c 1
 1172 614 1149 594 1143 586 c 0
 1137 578 1083 504 1075 496 c 1
 1063 480 1024 446 1008 436 c 0
 985 422 917 385 909 383 c 0
 905 381 822 371 791 369 c 1
 768 369 l 2
 709 369 647 379 588 375 c 1
 535 428 l 2
 533 430 528 442 526 444 c 0
 524 446 498 477 498 481 c 1
 496 487 498 543 498 549 c 1
 496 553 489 596 489 602 c 0
 489 604 494 614 498 616 c 1
 496 659 496 858 498 901 c 0
 498 911 502 953 504 963 c 0
 506 975 528 971 530 971 c 0
 536 971 555 969 557 969 c 0
 571 969 693 963 707 963 c 0
 787 959 885 969 918 879 c 0
 924 865 950 790 954 774 c 1
 963 766 l 1
 1022 766 l 1
 1038 782 l 1
 1036 823 1036 1018 1038 1059 c 0
 1038 1071 1044 1161 1044 1171 c 0
 1044 1194 1043 1233 1012 1233 c 0
 998 1233 987 1231 971 1225 c 1
 957 1176 936 1095 881 1075 c 1
 820 1050 760 1044 692 1044 c 2
 670 1044 l 1
 623 1046 512 1053 512 1053 c 1
 504 1059 l 1
 504 1116 l 2
 504 1268 514 1419 512 1571 c 1
 569 1581 625 1579 684 1579 c 2
 782 1579 l 1
 792 1577 856 1573 872 1571 c 0
 915 1567 946 1545 977 1518 c 1
 981 1516 991 1505 993 1503 c 2
 1067 1376 l 2
 1075 1364 1090 1360 1102 1360 c 2
 1106 1360 l 1
 1116 1362 1143 1368 1143 1368 c 1
 1151 1372 1151 1391 1151 1399 c 2
 1151 1413 l 1
 1149 1446 1145 1597 1143 1630 c 1
 1135 1640 1124 1651 1112 1653 c 1
 1079 1655 922 1661 887 1661 c 2
 500 1661 l 1
 113 1661 l 1
 103 1651 104 1626 104 1614 c 0
 104 1610 106 1595 106 1593 c 1
 113 1585 l 1
 129 1583 197 1567 211 1563 c 0
 213 1563 223 1556 225 1556 c 1
 252 1531 281 1510 287 1473 c 1
 289 1438 293 1276 293 1241 c 0
 293 1235 295 1166 295 1141 c 0
 295 1114 293 1048 293 1044 c 0
 293 1030 287 915 287 901 c 0
 285 842 285 563 287 504 c 1
 287 467 258 426 242 397 c 1
 230 381 215 377 197 375 c 1
 183 375 118 369 106 369 c 1
 88 365 90 344 90 330 c 0
 90 318 88 297 106 293 c 1
EndSplineSet
EndChar

StartChar: _128
Encoding: 65548 -1 29
Width: 1234
VWidth: 0
Flags: W
LayerCount: 2
Fore
SplineSet
195 281 m 1
 224 265 354 200 385 190 c 0
 408 182 520 158 547 154 c 0
 551 154 611 152 631 152 c 0
 801 152 957 232 1055 371 c 0
 1069 391 1114 461 1118 471 c 1
 1120 479 1147 561 1153 588 c 1
 1169 645 1163 703 1163 762 c 2
 1163 858 l 1
 1161 872 1143 949 1135 967 c 1
 1102 1059 1041 1151 965 1212 c 1
 959 1214 915 1235 909 1239 c 0
 889 1249 871 1264 846 1266 c 1
 838 1268 764 1274 756 1276 c 1
 721 1276 l 2
 672 1276 637 1253 594 1239 c 1
 575 1239 l 2
 573 1239 559 1233 557 1229 c 1
 545 1223 450 1155 438 1149 c 1
 432 1143 426 1139 416 1139 c 0
 410 1139 407 1141 403 1149 c 1
 403 1184 l 2
 403 1258 412 1329 412 1403 c 0
 412 1426 403 1445 403 1468 c 2
 403 1475 l 2
 403 1479 412 1522 412 1528 c 2
 412 1647 l 2
 412 1663 420 1809 422 1827 c 1
 422 1837 l 2
 422 1857 391 1855 379 1855 c 0
 373 1855 358 1853 358 1853 c 1
 352 1851 309 1829 303 1827 c 0
 231 1798 152 1782 78 1755 c 1
 68 1743 68 1730 68 1716 c 0
 68 1665 182 1646 213 1599 c 1
 213 1407 l 2
 213 1202 211 1000 205 797 c 1
 199 633 186 471 186 309 c 0
 186 297 185 291 195 281 c 1
547 1094 m 1
 559 1094 613 1096 625 1096 c 0
 662 1096 709 1097 748 1085 c 1
 916 1024 983 817 983 653 c 0
 983 598 977 546 965 487 c 1
 955 444 920 393 891 362 c 1
 825 284 774 252 672 252 c 0
 549 252 403 332 403 471 c 2
 403 1004 l 2
 403 1043 516 1088 547 1094 c 1
385 299 m 0
 383 293 377 293 377 299 c 1
 375 303 387 303 385 299 c 0
303 461 m 1
 340 461 l 1
 336 449 309 449 303 449 c 1
 303 461 l 1
1026 981 m 0
 1032 981 1032 973 1026 973 c 0
 1022 973 1022 981 1026 981 c 0
692 1153 m 0
 696 1153 696 1143 692 1143 c 0
 688 1143 688 1153 692 1153 c 0
377 1217 m 0
 381 1217 381 1206 377 1206 c 0
 371 1206 371 1217 377 1217 c 0
322 1370 m 0
 326 1370 326 1360 322 1360 c 0
 318 1360 318 1370 322 1370 c 0
313 1677 m 0
 317 1677 317 1669 313 1669 c 0
 307 1669 307 1677 313 1677 c 0
EndSplineSet
EndChar

StartChar: _129
Encoding: 65549 -1 30
Width: 1843
VWidth: 0
Flags: W
LayerCount: 2
Fore
SplineSet
106 1343 m 1
 116 1337 166 1311 174 1305 c 0
 176 1303 191 1282 195 1274 c 0
 205 1256 231 1202 233 1196 c 2
 555 244 l 2
 555 242 561 233 563 233 c 0
 573 231 606 223 612 223 c 0
 637 223 672 237 680 262 c 1
 924 895 l 1
 944 915 l 1
 991 843 983 744 1030 672 c 1
 1167 244 l 1
 1173 221 1211 223 1225 223 c 0
 1270 223 1303 242 1303 293 c 1
 1468 760 l 1
 1523 848 1534 955 1567 1051 c 1
 1575 1078 1622 1200 1634 1227 c 1
 1646 1245 1665 1268 1683 1284 c 0
 1720 1315 1761 1321 1761 1376 c 0
 1761 1409 1747 1421 1712 1421 c 2
 1391 1421 l 2
 1379 1421 1380 1378 1380 1376 c 0
 1380 1300 1442 1333 1489 1294 c 1
 1493 1288 1507 1268 1507 1266 c 2
 1507 1157 l 1
 1411 856 l 1
 1409 854 1401 840 1401 838 c 0
 1397 826 1366 731 1362 721 c 0
 1354 701 1313 612 1303 594 c 1
 1301 586 1294 584 1288 584 c 2
 1284 584 l 1
 1264 623 l 1
 1079 1217 l 1
 1079 1231 l 2
 1079 1268 1114 1303 1147 1313 c 0
 1190 1327 1235 1321 1235 1382 c 0
 1235 1396 1233 1405 1225 1421 c 1
 1155 1421 828 1430 758 1430 c 2
 729 1430 l 2
 727 1430 690 1433 690 1421 c 2
 690 1343 l 2
 690 1341 705 1335 711 1333 c 0
 717 1331 772 1317 778 1313 c 1
 784 1311 811 1282 817 1274 c 0
 821 1268 848 1212 856 1196 c 0
 862 1182 889 1106 895 1090 c 1
 887 1076 881 1056 885 1040 c 1
 827 877 l 1
 817 866 l 1
 807 837 751 709 739 682 c 0
 737 678 721 655 719 651 c 0
 709 635 701 573 674 573 c 2
 672 573 l 1
 438 1245 l 1
 436 1247 451 1276 457 1284 c 0
 461 1290 481 1311 485 1313 c 0
 491 1317 547 1339 555 1343 c 0
 565 1347 565 1352 565 1362 c 0
 565 1405 553 1430 506 1430 c 2
 127 1430 l 1
 106 1411 l 1
 106 1343 l 1
EndSplineSet
EndChar

StartChar: _130
Encoding: 65550 -1 31
Width: 1546
VWidth: 0
Flags: W
LayerCount: 2
Fore
SplineSet
80 319 m 0
 80 296 75 260 106 258 c 1
 114 256 187 258 195 258 c 0
 234 256 541 250 578 248 c 1
 617 248 930 250 969 248 c 1
 989 248 1154 240 1174 240 c 2
 1292 240 l 1
 1368 240 l 1
 1376 248 l 2
 1378 250 1397 311 1405 338 c 1
 1411 367 1415 399 1421 426 c 0
 1435 483 1458 537 1458 596 c 0
 1458 623 1459 631 1432 631 c 0
 1412 631 1390 630 1376 612 c 0
 1370 604 1321 532 1315 524 c 0
 1284 487 1246 471 1217 436 c 1
 1201 426 1112 383 1094 373 c 1
 1090 373 1071 367 1067 365 c 0
 1059 363 995 348 987 346 c 0
 985 346 971 338 969 338 c 0
 967 338 944 346 942 346 c 0
 821 354 731 342 612 383 c 1
 551 451 567 567 567 649 c 0
 567 966 576 1282 586 1599 c 1
 590 1683 623 1755 711 1778 c 0
 713 1778 735 1786 737 1786 c 0
 786 1790 854 1763 854 1829 c 0
 854 1860 846 1882 817 1892 c 1
 594 1890 375 1903 152 1903 c 0
 113 1903 98 1892 98 1853 c 0
 98 1820 98 1802 133 1794 c 1
 141 1794 197 1788 205 1786 c 0
 281 1774 309 1715 319 1645 c 1
 319 1417 l 1
 319 1190 l 2
 319 1124 311 582 311 516 c 0
 311 471 277 445 250 410 c 0
 236 392 202 379 186 373 c 1
 166 367 106 372 88 356 c 1
 82 348 80 331 80 319 c 0
EndSplineSet
EndChar

StartChar: _131
Encoding: 65551 -1 32
Width: 1609
VWidth: 0
Flags: W
LayerCount: 2
Fore
SplineSet
463 279 m 0
 598 205 751 170 907 170 c 0
 1100 170 1297 188 1475 268 c 1
 1512 309 1497 340 1501 395 c 0
 1503 411 1518 547 1520 565 c 1
 1520 600 l 1
 1520 637 l 1
 1512 647 1497 655 1485 655 c 0
 1426 655 1423 600 1403 555 c 1
 1393 530 1370 490 1350 467 c 1
 1270 381 1190 308 1071 279 c 1
 1069 277 1055 279 1053 279 c 1
 1051 277 1038 270 1036 268 c 1
 950 268 l 1
 866 268 l 2
 862 268 837 275 829 279 c 1
 686 326 604 371 516 494 c 0
 489 531 426 625 426 627 c 2
 426 637 l 1
 362 842 l 1
 364 846 364 858 362 860 c 1
 362 868 354 926 354 932 c 2
 354 1057 l 1
 354 1184 l 1
 356 1219 366 1255 362 1290 c 1
 368 1317 406 1435 418 1460 c 1
 424 1478 475 1561 489 1577 c 0
 495 1585 571 1661 596 1686 c 0
 604 1694 637 1718 641 1720 c 0
 664 1732 746 1772 758 1776 c 0
 813 1790 881 1794 938 1794 c 0
 1176 1794 1331 1626 1411 1415 c 1
 1415 1411 1434 1399 1440 1399 c 0
 1456 1397 1493 1402 1501 1425 c 1
 1501 1431 1503 1458 1503 1466 c 0
 1503 1474 1501 1503 1501 1505 c 0
 1499 1521 1477 1643 1475 1659 c 0
 1475 1665 1477 1714 1475 1720 c 0
 1473 1732 1460 1770 1456 1776 c 1
 1456 1778 1429 1790 1421 1792 c 0
 1392 1802 1262 1847 1233 1855 c 1
 1206 1855 l 1
 1196 1857 1116 1872 1108 1874 c 0
 1061 1880 1028 1882 987 1882 c 0
 932 1882 876 1870 821 1874 c 1
 794 1868 676 1835 649 1829 c 1
 608 1817 572 1794 535 1776 c 1
 515 1764 489 1759 471 1747 c 1
 408 1710 338 1642 291 1595 c 1
 291 1591 285 1579 283 1577 c 0
 279 1571 233 1522 229 1516 c 0
 219 1502 188 1452 184 1444 c 0
 178 1432 143 1337 139 1327 c 0
 119 1278 86 1177 86 1128 c 2
 86 842 l 2
 86 836 98 768 104 743 c 0
 104 741 111 727 113 725 c 0
 115 721 129 678 131 672 c 0
 145 641 222 496 238 467 c 1
 254 447 336 364 354 350 c 1
 362 342 436 301 444 295 c 0
 446 293 459 281 463 279 c 0
1395 381 m 0
 1399 381 1399 373 1395 373 c 0
 1391 373 1391 381 1395 381 c 0
EndSplineSet
EndChar

StartChar: _132
Encoding: 65552 -1 33
Width: 1067
VWidth: 0
Flags: W
LayerCount: 2
Fore
SplineSet
322 156 m 0
 320 156 320 147 322 147 c 0
 326 147 326 156 322 156 c 0
602 193 m 0
 598 193 598 186 602 186 c 0
 606 186 606 193 602 193 c 0
131 371 m 0
 131 273 284 223 360 205 c 0
 403 195 432 197 477 197 c 0
 583 197 633 203 731 242 c 0
 735 244 772 256 776 258 c 0
 874 309 952 385 952 500 c 0
 952 594 920 608 852 659 c 0
 850 661 840 672 838 674 c 1
 822 678 747 694 731 696 c 1
 723 696 l 2
 719 696 676 705 670 705 c 2
 543 705 l 2
 520 705 414 711 391 713 c 1
 375 721 338 748 338 768 c 0
 338 807 391 848 428 848 c 0
 457 848 477 840 512 840 c 0
 621 840 766 920 815 1022 c 1
 833 1063 838 1114 838 1159 c 0
 838 1196 827 1231 815 1264 c 1
 823 1278 840 1280 854 1280 c 0
 897 1280 938 1272 979 1272 c 2
 989 1272 l 1
 991 1274 995 1284 995 1286 c 2
 995 1386 l 1
 995 1386 987 1409 981 1409 c 2
 815 1409 l 1
 526 1460 l 1
 522 1460 l 1
 520 1460 l 1
 491 1458 418 1446 414 1446 c 0
 365 1436 330 1411 293 1378 c 0
 281 1368 250 1337 246 1333 c 1
 236 1315 192 1230 186 1210 c 1
 186 1202 184 1159 184 1151 c 0
 184 1112 183 1094 195 1061 c 1
 201 1038 223 985 223 985 c 1
 322 887 l 1
 324 883 l 1
 324 860 297 852 285 840 c 1
 271 828 227 784 223 780 c 1
 217 770 190 723 186 713 c 0
 186 711 184 698 184 694 c 0
 184 665 191 645 201 612 c 1
 221 608 222 596 240 584 c 0
 263 568 271 576 285 553 c 1
 234 490 131 465 131 371 c 0
276 397 m 0
 276 450 332 499 369 530 c 0
 371 532 381 537 383 537 c 2
 670 537 l 2
 676 537 707 532 717 530 c 0
 725 528 756 518 762 514 c 0
 766 512 782 502 784 500 c 0
 790 492 807 459 807 455 c 0
 807 445 797 395 793 387 c 0
 791 383 757 352 745 340 c 1
 745 340 735 334 731 334 c 1
 663 307 596 301 522 301 c 0
 504 301 455 303 451 303 c 0
 445 303 361 326 330 334 c 0
 303 340 276 368 276 397 c 0
254 557 m 0
 250 557 250 549 254 549 c 0
 258 549 258 557 254 557 c 0
57 584 m 0
 53 586 53 565 57 567 c 0
 61 569 61 582 57 584 c 0
360 1120 m 0
 360 1136 365 1230 369 1257 c 1
 375 1331 454 1372 520 1372 c 0
 559 1372 583 1356 610 1325 c 0
 665 1262 664 1184 664 1102 c 2
 664 1044 l 1
 662 1034 645 987 641 977 c 0
 639 973 612 946 602 938 c 0
 582 922 543 924 518 924 c 2
 481 924 l 2
 479 924 469 930 467 932 c 0
 414 979 360 1044 360 1120 c 0
913 1585 m 0
 909 1585 909 1579 913 1579 c 0
 917 1579 917 1585 913 1585 c 0
EndSplineSet
EndChar

StartChar: _133
Encoding: 65553 -1 34
Width: 2361
VWidth: 0
Flags: W
LayerCount: 2
Fore
SplineSet
1552 154 m 1
 1775 158 1999 145 2224 145 c 0
 2259 145 2265 164 2265 195 c 0
 2265 218 2267 236 2247 250 c 1
 2177 252 2096 284 2073 356 c 0
 2046 440 2035 510 2023 598 c 1
 2023 616 l 1
 1976 934 l 1
 1976 944 l 1
 1972 967 1950 1134 1948 1157 c 1
 1930 1294 1908 1440 1898 1581 c 1
 1898 1638 l 2
 1898 1699 1911 1765 1966 1802 c 0
 2009 1831 2083 1794 2083 1866 c 0
 2083 1884 2073 1927 2044 1927 c 2
 1610 1927 l 1
 1591 1909 l 1
 1591 1796 1571 1677 1542 1571 c 0
 1526 1512 1472 1335 1464 1321 c 1
 1456 1300 l 1
 1196 637 l 1
 1173 713 1131 782 1108 858 c 1
 1100 891 1097 923 1079 954 c 1
 915 1475 l 1
 915 1485 l 1
 899 1526 831 1720 819 1763 c 0
 813 1786 793 1894 791 1917 c 1
 787 1925 770 1937 762 1937 c 2
 356 1937 l 1
 338 1927 l 2
 336 1927 330 1886 328 1870 c 1
 328 1860 l 2
 328 1825 446 1822 481 1763 c 1
 485 1759 498 1718 502 1706 c 1
 504 1692 512 1653 510 1649 c 1
 444 1137 l 1
 444 1128 l 1
 346 541 l 2
 346 535 332 487 328 473 c 0
 328 471 319 455 317 453 c 1
 288 373 285 362 213 309 c 0
 211 307 205 299 203 299 c 0
 195 295 125 274 117 270 c 0
 97 260 96 254 96 238 c 0
 96 215 100 199 106 174 c 1
 155 172 385 164 434 164 c 2
 563 164 l 1
 645 164 l 1
 666 182 l 1
 666 260 l 2
 666 280 620 277 608 279 c 1
 592 285 551 297 549 299 c 0
 543 303 510 336 502 346 c 0
 467 391 471 449 471 500 c 0
 471 520 471 576 473 578 c 1
 473 586 481 639 481 645 c 1
 483 651 481 699 481 705 c 0
 485 732 496 737 492 762 c 1
 549 1128 l 1
 549 1147 l 1
 608 1524 l 1
 618 1534 l 1
 780 1061 l 1
 794 1041 791 1028 801 1001 c 0
 817 954 897 731 915 684 c 1
 907 661 930 657 936 637 c 1
 1040 193 l 2
 1050 154 1091 154 1124 154 c 0
 1142 154 1159 151 1165 174 c 1
 1427 926 l 1
 1431 934 1452 975 1456 983 c 1
 1456 993 l 2
 1456 1001 1464 1028 1464 1032 c 1
 1474 1059 1551 1256 1571 1311 c 1
 1573 1313 1581 1327 1581 1329 c 0
 1589 1356 1622 1476 1628 1503 c 1
 1649 1503 l 2
 1651 1503 1663 1424 1667 1389 c 1
 1669 1381 1669 1347 1667 1339 c 1
 1745 762 l 1
 1741 717 1747 661 1763 616 c 1
 1763 395 l 2
 1763 393 1736 346 1724 328 c 1
 1716 314 1691 295 1677 289 c 0
 1638 275 1568 289 1552 250 c 0
 1546 238 1542 211 1542 193 c 0
 1542 179 1544 172 1552 154 c 1
1427 285 m 0
 1421 285 1421 274 1427 274 c 0
 1431 274 1431 285 1427 285 c 0
-96 872 m 0
 -100 872 -100 862 -96 862 c 0
 -92 862 -92 872 -96 872 c 0
EndSplineSet
EndChar

StartChar: _26
Encoding: 65554 -1 35
Width: 1501
VWidth: 0
Flags: W
LayerCount: 2
Fore
SplineSet
225 668 m 2
 225 635 225 600 217 567 c 0
 205 518 84 485 84 469 c 2
 84 408 l 2
 84 402 123 393 123 393 c 1
 127 393 l 2
 133 393 158 399 162 399 c 2
 555 399 l 2
 584 399 584 419 584 442 c 0
 584 493 573 488 526 498 c 1
 506 504 487 514 471 526 c 0
 459 534 430 559 428 561 c 1
 428 563 418 602 414 616 c 1
 412 628 408 662 408 666 c 2
 408 1128 l 1
 400 1179 399 1221 399 1272 c 0
 399 1284 399 1317 401 1319 c 2
 408 1325 l 1
 561 1325 l 2
 594 1325 590 1379 590 1399 c 0
 590 1428 576 1438 549 1438 c 2
 520 1438 l 2
 512 1438 457 1432 451 1432 c 0
 445 1432 416 1436 408 1438 c 0
 406 1438 401 1444 401 1444 c 1
 399 1458 399 1526 399 1540 c 0
 399 1657 401 1901 573 1901 c 2
 575 1901 l 1
 649 1870 652 1821 709 1782 c 0
 719 1776 758 1755 766 1753 c 1
 766 1753 780 1751 786 1751 c 0
 790 1751 807 1753 807 1753 c 1
 825 1759 872 1833 872 1853 c 0
 872 1933 791 1981 723 1999 c 1
 713 1999 667 2001 657 2001 c 0
 604 2001 569 2001 520 1985 c 0
 418 1952 293 1837 260 1739 c 0
 258 1731 237 1657 231 1634 c 0
 219 1579 236 1505 197 1458 c 1
 189 1450 176 1434 162 1432 c 1
 152 1428 102 1419 92 1417 c 1
 76 1405 78 1384 78 1368 c 2
 78 1339 l 2
 78 1335 84 1325 84 1325 c 1
 190 1325 l 2
 196 1325 213 1321 217 1311 c 1
 219 1223 223 805 225 715 c 1
 225 668 l 2
709 399 m 1
 875 401 1038 393 1206 393 c 0
 1218 393 1235 394 1241 408 c 0
 1243 412 1243 430 1243 434 c 0
 1243 504 1218 490 1165 498 c 0
 1114 506 1072 526 1047 575 c 1
 1045 591 1038 664 1038 680 c 2
 1038 907 l 1
 1038 1137 l 2
 1038 1141 1045 1155 1047 1157 c 0
 1053 1167 1081 1206 1087 1212 c 1
 1091 1218 1131 1252 1145 1262 c 1
 1157 1274 1174 1284 1194 1284 c 1
 1194 1284 1204 1278 1206 1276 c 0
 1257 1245 1265 1171 1337 1171 c 0
 1370 1171 1395 1200 1403 1227 c 0
 1407 1239 1423 1295 1425 1305 c 1
 1425 1319 l 2
 1425 1374 1368 1432 1319 1452 c 1
 1274 1452 l 2
 1233 1452 1198 1450 1165 1423 c 0
 1159 1419 1110 1370 1096 1354 c 0
 1090 1348 1071 1323 1067 1319 c 0
 1053 1299 1058 1290 1038 1276 c 1
 1032 1278 l 1
 1032 1444 l 1
 1024 1458 l 2
 1024 1460 1010 1460 1006 1460 c 0
 943 1460 878 1417 821 1397 c 1
 786 1383 733 1373 702 1348 c 0
 692 1340 688 1323 688 1311 c 2
 688 1305 l 1
 692 1299 717 1274 723 1270 c 0
 729 1266 774 1245 778 1241 c 1
 788 1237 842 1206 842 1200 c 2
 842 625 l 2
 842 547 813 508 737 498 c 0
 723 496 702 499 694 483 c 0
 686 467 688 458 688 438 c 2
 688 414 l 1
 692 408 703 401 709 399 c 1
793 1427 m 0
 791 1427 791 1419 793 1419 c 0
 797 1419 797 1427 793 1427 c 0
1214 1561 m 0
 1210 1561 1210 1554 1214 1554 c 0
 1218 1554 1218 1561 1214 1561 c 0
1108 1763 m 0
 1106 1763 1106 1757 1108 1757 c 0
 1112 1757 1112 1763 1108 1763 c 0
EndSplineSet
EndChar

StartChar: _27
Encoding: 65555 -1 36
Width: 1093
VWidth: 0
Flags: W
LayerCount: 2
Fore
SplineSet
176 561 m 1
 190 543 271 465 289 449 c 0
 293 445 353 411 373 399 c 1
 422 374 475 371 530 371 c 0
 657 371 752 412 850 492 c 0
 860 500 893 533 899 541 c 0
 903 547 942 617 948 625 c 1
 948 625 952 631 954 631 c 1
 960 645 985 715 989 729 c 0
 995 754 1016 857 1018 877 c 1
 1018 928 l 1
 1018 981 l 2
 1018 991 1008 1047 1004 1059 c 0
 1002 1065 985 1110 983 1116 c 1
 981 1118 977 1147 975 1151 c 0
 973 1159 958 1194 954 1200 c 0
 948 1212 917 1256 913 1262 c 0
 893 1287 819 1360 807 1368 c 0
 801 1372 717 1418 688 1432 c 0
 645 1452 577 1446 532 1446 c 0
 516 1446 473 1446 471 1444 c 1
 467 1444 432 1436 422 1432 c 0
 399 1424 325 1393 315 1389 c 0
 309 1387 276 1362 266 1354 c 0
 260 1348 211 1298 197 1284 c 1
 193 1278 172 1253 170 1249 c 0
 160 1226 114 1125 106 1102 c 1
 79 1036 78 951 78 883 c 0
 78 807 84 740 113 666 c 0
 129 625 164 598 176 561 c 1
281 981 m 2
 281 1087 278 1198 352 1284 c 1
 399 1341 467 1354 537 1354 c 2
 584 1354 l 1
 607 1344 622 1327 645 1319 c 1
 678 1286 729 1235 743 1186 c 2
 801 989 l 1
 797 971 805 944 807 926 c 0
 807 922 815 881 815 877 c 2
 815 784 l 2
 815 678 811 545 702 492 c 0
 665 474 625 455 584 455 c 0
 529 455 481 483 442 518 c 1
 428 532 389 571 387 575 c 0
 375 591 340 666 338 680 c 1
 281 911 l 1
 281 981 l 2
EndSplineSet
EndChar

StartChar: _28
Encoding: 65556 -1 37
Width: 1884
VWidth: 0
Flags: W
LayerCount: 2
Fore
SplineSet
84 420 m 0
 84 383 118 389 147 389 c 2
 512 389 l 2
 522 389 572 387 582 385 c 1
 586 385 l 2
 600 385 610 396 610 410 c 0
 610 426 608 451 602 463 c 1
 596 483 569 479 553 483 c 0
 512 495 471 510 457 555 c 1
 441 596 451 655 449 694 c 0
 449 710 442 834 442 848 c 0
 442 856 440 973 440 1018 c 0
 440 1043 442 1159 442 1186 c 1
 444 1213 563 1270 590 1270 c 1
 590 1260 l 1
 602 1260 590 1270 602 1276 c 0
 606 1278 631 1284 639 1284 c 2
 690 1284 l 1
 743 1284 l 1
 809 1264 828 1214 848 1157 c 1
 858 1057 856 976 856 874 c 0
 856 786 856 698 848 610 c 0
 848 600 842 565 842 561 c 1
 832 526 801 501 772 483 c 0
 768 481 758 477 758 477 c 1
 754 477 731 483 729 483 c 2
 725 483 l 2
 719 483 694 471 694 463 c 2
 694 399 l 1
 700 393 l 2
 702 391 844 387 905 385 c 1
 1038 385 l 1
 1171 385 l 1
 1175 387 1194 391 1200 393 c 0
 1210 397 1206 412 1206 420 c 0
 1206 502 1145 467 1102 512 c 1
 1063 551 1063 602 1053 651 c 1
 1053 1200 l 1
 1059 1206 l 1
 1075 1216 1124 1247 1128 1249 c 0
 1148 1257 1217 1282 1227 1284 c 1
 1270 1284 l 2
 1331 1284 1392 1271 1423 1212 c 0
 1429 1202 1450 1157 1452 1151 c 1
 1452 1122 l 2
 1452 1112 1458 1069 1458 1059 c 0
 1458 1030 1460 899 1460 870 c 0
 1460 819 1458 688 1458 680 c 0
 1458 670 1454 600 1452 582 c 1
 1450 574 1446 549 1444 547 c 0
 1442 543 1413 514 1403 506 c 0
 1401 504 1391 498 1389 498 c 0
 1379 496 1329 485 1319 483 c 1
 1303 475 1296 454 1296 438 c 0
 1296 422 1299 393 1319 385 c 1
 1360 385 l 2
 1469 385 1575 393 1681 393 c 2
 1704 393 l 2
 1708 393 1749 385 1753 385 c 0
 1757 385 1782 391 1788 393 c 0
 1804 399 1802 428 1802 438 c 0
 1802 491 1790 478 1747 492 c 1
 1677 512 1657 563 1655 631 c 0
 1655 645 1649 764 1649 778 c 0
 1649 786 1655 848 1655 856 c 2
 1655 1020 l 1
 1655 1186 l 1
 1649 1338 1514 1452 1364 1452 c 0
 1307 1452 1243 1448 1192 1417 c 0
 1135 1382 1077 1339 1030 1290 c 1
 1028 1290 1012 1294 1010 1298 c 0
 1008 1300 997 1323 995 1325 c 0
 987 1337 958 1378 954 1382 c 0
 923 1413 870 1442 827 1452 c 1
 764 1452 l 2
 666 1452 621 1429 541 1374 c 1
 533 1370 471 1323 463 1319 c 0
 461 1317 451 1313 449 1311 c 1
 442 1313 l 1
 442 1432 l 2
 442 1455 411 1452 395 1452 c 0
 377 1452 354 1438 336 1432 c 1
 324 1426 229 1380 217 1374 c 0
 178 1358 137 1349 98 1333 c 0
 88 1329 84 1313 84 1305 c 0
 84 1285 146 1257 162 1249 c 0
 168 1245 232 1210 238 1206 c 1
 240 1206 246 1200 246 1200 c 1
 252 1143 l 1
 252 659 l 2
 252 653 248 604 246 590 c 0
 236 524 184 497 127 483 c 0
 115 481 106 489 98 477 c 1
 98 475 92 461 90 457 c 1
 88 447 84 424 84 420 c 0
975 799 m 1
 979 799 979 795 975 793 c 0
 971 791 971 801 975 799 c 1
1767 1094 m 1
 1769 1098 1743 1098 1747 1094 c 1
 1749 1090 1763 1090 1767 1094 c 1
EndSplineSet
EndChar

StartChar: _29
Encoding: 65557 -1 38
Width: 897
VWidth: 0
Flags: W
LayerCount: 2
Fore
SplineSet
29 92 m 0
 29 39 98 18 141 6 c 1
 215 6 l 2
 272 6 342 2 393 35 c 0
 424 55 567 148 596 168 c 1
 647 215 704 273 737 336 c 1
 747 359 793 460 801 483 c 1
 801 512 l 2
 801 516 807 549 807 555 c 2
 807 625 l 2
 807 734 787 801 717 885 c 1
 608 1010 480 1069 330 1143 c 0
 316 1149 315 1155 315 1167 c 0
 315 1179 318 1186 324 1200 c 0
 336 1227 371 1296 373 1298 c 2
 379 1305 l 1
 406 1305 l 2
 496 1305 588 1290 680 1290 c 0
 713 1290 768 1288 786 1325 c 2
 856 1466 l 1
 856 1466 858 1481 858 1485 c 0
 858 1522 846 1559 803 1559 c 0
 756 1559 747 1503 702 1487 c 1
 639 1487 l 2
 573 1487 509 1501 446 1501 c 0
 411 1501 378 1506 358 1473 c 0
 356 1471 352 1454 352 1452 c 1
 348 1446 328 1415 324 1409 c 2
 197 1157 l 1
 193 1155 178 1141 176 1137 c 0
 174 1135 170 1110 168 1108 c 1
 162 1092 127 1011 121 995 c 1
 119 993 l 1
 119 981 139 971 147 969 c 0
 159 965 256 930 266 926 c 1
 270 926 287 913 289 911 c 0
 293 909 326 899 330 897 c 1
 334 897 354 887 358 885 c 0
 360 883 377 870 379 870 c 0
 383 868 406 864 408 862 c 1
 414 860 449 840 457 836 c 1
 574 758 662 641 662 496 c 0
 662 484 659 451 659 449 c 0
 659 447 653 430 653 428 c 2
 653 408 l 1
 645 392 606 317 596 301 c 0
 576 266 524 209 485 197 c 1
 444 183 391 174 352 168 c 1
 340 168 l 2
 317 168 291 186 266 188 c 1
 260 190 211 188 205 188 c 1
 199 190 153 203 147 203 c 2
 147 203 135 205 131 205 c 0
 119 205 108 205 98 197 c 0
 69 170 29 135 29 92 c 0
520 1919 m 0
 516 1919 516 1911 520 1911 c 0
 522 1911 522 1919 520 1919 c 0
EndSplineSet
EndChar

StartChar: _30
Encoding: 65558 -1 39
Width: 679
VWidth: 0
Flags: W
LayerCount: 2
Fore
SplineSet
197 649 m 1
 197 532 l 1
 225 442 l 2
 225 440 256 409 266 399 c 1
 274 393 307 375 315 373 c 0
 348 365 383 365 416 365 c 0
 473 365 559 375 596 420 c 1
 598 426 598 445 598 449 c 0
 598 484 602 494 561 498 c 1
 553 500 479 504 471 506 c 0
 467 506 453 510 451 512 c 0
 439 518 410 539 408 541 c 0
 406 543 395 578 393 590 c 0
 391 600 387 639 387 645 c 2
 387 1235 l 1
 393 1305 l 1
 575 1305 l 2
 598 1305 598 1336 598 1350 c 0
 598 1368 600 1399 575 1403 c 0
 565 1405 516 1409 506 1409 c 1
 490 1411 409 1411 393 1409 c 1
 387 1417 l 1
 387 1417 385 1436 385 1442 c 0
 385 1483 393 1524 393 1565 c 0
 393 1573 391 1599 379 1599 c 2
 324 1599 l 1
 310 1581 235 1497 217 1481 c 1
 213 1475 174 1440 162 1432 c 1
 158 1428 117 1399 113 1397 c 1
 105 1389 80 1364 78 1360 c 1
 78 1360 76 1347 76 1341 c 0
 76 1337 78 1321 78 1319 c 0
 78 1315 84 1309 84 1309 c 1
 182 1309 l 1
 197 1290 l 1
 197 1290 203 1221 205 1192 c 1
 205 1180 l 1
 205 1163 l 1
 203 1145 197 981 197 961 c 0
 197 955 205 897 205 891 c 0
 205 885 197 827 197 821 c 2
 197 649 l 1
EndSplineSet
EndChar

StartChar: _31
Encoding: 65559 -1 40
Width: 1101
VWidth: 0
Flags: W
LayerCount: 2
Fore
SplineSet
78 885 m 0
 78 742 99 630 197 526 c 1
 217 503 283 440 289 434 c 0
 291 432 347 403 365 393 c 1
 375 389 408 375 414 373 c 0
 451 361 502 365 535 365 c 0
 756 365 907 481 983 680 c 0
 985 686 1002 744 1004 750 c 0
 1004 752 1010 762 1010 764 c 0
 1014 787 1022 888 1024 911 c 1
 1024 920 l 1
 1024 926 l 1
 1012 1043 993 1172 913 1262 c 0
 827 1358 711 1438 580 1438 c 0
 242 1438 78 1211 78 885 c 0
365 582 m 1
 363 592 348 641 344 651 c 0
 342 657 326 696 324 700 c 0
 322 708 311 744 309 750 c 0
 291 834 274 913 274 999 c 0
 274 1101 281 1174 338 1262 c 1
 338 1266 354 1280 358 1284 c 0
 409 1325 452 1348 520 1348 c 0
 555 1348 573 1343 604 1333 c 1
 610 1333 l 1
 647 1310 682 1282 709 1249 c 1
 719 1231 758 1146 766 1128 c 0
 768 1124 782 1064 786 1044 c 0
 806 950 821 850 821 750 c 0
 821 611 764 446 600 446 c 0
 539 446 485 465 442 506 c 1
 430 516 377 570 365 582 c 1
EndSplineSet
EndChar

StartChar: _32
Encoding: 65560 -1 41
Width: 1083
VWidth: 0
Flags: W
LayerCount: 2
Fore
SplineSet
70 459 m 0
 70 451 70 416 84 414 c 1
 197 408 l 1
 883 408 l 2
 897 408 901 418 905 428 c 0
 919 469 994 659 1010 700 c 1
 1010 709 l 1
 1010 715 l 1
 1008 719 997 729 995 729 c 2
 932 729 l 2
 930 729 922 719 918 715 c 1
 891 668 874 614 813 604 c 0
 790 600 721 590 715 590 c 0
 703 588 596 590 582 590 c 0
 576 590 530 582 526 582 c 2
 506 582 l 1
 483 582 l 1
 448 584 365 588 365 590 c 1
 350 596 l 1
 352 600 369 614 371 616 c 0
 385 628 498 711 512 723 c 1
 516 725 543 754 547 758 c 0
 549 760 571 770 575 772 c 0
 583 776 619 801 625 807 c 0
 754 913 905 1014 905 1198 c 0
 905 1411 721 1544 520 1544 c 0
 481 1544 445 1528 406 1522 c 1
 398 1522 373 1516 371 1516 c 2
 301 1481 l 1
 276 1467 254 1441 231 1423 c 1
 221 1417 192 1393 188 1389 c 0
 186 1387 176 1370 174 1368 c 0
 170 1362 145 1337 139 1333 c 1
 139 1323 l 2
 139 1300 159 1276 182 1276 c 2
 188 1276 l 1
 282 1333 358 1376 471 1376 c 0
 520 1376 563 1362 602 1333 c 0
 676 1280 702 1253 702 1155 c 0
 702 1149 700 1137 700 1137 c 1
 698 1129 680 1062 674 1044 c 0
 651 985 596 942 553 897 c 1
 547 885 l 1
 510 844 463 801 420 764 c 1
 365 719 301 676 246 631 c 0
 215 606 187 580 154 555 c 1
 121 528 70 508 70 459 c 0
322 1266 m 0
 320 1266 320 1260 322 1260 c 0
 326 1260 326 1266 322 1266 c 0
EndSplineSet
EndChar

StartChar: _33
Encoding: 65561 -1 42
Width: 1083
VWidth: 0
Flags: W
LayerCount: 2
Fore
SplineSet
588 76 m 0
 588 66 588 43 590 43 c 1
 602 29 l 1
 797 29 l 1
 797 393 l 1
 797 393 803 404 807 408 c 2
 813 414 l 1
 1016 414 l 2
 1018 414 1022 418 1024 420 c 1
 1026 426 1030 440 1030 442 c 2
 1030 547 l 1
 1016 561 l 1
 911 561 l 2
 901 561 817 567 807 567 c 2
 793 567 l 1
 791 569 784 580 784 582 c 2
 784 1542 l 1
 678 1542 l 1
 154 715 l 1
 147 709 l 1
 41 532 l 1
 41 532 37 477 35 457 c 1
 35 430 l 1
 35 414 l 1
 49 408 l 1
 590 408 l 1
 596 393 l 1
 596 319 l 2
 596 237 588 158 588 76 c 0
1024 207 m 0
 1020 207 1020 201 1024 201 c 0
 1028 201 1028 207 1024 207 c 0
174 578 m 2
 174 582 l 1
 498 1102 l 1
 498 1104 504 1112 504 1116 c 1
 527 1149 582 1227 582 1227 c 1
 590 1227 l 1
 590 1227 600 1183 602 1163 c 1
 602 1161 l 1
 602 1157 l 2
 602 1151 596 1122 596 1116 c 2
 596 582 l 1
 582 567 l 1
 494 571 410 561 322 561 c 2
 309 561 l 2
 297 561 213 567 203 567 c 1
 195 569 174 566 174 578 c 2
127 1606 m 1
 127 1610 119 1610 119 1606 c 1
 121 1602 125 1602 127 1606 c 1
385 1665 m 0
 383 1665 383 1659 385 1659 c 0
 389 1659 389 1665 385 1665 c 0
408 1698 m 1
 408 1702 399 1702 399 1698 c 1
 401 1694 406 1694 408 1698 c 1
EndSplineSet
EndChar

StartChar: _34
Encoding: 65562 -1 43
Width: 1226
VWidth: 0
Flags: W
LayerCount: 2
Fore
SplineSet
86 84 m 1
 86 29 l 2
 86 23 109 14 109 14 c 1
 135 14 l 2
 237 14 340 20 442 20 c 0
 485 20 530 14 573 14 c 2
 598 14 l 1
 616 18 614 35 614 47 c 0
 614 115 577 82 528 98 c 0
 473 116 432 164 430 225 c 1
 430 319 l 1
 430 385 l 1
 438 408 l 1
 453 408 l 1
 473 408 l 1
 483 406 568 387 578 385 c 1
 645 385 l 2
 721 385 800 397 866 434 c 1
 874 440 948 477 956 483 c 1
 962 489 1022 552 1040 575 c 0
 1044 581 1065 610 1069 616 c 0
 1077 630 1102 686 1104 694 c 0
 1114 725 1143 834 1147 848 c 1
 1147 903 l 2
 1147 1069 1126 1192 1020 1325 c 0
 1014 1333 989 1358 985 1360 c 1
 979 1366 906 1416 879 1432 c 1
 877 1432 866 1438 866 1438 c 1
 856 1440 782 1450 774 1452 c 0
 772 1452 749 1458 745 1458 c 2
 743 1458 l 1
 739 1458 l 1
 710 1452 633 1432 627 1432 c 1
 570 1412 516 1372 473 1333 c 0
 461 1323 432 1298 430 1298 c 2
 424 1298 l 1
 410 1368 l 1
 426 1374 424 1407 424 1421 c 0
 424 1439 418 1452 395 1452 c 2
 389 1452 l 1
 330 1434 270 1407 213 1389 c 1
 211 1387 203 1376 199 1374 c 1
 184 1374 l 1
 149 1366 80 1347 80 1300 c 0
 80 1284 93 1278 109 1270 c 1
 125 1260 209 1214 227 1206 c 1
 233 1200 l 2
 235 1198 240 1012 242 932 c 1
 242 709 l 1
 250 678 248 668 248 639 c 2
 248 604 l 2
 248 538 242 239 242 176 c 1
 222 110 151 96 94 92 c 1
 86 84 l 1
422 1014 m 0
 422 1039 424 1153 424 1178 c 1
 438 1239 590 1284 643 1284 c 2
 662 1284 l 1
 670 1282 737 1268 760 1262 c 1
 797 1254 823 1229 852 1206 c 1
 866 1192 l 1
 948 1090 985 967 985 834 c 0
 985 715 929 569 823 506 c 0
 790 486 752 463 711 463 c 0
 676 463 639 473 606 483 c 0
 569 495 547 495 514 518 c 1
 489 538 473 571 459 596 c 0
 441 627 434 678 430 709 c 1
 422 803 422 920 422 1014 c 0
887 670 m 0
 883 670 883 664 887 664 c 0
 891 664 891 670 887 670 c 0
EndSplineSet
EndChar

StartChar: _35
Encoding: 65563 -1 44
Width: 1083
VWidth: 0
Flags: W
LayerCount: 2
Fore
SplineSet
94 700 m 1
 100 690 123 641 129 631 c 0
 217 490 346 379 520 379 c 0
 643 379 811 445 887 547 c 0
 942 621 976 711 999 799 c 0
 1009 840 1008 895 1008 934 c 0
 1008 981 1011 1010 999 1053 c 0
 995 1069 964 1161 958 1186 c 1
 956 1188 952 1198 950 1200 c 0
 889 1296 824 1378 713 1423 c 0
 670 1441 625 1448 580 1458 c 1
 575 1458 l 2
 493 1458 418 1440 340 1409 c 0
 338 1409 313 1395 305 1389 c 0
 260 1358 219 1331 186 1290 c 1
 114 1169 74 1054 74 913 c 0
 74 841 84 777 94 709 c 1
 94 700 l 1
276 905 m 1
 276 1143 l 2
 276 1147 287 1182 291 1192 c 0
 334 1296 403 1362 520 1362 c 0
 604 1362 641 1325 698 1262 c 0
 700 1260 711 1245 713 1241 c 0
 776 1124 799 995 811 862 c 1
 811 799 l 1
 811 723 l 2
 811 719 803 690 803 688 c 2
 803 666 l 1
 783 539 698 469 573 469 c 0
 544 469 529 469 502 483 c 1
 494 489 438 529 424 541 c 0
 363 590 338 673 311 743 c 1
 311 747 305 766 305 772 c 2
 305 786 l 1
 301 802 282 887 276 905 c 1
522 1350 m 0
 518 1350 518 1343 522 1343 c 0
 526 1343 526 1350 522 1350 c 0
522 1468 m 0
 518 1468 518 1462 522 1462 c 0
 526 1462 526 1468 522 1468 c 0
383 1505 m 0
 379 1505 379 1497 383 1497 c 0
 385 1497 385 1505 383 1505 c 0
375 1511 m 0
 373 1511 373 1505 375 1505 c 0
 379 1505 379 1511 375 1511 c 0
EndSplineSet
EndChar

StartChar: _36
Encoding: 65564 -1 45
Width: 649
VWidth: 0
Flags: W
LayerCount: 2
Fore
SplineSet
342 334 m 0
 338 334 338 326 342 326 c 0
 344 326 344 334 342 334 c 0
68 424 m 0
 68 420 74 399 82 399 c 2
 580 399 l 2
 588 399 588 424 588 428 c 0
 588 444 583 469 565 477 c 0
 561 479 514 490 510 492 c 0
 469 506 444 557 440 596 c 1
 438 670 432 1013 432 1087 c 2
 432 1174 l 2
 432 1258 440 1341 440 1425 c 0
 440 1448 423 1452 403 1452 c 0
 393 1452 385 1454 377 1444 c 1
 111 1354 l 2
 88 1346 90 1310 90 1298 c 1
 102 1298 l 1
 244 1221 l 2
 248 1219 256 1204 256 1200 c 2
 256 688 l 2
 256 676 252 616 250 604 c 0
 234 500 174 495 82 483 c 1
 66 479 68 436 68 424 c 0
215 1882 m 0
 215 1814 258 1761 330 1761 c 0
 361 1761 402 1775 418 1802 c 1
 430 1820 446 1851 446 1876 c 0
 446 1952 393 2013 313 2013 c 0
 243 2013 215 1941 215 1882 c 0
EndSplineSet
EndChar

StartChar: _37
Encoding: 65565 -1 46
Width: 1261
VWidth: 0
Flags: W
LayerCount: 2
Fore
SplineSet
78 430 m 2
 78 414 l 1
 80 410 88 399 92 399 c 2
 584 399 l 1
 584 399 590 406 590 408 c 2
 590 428 l 2
 590 442 593 477 575 483 c 1
 507 497 440 522 428 596 c 1
 426 625 422 757 422 786 c 0
 422 794 420 936 420 989 c 0
 420 1020 422 1161 422 1192 c 1
 428 1227 463 1246 492 1262 c 0
 498 1266 543 1286 555 1290 c 0
 565 1294 600 1305 604 1305 c 2
 649 1305 l 1
 702 1305 l 1
 778 1301 844 1207 844 1137 c 2
 844 877 l 1
 846 852 850 734 850 709 c 0
 850 691 844 600 842 582 c 1
 826 547 813 512 772 498 c 0
 762 494 712 485 702 483 c 1
 690 475 694 452 694 442 c 2
 694 414 l 1
 700 408 709 401 717 399 c 1
 807 399 l 1
 899 399 l 1
 940 401 1137 406 1180 408 c 0
 1190 408 1186 432 1186 434 c 0
 1186 446 1187 471 1171 477 c 0
 1167 479 1128 490 1122 492 c 0
 1099 498 1073 521 1059 541 c 0
 1034 578 1032 631 1032 674 c 1
 1030 709 1032 989 1032 1024 c 0
 1032 1044 1026 1157 1024 1186 c 0
 1024 1194 1020 1229 1018 1235 c 0
 983 1374 880 1460 733 1460 c 0
 627 1460 537 1378 457 1325 c 1
 455 1325 444 1319 442 1319 c 1
 438 1315 424 1300 422 1298 c 1
 422 1444 l 2
 422 1456 395 1452 395 1452 c 1
 379 1452 l 1
 92 1333 l 1
 90 1331 80 1323 78 1319 c 1
 78 1315 l 2
 78 1309 80 1302 84 1298 c 1
 98 1290 162 1249 176 1241 c 0
 190 1233 221 1214 231 1200 c 1
 239 1141 240 1106 240 1049 c 2
 240 981 l 1
 238 981 231 971 231 969 c 0
 231 967 240 954 240 954 c 1
 240 905 l 2
 240 889 246 753 246 737 c 2
 246 729 l 1
 246 723 l 1
 242 662 243 559 190 512 c 0
 143 469 78 508 78 430 c 2
EndSplineSet
EndChar

StartChar: _38
Encoding: 65566 -1 47
Width: 600
VWidth: 0
Flags: W
LayerCount: 2
Fore
SplineSet
184 10 m 0
 182 10 182 4 184 4 c 0
 188 4 188 10 184 10 c 0
100 375 m 0
 98 375 98 369 100 369 c 0
 104 369 104 375 100 375 c 0
164 582 m 1
 168 506 191 450 248 399 c 0
 250 397 260 393 262 393 c 0
 270 391 340 381 360 379 c 1
 367 379 l 2
 426 379 473 390 528 408 c 0
 540 412 569 424 571 442 c 1
 571 479 l 1
 571 506 l 1
 557 518 l 1
 438 518 l 2
 434 518 405 535 395 541 c 0
 379 551 366 582 360 596 c 1
 358 662 354 967 354 1030 c 0
 354 1038 352 1107 352 1130 c 0
 352 1196 352 1237 360 1305 c 0
 360 1309 371 1317 375 1319 c 1
 383 1319 l 2
 424 1319 463 1311 504 1311 c 2
 549 1311 l 1
 561 1319 571 1334 571 1348 c 0
 571 1354 565 1393 563 1403 c 0
 561 1421 546 1423 528 1423 c 2
 367 1423 l 1
 354 1432 l 1
 354 1432 352 1444 352 1450 c 0
 352 1499 360 1548 360 1595 c 2
 360 1599 l 1
 358 1603 348 1614 346 1614 c 2
 291 1614 l 2
 289 1614 280 1603 276 1599 c 1
 272 1593 239 1548 233 1542 c 0
 219 1528 160 1468 150 1458 c 1
 142 1452 61 1397 51 1389 c 0
 37 1377 31 1364 31 1346 c 0
 31 1336 37 1315 51 1315 c 2
 158 1315 l 1
 158 1315 164 1309 164 1305 c 0
 166 1297 170 1268 170 1262 c 0
 170 1250 164 1149 164 1137 c 2
 164 860 l 1
 164 582 l 1
EndSplineSet
EndChar

StartChar: _39
Encoding: 65567 -1 48
Width: 522
VWidth: 0
Flags: W
LayerCount: 2
Fore
SplineSet
35 66 m 0
 35 39 49 20 80 20 c 0
 160 20 263 51 322 104 c 0
 414 188 475 270 483 393 c 0
 483 395 485 439 485 453 c 0
 485 512 480 580 449 631 c 0
 404 707 346 772 254 772 c 0
 215 772 178 770 147 743 c 0
 116 716 96 692 96 651 c 0
 96 598 112 510 182 506 c 1
 190 504 252 506 260 506 c 0
 328 500 344 426 344 371 c 0
 344 285 309 185 217 162 c 0
 178 152 137 151 98 139 c 1
 92 139 57 123 49 119 c 0
 47 119 43 113 41 113 c 1
 35 95 35 84 35 66 c 0
455 1300 m 0
 453 1300 453 1294 455 1294 c 0
 459 1294 459 1300 455 1300 c 0
EndSplineSet
EndChar

StartChar: _40
Encoding: 65568 -1 49
Width: 944
VWidth: 0
Flags: W
LayerCount: 2
Fore
SplineSet
248 201 m 0
 246 201 246 193 248 193 c 0
 252 193 252 201 248 201 c 0
80 270 m 0
 78 270 78 262 80 262 c 0
 84 262 84 270 80 270 c 0
59 922 m 0
 59 811 72 700 129 604 c 0
 131 600 156 571 158 567 c 0
 189 526 219 488 262 457 c 0
 268 453 313 430 319 428 c 1
 342 416 362 399 389 393 c 0
 405 389 480 375 494 373 c 0
 496 373 500 371 502 371 c 2
 508 373 l 1
 539 377 627 391 635 393 c 0
 739 416 826 522 887 604 c 0
 895 614 895 621 895 633 c 2
 895 645 l 1
 891 651 866 676 858 680 c 1
 829 674 815 639 788 625 c 1
 718 584 666 561 586 561 c 2
 551 561 l 1
 541 563 469 586 459 590 c 1
 410 604 371 637 334 674 c 0
 320 688 309 713 297 729 c 0
 295 733 272 768 270 772 c 0
 266 778 256 797 256 799 c 0
 248 826 229 914 227 926 c 1
 227 981 l 1
 227 1044 l 1
 229 1054 242 1133 242 1143 c 2
 242 1163 l 1
 244 1169 266 1202 270 1206 c 1
 290 1239 309 1271 340 1298 c 1
 342 1298 352 1303 354 1305 c 0
 356 1307 367 1323 369 1325 c 1
 369 1327 375 1333 375 1333 c 1
 420 1353 469 1362 518 1362 c 0
 559 1362 604 1356 641 1333 c 0
 649 1327 674 1302 676 1298 c 2
 733 1171 l 2
 741 1155 772 1143 788 1143 c 0
 862 1143 887 1207 887 1270 c 0
 887 1331 848 1362 803 1403 c 0
 762 1440 700 1442 649 1452 c 0
 647 1452 629 1458 627 1458 c 1
 627 1460 594 1460 582 1460 c 0
 570 1460 539 1460 537 1458 c 1
 535 1458 512 1452 508 1452 c 2
 487 1452 l 1
 464 1446 369 1417 346 1409 c 0
 287 1389 242 1350 199 1305 c 1
 199 1301 195 1286 193 1284 c 1
 193 1282 180 1278 178 1276 c 2
 178 1276 172 1272 172 1270 c 1
 164 1258 139 1223 137 1221 c 0
 84 1131 59 1026 59 922 c 0
649 1270 m 1
 645 1270 645 1262 649 1262 c 1
 653 1264 653 1268 649 1270 c 1
EndSplineSet
EndChar

StartChar: _41
Encoding: 65569 -1 50
Width: 1024
VWidth: 0
Flags: W
LayerCount: 2
Fore
SplineSet
84 649 m 0
 84 528 168 434 281 399 c 0
 287 397 311 393 315 393 c 0
 327 393 398 404 414 408 c 0
 475 420 535 479 582 512 c 0
 588 516 592 520 600 520 c 0
 604 520 606 518 610 512 c 0
 612 508 629 473 631 469 c 1
 641 459 680 418 688 414 c 1
 706 402 735 399 758 399 c 0
 797 399 852 413 883 442 c 1
 899 454 932 490 932 492 c 2
 932 582 l 2
 932 592 919 590 915 590 c 0
 890 590 873 573 848 573 c 0
 809 573 803 624 799 651 c 1
 799 706 793 963 793 1018 c 2
 793 1241 l 1
 785 1378 674 1450 547 1458 c 1
 545 1460 508 1460 494 1460 c 0
 344 1460 119 1390 119 1206 c 0
 119 1186 117 1142 127 1122 c 0
 127 1120 152 1079 162 1067 c 1
 166 1059 174 1055 182 1053 c 1
 225 1059 330 1096 330 1151 c 0
 330 1192 287 1216 287 1257 c 0
 287 1269 287 1288 295 1298 c 0
 334 1347 377 1362 440 1362 c 0
 491 1362 520 1344 553 1305 c 1
 604 1250 598 1174 598 1102 c 0
 598 1088 596 1042 596 1038 c 1
 590 1030 l 1
 252 891 l 1
 252 891 235 881 231 877 c 2
 231 877 225 870 223 870 c 1
 137 817 84 760 84 649 c 0
281 692 m 2
 281 700 l 1
 283 708 291 748 295 758 c 0
 295 760 299 770 301 772 c 0
 307 778 336 807 344 813 c 0
 364 827 469 887 492 897 c 1
 502 903 555 928 567 932 c 1
 571 932 592 928 596 926 c 0
 598 926 602 920 602 920 c 1
 602 666 l 1
 602 666 598 655 596 651 c 0
 549 592 504 553 424 553 c 0
 350 553 281 614 281 692 c 2
EndSplineSet
EndChar

StartChar: _42
Encoding: 65570 -1 51
Width: 823
VWidth: 0
Flags: W
LayerCount: 2
Fore
SplineSet
86 676 m 2
 86 639 l 1
 88 629 94 549 94 541 c 0
 94 537 92 502 94 498 c 0
 96 494 115 475 123 469 c 0
 127 465 178 438 184 434 c 0
 188 432 203 416 207 414 c 1
 219 414 l 1
 278 394 313 371 379 371 c 0
 385 371 401 371 403 373 c 1
 432 377 531 395 543 399 c 0
 557 403 617 434 627 442 c 1
 637 448 691 504 705 518 c 1
 709 524 727 557 731 567 c 0
 749 608 748 664 748 707 c 0
 748 719 747 750 745 750 c 1
 745 756 715 819 705 842 c 1
 682 885 645 911 606 940 c 1
 590 950 536 985 528 989 c 0
 518 995 463 1014 453 1018 c 1
 451 1020 440 1030 438 1030 c 1
 418 1044 362 1073 360 1073 c 2
 354 1073 l 2
 352 1073 303 1123 283 1143 c 1
 275 1153 250 1186 248 1200 c 1
 248 1225 l 1
 248 1249 l 1
 250 1257 270 1303 276 1311 c 0
 305 1358 363 1368 414 1368 c 0
 459 1368 504 1342 537 1311 c 0
 584 1268 613 1191 627 1128 c 1
 639 1122 645 1122 655 1122 c 0
 669 1122 696 1123 696 1143 c 2
 696 1360 l 2
 696 1378 574 1428 549 1432 c 0
 539 1434 448 1450 438 1452 c 1
 418 1452 l 2
 338 1452 281 1434 207 1403 c 1
 174 1360 127 1357 109 1298 c 0
 101 1275 82 1212 80 1206 c 1
 80 1206 78 1188 78 1184 c 0
 78 1176 80 1159 80 1157 c 0
 80 1151 90 1118 94 1108 c 0
 160 934 301 903 444 813 c 1
 499 780 537 751 578 700 c 1
 582 698 590 678 592 674 c 1
 592 629 l 1
 592 582 l 1
 590 555 531 479 500 469 c 0
 498 469 481 471 479 469 c 1
 450 465 424 455 395 455 c 0
 305 455 202 586 184 666 c 0
 182 678 172 731 172 743 c 1
 166 751 149 758 143 758 c 0
 135 758 100 747 94 743 c 1
 86 718 86 701 86 676 c 2
571 1006 m 0
 567 1006 567 999 571 999 c 0
 573 999 573 1006 571 1006 c 0
326 1280 m 0
 322 1280 322 1274 326 1274 c 0
 330 1274 330 1280 326 1280 c 0
EndSplineSet
EndChar

StartChar: _43
Encoding: 65571 -1 52
Width: 651
VWidth: 0
Flags: W
LayerCount: 2
Fore
SplineSet
186 731 m 2
 186 590 l 2
 186 574 193 520 193 512 c 1
 195 508 215 463 221 449 c 1
 221 449 227 442 229 442 c 1
 239 434 279 403 285 399 c 0
 310 383 344 385 373 385 c 2
 403 385 l 1
 419 387 494 397 510 399 c 1
 537 417 574 411 594 442 c 1
 594 473 l 2
 594 506 598 530 559 532 c 1
 549 534 469 532 461 532 c 0
 418 534 383 575 383 616 c 2
 383 1262 l 1
 381 1266 377 1280 377 1284 c 0
 377 1302 376 1325 399 1325 c 2
 403 1325 l 2
 411 1325 479 1319 487 1319 c 0
 512 1319 569 1323 571 1325 c 2
 586 1339 l 1
 586 1409 l 2
 586 1415 563 1432 559 1432 c 2
 389 1432 l 1
 377 1438 l 2
 375 1438 375 1462 375 1470 c 0
 375 1505 383 1538 383 1571 c 0
 383 1585 381 1600 377 1614 c 1
 373 1624 358 1620 350 1620 c 0
 332 1620 323 1620 305 1606 c 1
 291 1590 223 1509 207 1493 c 1
 203 1491 170 1462 166 1458 c 1
 164 1458 160 1452 158 1452 c 1
 131 1432 79 1413 59 1382 c 0
 53 1372 53 1362 53 1350 c 0
 53 1332 59 1321 82 1319 c 0
 94 1317 160 1317 172 1319 c 1
 190 1311 193 1288 193 1272 c 0
 193 1092 186 911 186 731 c 2
453 1309 m 0
 449 1309 449 1300 453 1300 c 0
 457 1300 457 1309 453 1309 c 0
EndSplineSet
EndChar

StartChar: _44
Encoding: 65572 -1 53
Width: 827
VWidth: 0
Flags: W
LayerCount: 2
Fore
SplineSet
94 492 m 1
 104 459 135 456 164 442 c 0
 166 440 182 428 184 428 c 0
 204 418 279 389 291 385 c 0
 316 377 356 379 383 379 c 0
 512 379 614 412 696 512 c 0
 737 561 748 621 748 682 c 0
 748 741 741 809 696 856 c 0
 678 876 623 930 621 932 c 2
 346 1087 l 1
 340 1094 l 1
 336 1096 313 1112 311 1116 c 1
 274 1151 248 1178 248 1229 c 0
 248 1282 287 1344 340 1360 c 0
 358 1366 394 1368 414 1368 c 0
 463 1368 485 1352 522 1319 c 0
 549 1294 570 1276 586 1241 c 0
 600 1208 609 1128 662 1128 c 0
 672 1128 688 1127 696 1137 c 1
 698 1145 703 1184 705 1192 c 1
 705 1196 l 1
 705 1200 l 1
 703 1204 698 1249 696 1255 c 1
 696 1368 l 1
 676 1395 650 1399 621 1409 c 0
 615 1411 575 1430 571 1432 c 0
 553 1438 536 1434 522 1444 c 1
 506 1448 432 1456 416 1458 c 1
 416 1458 408 1460 406 1460 c 0
 300 1460 176 1415 123 1319 c 1
 98 1278 80 1237 80 1190 c 0
 80 1094 145 989 227 940 c 0
 260 920 411 831 444 813 c 1
 450 801 482 794 494 786 c 1
 508 774 557 729 563 723 c 0
 588 698 592 664 592 631 c 0
 592 520 523 463 414 463 c 0
 308 463 228 551 193 645 c 0
 181 676 190 758 139 758 c 0
 125 758 94 759 86 743 c 1
 86 670 l 1
 86 596 l 1
 88 580 92 506 94 492 c 1
EndSplineSet
EndChar

StartChar: _45
Encoding: 65573 -1 54
Width: 1224
VWidth: 0
Flags: W
LayerCount: 2
Fore
SplineSet
293 291 m 0
 289 291 289 285 293 285 c 0
 295 285 295 291 293 291 c 0
68 887 m 1
 68 885 l 1
 80 848 78 807 88 772 c 0
 115 682 152 594 215 526 c 0
 256 483 295 432 354 414 c 0
 368 410 447 395 467 393 c 0
 471 393 502 391 512 391 c 0
 522 391 551 393 551 393 c 2
 559 393 626 418 649 428 c 1
 696 446 739 491 776 518 c 0
 794 532 799 531 811 547 c 1
 817 541 l 2
 819 539 819 526 819 520 c 0
 819 487 811 457 811 424 c 0
 811 408 817 391 840 393 c 0
 844 393 870 406 874 408 c 1
 903 414 1034 443 1063 449 c 1
 1071 449 l 1
 1083 453 1129 461 1135 463 c 0
 1141 465 1151 471 1155 477 c 1
 1155 508 l 2
 1155 526 1159 549 1141 561 c 1
 1118 553 1102 553 1077 553 c 0
 1073 553 1057 553 1057 555 c 1
 1053 555 1032 569 1028 575 c 1
 1024 579 1016 600 1014 604 c 1
 1008 729 l 1
 1008 1985 l 2
 1008 2001 1007 2026 987 2028 c 1
 958 2028 l 1
 930 2028 l 1
 905 2016 789 1966 762 1956 c 0
 756 1954 704 1944 698 1944 c 1
 694 1942 680 1937 678 1935 c 1
 672 1933 657 1923 657 1921 c 2
 657 1872 l 1
 675 1864 758 1825 776 1817 c 0
 799 1807 811 1794 811 1767 c 2
 811 1466 l 2
 811 1456 799 1458 795 1458 c 0
 768 1458 754 1467 719 1473 c 1
 686 1481 643 1487 608 1487 c 0
 473 1487 360 1421 256 1339 c 0
 250 1335 200 1286 186 1270 c 1
 186 1268 180 1257 180 1255 c 1
 166 1241 l 1
 137 1188 108 1126 96 1067 c 0
 84 1006 86 948 68 891 c 1
 68 887 l 1
262 989 m 0
 262 1001 264 1036 264 1038 c 0
 264 1044 275 1098 279 1116 c 1
 281 1132 289 1135 285 1151 c 1
 291 1165 320 1229 328 1241 c 0
 367 1309 432 1343 502 1368 c 1
 522 1374 538 1382 563 1382 c 2
 565 1382 l 1
 585 1376 645 1362 649 1360 c 0
 737 1333 811 1245 811 1151 c 2
 811 827 l 2
 811 817 817 727 817 715 c 1
 817 715 819 702 819 700 c 0
 819 673 800 657 782 639 c 1
 766 629 688 590 672 582 c 1
 647 572 637 573 608 573 c 0
 510 573 428 606 362 680 c 0
 360 682 350 698 348 700 c 0
 299 796 262 878 262 989 c 0
741 1772 m 0
 737 1772 737 1763 741 1763 c 0
 743 1763 743 1772 741 1772 c 0
EndSplineSet
EndChar

StartChar: _46
Encoding: 65574 -1 55
Width: 663
VWidth: 0
Flags: W
LayerCount: 2
Fore
SplineSet
88 420 m 1
 131 422 338 422 383 420 c 0
 397 420 471 416 487 414 c 1
 481 414 l 1
 494 420 l 1
 586 420 l 1
 586 492 l 1
 586 492 582 498 580 498 c 0
 574 500 534 510 530 512 c 0
 434 547 438 627 438 717 c 2
 438 807 l 2
 438 832 440 944 442 969 c 1
 442 995 l 1
 438 1389 l 1
 440 1397 446 1436 446 1444 c 0
 446 1471 437 1481 414 1481 c 2
 403 1481 l 1
 331 1456 284 1434 221 1409 c 0
 219 1409 209 1403 207 1403 c 2
 186 1403 l 1
 174 1399 125 1378 117 1374 c 0
 113 1372 96 1358 94 1354 c 1
 94 1348 l 2
 94 1330 111 1315 123 1305 c 0
 129 1301 168 1276 178 1270 c 0
 188 1264 238 1239 250 1235 c 1
 256 1221 l 1
 256 723 l 2
 256 680 252 631 242 590 c 1
 242 584 236 569 236 567 c 1
 185 479 74 549 74 455 c 0
 74 443 70 426 88 420 c 1
334 1782 m 1
 340 1774 l 1
 344 1772 387 1790 403 1802 c 0
 407 1806 432 1841 438 1851 c 0
 448 1871 453 1889 453 1909 c 2
 453 1921 l 1
 433 1989 395 2034 319 2034 c 0
 260 2034 231 1978 213 1929 c 1
 213 1925 l 2
 213 1905 222 1851 236 1831 c 0
 242 1821 270 1792 276 1788 c 0
 284 1784 324 1780 334 1782 c 1
EndSplineSet
EndChar

StartChar: _47
Encoding: 65575 -1 56
Width: 841
VWidth: 0
Flags: W
LayerCount: 2
Fore
SplineSet
135 469 m 1
 160 459 272 409 297 399 c 0
 330 387 360 385 393 385 c 2
 416 385 l 1
 522 399 618 430 690 512 c 0
 698 522 723 557 725 561 c 0
 729 571 750 641 754 659 c 1
 754 680 l 2
 754 735 746 811 705 856 c 0
 670 893 623 942 578 969 c 0
 547 987 393 1071 360 1087 c 1
 352 1097 342 1100 332 1108 c 0
 299 1137 266 1171 256 1212 c 0
 254 1216 250 1231 248 1235 c 1
 248 1247 264 1301 268 1311 c 1
 274 1321 309 1356 317 1360 c 0
 323 1364 367 1374 381 1374 c 0
 383 1374 410 1376 420 1376 c 0
 426 1376 453 1374 459 1374 c 1
 469 1356 531 1342 549 1311 c 1
 561 1295 596 1241 598 1235 c 0
 602 1227 625 1165 627 1157 c 1
 627 1157 635 1137 641 1137 c 2
 696 1137 l 1
 696 1374 l 2
 696 1376 682 1393 676 1397 c 0
 610 1436 543 1450 465 1458 c 1
 463 1460 434 1466 430 1466 c 2
 401 1466 l 2
 342 1466 270 1458 219 1423 c 0
 184 1400 143 1372 123 1333 c 1
 98 1290 78 1251 78 1202 c 0
 78 1196 80 1180 80 1178 c 0
 90 1125 111 1065 150 1024 c 0
 168 1006 227 952 233 946 c 1
 247 938 373 872 389 862 c 0
 393 860 432 831 438 827 c 0
 442 825 475 809 479 807 c 0
 481 805 492 795 494 793 c 0
 551 750 600 715 600 635 c 0
 600 584 561 501 508 483 c 0
 502 481 439 471 416 469 c 1
 393 469 l 2
 295 469 211 604 184 688 c 0
 178 706 178 744 164 764 c 0
 158 774 153 772 139 772 c 0
 121 772 86 768 86 741 c 0
 86 663 96 584 94 506 c 1
 106 490 125 485 135 469 c 1
EndSplineSet
EndChar

StartChar: _48
Encoding: 65576 -1 57
Width: 1167
VWidth: 0
Flags: W
LayerCount: 2
Fore
SplineSet
45 55 m 0
 45 43 52 29 66 29 c 2
 563 29 l 2
 567 29 578 37 578 43 c 2
 578 43 580 55 580 61 c 0
 580 127 534 109 479 119 c 0
 422 129 399 215 395 260 c 1
 395 313 l 2
 395 344 383 406 424 420 c 1
 447 416 555 395 578 393 c 0
 580 393 613 391 625 391 c 0
 691 391 758 405 817 434 c 0
 840 446 907 486 915 492 c 0
 931 504 1000 578 1014 596 c 1
 1020 606 1065 690 1075 715 c 1
 1106 783 1118 854 1118 926 c 0
 1118 1014 1110 1094 1083 1178 c 0
 1079 1190 1061 1233 1055 1241 c 0
 1049 1249 991 1329 971 1354 c 0
 967 1358 952 1372 950 1374 c 0
 934 1386 854 1436 838 1444 c 1
 791 1456 741 1466 692 1466 c 2
 676 1466 l 1
 658 1462 600 1448 592 1444 c 0
 572 1436 483 1386 465 1374 c 1
 455 1366 409 1323 403 1311 c 1
 399 1311 l 2
 395 1311 389 1313 389 1319 c 2
 389 1458 l 2
 389 1468 369 1466 367 1466 c 2
 354 1466 l 1
 66 1360 l 2
 50 1354 51 1341 51 1327 c 0
 51 1311 47 1306 59 1298 c 0
 73 1288 117 1257 123 1255 c 0
 127 1253 166 1237 172 1235 c 1
 174 1233 189 1223 193 1221 c 1
 197 1217 209 1206 209 1206 c 1
 209 772 l 2
 209 706 213 407 213 344 c 0
 213 324 209 226 207 203 c 0
 203 160 170 129 129 119 c 0
 104 113 76 122 51 104 c 1
 49 90 45 71 45 55 c 0
389 1171 m 2
 389 1187 385 1194 395 1206 c 0
 420 1237 473 1264 508 1276 c 0
 518 1280 551 1290 557 1290 c 0
 559 1290 602 1292 616 1292 c 0
 626 1292 668 1290 676 1290 c 1
 678 1288 688 1284 690 1284 c 0
 813 1243 860 1182 915 1067 c 1
 913 1065 913 1055 915 1053 c 1
 933 975 950 926 950 844 c 0
 950 803 942 768 930 729 c 0
 928 725 917 684 915 680 c 0
 876 576 789 483 670 483 c 2
 635 483 l 1
 627 485 567 500 551 506 c 1
 537 508 498 524 494 526 c 1
 459 561 l 2
 457 563 446 580 444 582 c 0
 440 590 416 645 410 659 c 0
 394 700 397 770 395 813 c 1
 395 846 389 1110 389 1143 c 2
 389 1171 l 2
803 557 m 0
 799 557 799 551 803 551 c 0
 807 551 807 557 803 557 c 0
EndSplineSet
EndChar

StartChar: _49
Encoding: 65577 -1 58
Width: 649
VWidth: 0
Flags: W
LayerCount: 2
Fore
SplineSet
59 434 m 0
 59 407 101 408 115 408 c 2
 578 408 l 2
 590 408 592 434 592 442 c 0
 592 454 590 465 586 477 c 0
 582 489 555 490 551 492 c 0
 537 496 479 520 467 526 c 1
 463 526 453 537 453 541 c 1
 451 543 453 559 453 561 c 1
 451 563 438 567 438 567 c 1
 438 569 432 590 432 596 c 1
 430 600 426 635 424 645 c 1
 424 649 l 1
 424 651 l 2
 424 676 432 874 432 897 c 0
 432 907 424 979 424 989 c 2
 424 1112 l 1
 424 1249 l 2
 424 1280 432 1540 432 1571 c 0
 432 1579 424 1647 424 1655 c 2
 424 2005 l 1
 416 2013 409 2013 399 2013 c 0
 366 2013 342 1995 311 1985 c 0
 278 1975 121 1925 88 1915 c 0
 84 1913 70 1896 66 1894 c 1
 66 1890 l 2
 66 1872 80 1855 94 1845 c 1
 112 1837 191 1802 207 1796 c 1
 217 1790 234 1781 236 1767 c 1
 244 1554 242 1339 242 1126 c 2
 242 750 l 1
 240 738 236 673 236 659 c 1
 234 632 239 598 221 575 c 0
 209 561 174 522 172 518 c 1
 170 518 141 508 129 506 c 1
 125 504 100 498 94 498 c 0
 92 498 76 500 74 498 c 1
 72 498 68 487 66 483 c 1
 64 473 59 450 59 434 c 0
EndSplineSet
EndChar

StartChar: _50
Encoding: 65578 -1 59
Width: 1030
VWidth: 0
Flags: W
LayerCount: 2
Fore
SplineSet
84 653 m 0
 84 522 197 399 330 399 c 0
 436 399 514 459 596 518 c 1
 598 518 602 520 602 520 c 1
 631 520 633 467 651 449 c 1
 682 422 719 399 760 399 c 0
 795 399 831 408 862 420 c 1
 868 424 903 449 911 457 c 1
 919 463 940 488 940 492 c 2
 940 575 l 2
 940 585 915 584 913 584 c 0
 893 584 880 567 860 567 c 0
 829 567 807 598 807 625 c 1
 805 639 799 758 799 772 c 2
 799 1255 l 1
 795 1284 780 1323 764 1348 c 1
 735 1389 651 1446 602 1452 c 0
 582 1454 477 1464 457 1466 c 1
 428 1450 402 1452 371 1444 c 0
 363 1442 323 1427 315 1423 c 0
 297 1415 213 1370 197 1360 c 1
 166 1323 119 1265 119 1212 c 2
 119 1200 l 1
 121 1190 135 1130 139 1116 c 0
 147 1089 172 1059 201 1059 c 2
 203 1059 l 2
 205 1059 215 1065 217 1067 c 1
 248 1079 324 1100 324 1141 c 0
 324 1209 272 1213 272 1262 c 0
 272 1321 381 1368 426 1368 c 0
 496 1368 539 1335 582 1284 c 0
 584 1282 594 1261 596 1255 c 0
 604 1235 602 1209 602 1186 c 1
 604 1174 610 1083 610 1073 c 2
 610 1057 l 2
 610 1039 591 1024 575 1018 c 0
 565 1014 493 991 483 989 c 1
 483 989 471 983 469 981 c 1
 449 973 345 934 322 926 c 1
 315 926 l 1
 305 922 266 901 260 897 c 0
 211 868 164 842 133 793 c 0
 104 746 84 706 84 653 c 0
281 686 m 0
 281 725 289 753 309 786 c 0
 321 804 347 815 365 827 c 0
 371 831 414 860 420 862 c 0
 445 874 550 924 575 932 c 2
 582 934 l 1
 613 934 610 905 610 885 c 0
 610 862 616 694 616 674 c 2
 616 670 l 1
 616 666 l 1
 579 605 502 547 428 547 c 0
 403 547 391 557 371 567 c 0
 369 569 352 573 350 575 c 1
 321 585 303 622 287 645 c 1
 279 659 281 672 281 686 c 0
309 664 m 0
 305 664 305 655 309 655 c 0
 311 655 311 664 309 664 c 0
EndSplineSet
EndChar

StartChar: _51
Encoding: 65579 -1 60
Width: 1122
VWidth: 0
Flags: W
LayerCount: 2
Fore
SplineSet
115 168 m 0
 115 164 119 135 123 127 c 1
 148 47 233 27 307 27 c 0
 395 27 477 88 522 162 c 1
 524 168 547 219 549 225 c 1
 574 270 596 316 612 365 c 1
 626 402 633 440 647 477 c 1
 676 547 706 616 731 688 c 1
 743 717 793 854 803 885 c 1
 823 920 l 1
 956 1270 l 2
 970 1307 999 1330 1034 1348 c 0
 1036 1348 1065 1358 1069 1360 c 0
 1079 1368 1077 1399 1077 1403 c 0
 1077 1409 1075 1423 1075 1423 c 1
 1069 1432 l 1
 971 1428 874 1438 778 1438 c 2
 711 1438 l 1
 695 1428 696 1407 696 1391 c 0
 696 1323 764 1350 803 1319 c 0
 807 1315 832 1286 838 1276 c 0
 840 1274 844 1259 844 1255 c 0
 844 1253 838 1237 838 1235 c 0
 836 1225 825 1181 823 1171 c 1
 684 786 l 1
 670 763 672 745 647 729 c 1
 624 745 622 776 612 799 c 1
 610 807 582 869 578 877 c 0
 578 879 571 901 571 905 c 1
 557 940 536 975 522 1010 c 1
 489 1086 416 1274 416 1276 c 2
 416 1298 l 1
 416 1298 441 1323 453 1333 c 1
 453 1333 463 1339 465 1339 c 0
 475 1343 525 1358 537 1360 c 1
 545 1370 543 1381 543 1391 c 0
 543 1416 519 1438 494 1438 c 2
 414 1438 l 2
 308 1438 200 1428 94 1432 c 1
 80 1417 l 1
 80 1360 l 2
 80 1344 119 1350 129 1348 c 0
 154 1342 175 1327 193 1311 c 1
 211 1270 301 1073 317 1030 c 1
 321 1026 332 995 332 989 c 1
 543 518 l 1
 559 512 557 483 557 469 c 2
 557 457 l 1
 537 369 497 295 444 225 c 0
 442 221 428 207 424 203 c 1
 399 187 391 188 362 188 c 2
 332 188 l 1
 332 190 311 205 305 211 c 0
 274 236 244 266 199 266 c 0
 172 266 147 250 135 225 c 1
 131 211 115 172 115 168 c 0
416 45 m 0
 414 45 414 39 416 39 c 0
 420 39 420 45 416 45 c 0
395 432 m 0
 391 432 391 424 395 424 c 0
 399 424 399 432 395 432 c 0
EndSplineSet
EndChar

StartChar: _52
Encoding: 65580 -1 61
Width: 649
VWidth: 0
Flags: W
LayerCount: 2
Fore
SplineSet
559 109 m 0
 555 109 555 102 559 102 c 0
 561 102 561 109 559 109 c 0
68 1311 m 1
 99 1313 145 1315 180 1305 c 0
 182 1305 186 1298 186 1298 c 1
 186 518 l 2
 186 516 197 487 201 477 c 0
 240 385 297 371 391 371 c 0
 448 371 512 388 565 408 c 0
 571 410 586 420 586 420 c 1
 586 506 l 1
 580 512 l 1
 508 508 430 499 389 567 c 1
 383 579 377 598 377 610 c 2
 377 1311 l 1
 565 1311 l 1
 580 1325 l 1
 580 1413 l 1
 377 1413 l 1
 377 1599 l 2
 377 1605 336 1614 330 1614 c 0
 293 1614 274 1562 256 1542 c 0
 238 1522 164 1448 152 1438 c 0
 144 1432 76 1386 68 1382 c 1
 54 1372 53 1357 53 1341 c 0
 53 1329 52 1317 68 1311 c 1
EndSplineSet
EndChar

StartChar: _53
Encoding: 65581 -1 62
Width: 1118
VWidth: 0
Flags: W
LayerCount: 2
Fore
SplineSet
94 156 m 0
 94 60 201 12 285 12 c 0
 291 12 305 14 305 14 c 2
 309 14 344 31 354 35 c 1
 368 43 422 72 432 78 c 1
 434 78 444 88 446 92 c 0
 485 143 512 189 537 246 c 0
 545 264 584 353 594 373 c 1
 594 379 l 1
 594 379 647 518 670 575 c 1
 672 577 676 588 678 590 c 1
 688 617 723 705 727 715 c 0
 729 721 739 760 741 764 c 0
 747 782 811 928 817 946 c 0
 819 950 823 973 825 975 c 0
 827 979 844 1006 846 1010 c 0
 887 1112 903 1241 979 1325 c 1
 995 1345 1029 1346 1049 1354 c 0
 1063 1360 1063 1381 1063 1393 c 0
 1063 1405 1062 1432 1042 1432 c 2
 698 1432 l 2
 696 1432 686 1421 684 1417 c 1
 684 1401 l 2
 684 1387 682 1354 698 1348 c 0
 702 1346 744 1335 748 1333 c 0
 754 1329 789 1311 797 1305 c 0
 805 1299 815 1286 817 1276 c 1
 821 1266 825 1237 825 1235 c 2
 727 946 l 1
 729 932 725 932 719 920 c 1
 715 906 670 786 664 772 c 0
 662 766 647 737 643 729 c 0
 639 723 637 723 633 723 c 0
 604 723 588 801 580 821 c 0
 521 956 450 1086 403 1227 c 0
 395 1252 389 1265 389 1288 c 0
 389 1302 389 1299 403 1311 c 2
 438 1339 l 1
 448 1343 492 1348 502 1348 c 1
 525 1358 524 1387 524 1407 c 0
 524 1409 526 1432 516 1432 c 2
 82 1432 l 2
 68 1432 53 1411 53 1399 c 2
 53 1397 l 1
 55 1389 59 1360 59 1354 c 1
 73 1344 95 1343 109 1339 c 1
 140 1333 166 1313 180 1284 c 1
 319 969 l 1
 319 965 326 950 328 946 c 0
 340 915 404 774 418 743 c 0
 420 741 430 725 432 723 c 0
 438 711 457 672 461 666 c 1
 484 611 537 473 537 469 c 2
 537 457 l 1
 496 344 l 1
 486 338 485 323 481 315 c 0
 448 249 422 182 342 182 c 0
 274 182 243 266 182 266 c 2
 180 266 l 1
 172 264 152 260 152 260 c 1
 113 233 94 201 94 156 c 0
59 231 m 1
 61 235 51 235 53 231 c 0
 55 227 59 227 59 231 c 1
817 649 m 0
 815 649 815 641 817 641 c 0
 821 641 821 649 817 649 c 0
207 1610 m 0
 205 1610 205 1604 207 1604 c 0
 211 1604 211 1610 207 1610 c 0
229 1630 m 0
 225 1630 225 1624 229 1624 c 0
 231 1624 231 1630 229 1630 c 0
EndSplineSet
EndChar

StartChar: _54
Encoding: 65582 -1 63
Width: 1206
VWidth: 0
Flags: W
LayerCount: 2
Fore
SplineSet
74 14 m 1
 80 4 96 2 102 0 c 1
 116 2 181 6 195 6 c 0
 254 8 535 8 594 6 c 1
 600 14 l 1
 600 16 602 31 602 37 c 0
 602 47 604 74 594 84 c 1
 520 92 469 88 432 162 c 0
 430 164 426 184 426 188 c 0
 424 200 420 288 418 315 c 1
 418 338 l 2
 418 367 416 393 449 393 c 2
 467 393 l 1
 475 391 531 381 537 379 c 1
 574 373 598 371 637 371 c 0
 717 371 796 389 866 428 c 0
 872 432 918 467 924 469 c 1
 926 471 940 477 944 477 c 1
 1018 538 1063 612 1098 700 c 0
 1100 706 1110 746 1112 750 c 0
 1114 756 1124 774 1126 778 c 1
 1134 831 1141 866 1141 911 c 2
 1141 932 l 1
 1139 959 1124 1081 1120 1108 c 1
 1118 1112 1114 1126 1112 1128 c 1
 1100 1159 1061 1247 1057 1255 c 0
 1055 1257 1040 1278 1036 1284 c 1
 1009 1313 975 1359 938 1382 c 0
 928 1388 872 1417 860 1423 c 0
 856 1425 842 1430 840 1432 c 1
 793 1440 760 1446 719 1446 c 0
 713 1446 700 1446 698 1444 c 1
 643 1434 588 1411 537 1382 c 1
 523 1372 473 1339 467 1333 c 0
 449 1315 455 1290 426 1290 c 2
 418 1290 l 1
 416 1298 405 1333 403 1339 c 1
 403 1343 l 2
 403 1363 412 1380 412 1403 c 2
 412 1432 l 1
 410 1434 399 1444 397 1444 c 2
 397 1444 395 1446 393 1446 c 1
 391 1444 l 1
 379 1442 334 1427 328 1423 c 1
 324 1423 301 1411 299 1409 c 1
 223 1382 178 1370 102 1339 c 0
 88 1333 68 1318 68 1300 c 0
 68 1286 76 1270 88 1262 c 1
 106 1256 185 1214 201 1206 c 0
 207 1204 221 1194 221 1192 c 2
 229 1128 l 1
 225 905 238 684 238 461 c 0
 238 412 236 280 236 274 c 0
 236 258 231 184 229 168 c 1
 209 121 186 96 131 92 c 0
 115 90 96 96 82 84 c 0
 72 76 74 49 74 43 c 2
 74 14 l 1
410 1020 m 0
 410 1040 412 1137 412 1157 c 1
 430 1229 514 1256 580 1270 c 1
 582 1268 592 1262 594 1262 c 0
 596 1262 606 1270 608 1270 c 1
 610 1272 625 1276 629 1276 c 0
 643 1276 713 1266 727 1262 c 1
 735 1262 764 1251 768 1249 c 0
 907 1167 944 1053 973 897 c 1
 973 870 l 2
 973 862 979 827 979 821 c 1
 952 688 l 1
 929 649 922 610 895 575 c 0
 893 571 858 536 846 526 c 0
 811 493 751 457 702 457 c 2
 698 457 l 1
 673 459 610 469 608 469 c 0
 575 477 531 487 502 512 c 0
 498 516 483 530 481 532 c 0
 473 544 444 598 440 610 c 1
 420 655 420 711 418 758 c 0
 418 770 412 871 412 885 c 0
 412 889 410 985 410 1020 c 0
594 823 m 0
 590 823 590 817 594 817 c 0
 598 817 598 823 594 823 c 0
1057 1575 m 0
 1053 1575 1053 1567 1057 1567 c 0
 1061 1567 1061 1575 1057 1575 c 0
1063 1599 m 1
 1042 1591 l 1
 1063 1591 l 1
 1063 1599 l 1
1085 1604 m 0
 1081 1604 1081 1595 1085 1595 c 0
 1087 1595 1087 1604 1085 1604 c 0
EndSplineSet
EndChar

StartChar: _55
Encoding: 65583 -1 64
Width: 915
VWidth: 0
Flags: W
LayerCount: 2
Fore
SplineSet
481 123 m 0
 477 123 477 117 481 117 c 0
 485 117 485 123 481 123 c 0
369 393 m 1
 387 389 478 375 496 373 c 1
 498 373 l 1
 502 373 l 1
 574 381 644 391 705 428 c 0
 721 438 776 477 782 483 c 0
 798 499 862 578 874 596 c 1
 880 608 881 617 881 629 c 0
 881 649 858 668 838 668 c 0
 815 668 803 628 791 616 c 1
 785 614 756 598 748 596 c 0
 723 588 639 563 629 561 c 1
 588 561 l 2
 438 561 340 625 264 750 c 0
 260 756 254 764 256 772 c 1
 215 897 l 1
 217 934 213 977 207 1010 c 1
 217 1041 239 1038 268 1038 c 0
 321 1038 375 1030 428 1030 c 2
 432 1030 l 1
 440 1032 479 1036 487 1038 c 1
 860 1038 l 2
 868 1038 874 1059 874 1065 c 0
 874 1094 864 1138 852 1163 c 1
 782 1325 678 1446 492 1446 c 0
 281 1446 184 1329 96 1151 c 0
 82 1124 86 1114 74 1094 c 1
 70 1078 55 999 53 981 c 1
 53 922 l 2
 53 875 51 811 59 764 c 0
 79 647 152 525 250 457 c 1
 295 424 326 418 369 393 c 1
221 1133 m 0
 221 1151 228 1166 236 1186 c 0
 244 1204 275 1264 279 1270 c 0
 304 1309 346 1332 389 1348 c 0
 407 1354 435 1354 455 1354 c 0
 539 1354 606 1288 635 1212 c 0
 639 1202 655 1157 657 1151 c 1
 657 1137 l 2
 657 1131 659 1118 649 1116 c 1
 383 1116 l 2
 375 1116 307 1108 299 1108 c 2
 266 1108 l 1
 236 1108 l 1
 222 1114 221 1121 221 1133 c 0
EndSplineSet
EndChar

StartChar: _56
Encoding: 65584 -1 65
Width: 1697
VWidth: 0
Flags: W
LayerCount: 2
Fore
SplineSet
690 891 m 0
 690 887 698 846 698 842 c 0
 702 783 698 721 725 666 c 0
 737 641 793 553 803 541 c 0
 807 535 880 467 909 442 c 0
 911 440 926 430 930 428 c 0
 1002 389 1073 365 1157 365 c 0
 1206 365 1313 385 1358 414 c 0
 1366 420 1446 471 1456 477 c 0
 1458 479 1479 500 1483 506 c 0
 1583 621 1632 757 1632 911 c 0
 1632 997 1622 1071 1589 1151 c 0
 1517 1321 1362 1446 1174 1446 c 0
 1029 1446 872 1380 788 1255 c 1
 788 1253 782 1237 782 1235 c 1
 780 1233 772 1218 768 1212 c 1
 768 1212 762 1208 762 1206 c 0
 756 1194 735 1151 733 1143 c 0
 731 1139 721 1091 719 1087 c 1
 719 1083 707 1063 705 1059 c 1
 705 1055 698 995 698 975 c 2
 698 946 l 2
 698 942 690 897 690 891 c 0
80 414 m 1
 82 410 90 389 94 385 c 1
 129 385 l 1
 166 385 l 1
 174 387 242 393 250 393 c 2
 537 393 l 2
 543 393 567 397 571 399 c 0
 573 401 580 406 580 408 c 2
 580 477 l 1
 571 483 l 1
 540 489 500 495 473 518 c 1
 467 526 436 555 432 561 c 0
 430 563 426 573 424 575 c 1
 418 600 403 670 403 674 c 2
 403 1319 l 1
 565 1319 l 2
 598 1319 594 1373 594 1393 c 0
 594 1397 592 1413 592 1417 c 1
 590 1421 577 1432 571 1432 c 2
 403 1432 l 1
 401 1444 397 1504 397 1516 c 2
 397 1522 l 1
 397 1530 l 2
 397 1561 403 1645 403 1649 c 0
 411 1733 446 1901 557 1901 c 0
 563 1901 582 1896 586 1894 c 0
 654 1857 706 1747 786 1747 c 0
 825 1747 866 1820 866 1853 c 0
 866 1869 868 1878 860 1894 c 0
 817 1976 735 1993 649 1993 c 0
 602 1993 567 1994 522 1978 c 1
 426 1941 303 1845 262 1747 c 1
 235 1675 235 1612 221 1536 c 0
 221 1534 215 1524 213 1522 c 1
 211 1502 215 1470 201 1452 c 0
 168 1413 135 1417 88 1409 c 1
 72 1401 74 1374 74 1360 c 0
 74 1346 74 1329 88 1319 c 1
 178 1319 l 2
 182 1319 203 1313 207 1311 c 0
 209 1311 213 1307 213 1305 c 0
 215 1299 221 1270 221 1262 c 2
 221 920 l 2
 221 906 227 792 227 778 c 2
 227 774 l 1
 227 772 l 2
 227 754 221 614 221 596 c 1
 219 567 207 528 178 512 c 0
 172 508 108 481 102 477 c 0
 96 473 88 461 88 457 c 0
 86 447 80 418 80 414 c 1
1006 567 m 1
 996 587 950 686 944 709 c 1
 940 717 915 815 909 848 c 1
 897 903 901 961 901 1018 c 2
 901 1137 l 1
 903 1170 922 1202 936 1227 c 0
 973 1288 1024 1340 1098 1348 c 0
 1100 1348 1122 1346 1126 1348 c 0
 1128 1348 1145 1354 1147 1354 c 0
 1170 1354 1215 1335 1231 1325 c 0
 1329 1268 1351 1187 1384 1087 c 1
 1419 985 1427 885 1427 776 c 2
 1427 694 l 1
 1425 678 1411 598 1407 582 c 1
 1391 564 1376 541 1364 518 c 1
 1352 510 1286 477 1274 469 c 1
 1251 459 1234 455 1214 455 c 0
 1130 455 1059 506 1006 567 c 1
1280 586 m 0
 1276 586 1276 580 1280 580 c 0
 1284 580 1284 586 1280 586 c 0
1505 1378 m 0
 1501 1378 1501 1372 1505 1372 c 0
 1507 1372 1507 1378 1505 1378 c 0
EndSplineSet
EndChar

StartChar: _57
Encoding: 65585 -1 66
Width: 919
VWidth: 0
Flags: W
LayerCount: 2
Fore
SplineSet
84 428 m 0
 84 418 86 395 98 393 c 0
 104 391 135 385 139 385 c 0
 145 385 170 391 176 393 c 1
 266 393 l 2
 368 393 471 385 575 385 c 2
 639 385 l 1
 664 389 659 418 659 434 c 0
 659 459 662 484 631 492 c 1
 625 492 567 496 561 498 c 0
 555 500 506 518 492 526 c 0
 490 526 485 530 483 532 c 0
 465 559 451 573 449 604 c 0
 447 627 442 735 442 758 c 0
 442 764 440 883 440 926 c 0
 440 951 442 1069 442 1094 c 1
 438 1131 460 1161 483 1186 c 0
 495 1198 555 1252 567 1262 c 1
 581 1270 590 1270 604 1270 c 0
 612 1270 625 1272 631 1262 c 1
 694 1178 l 2
 704 1164 740 1163 756 1163 c 0
 817 1163 827 1249 827 1294 c 2
 827 1339 l 1
 804 1396 749 1448 688 1452 c 0
 649 1454 604 1440 575 1417 c 0
 561 1405 502 1347 492 1333 c 1
 482 1306 465 1280 442 1262 c 1
 442 1423 l 2
 442 1450 420 1460 397 1460 c 0
 395 1460 387 1460 385 1458 c 1
 104 1339 l 2
 92 1333 90 1312 90 1300 c 0
 90 1259 205 1224 238 1206 c 1
 238 1200 l 1
 240 1177 246 998 246 975 c 2
 246 831 l 2
 246 731 248 661 238 561 c 1
 236 502 150 498 113 492 c 0
 82 486 84 451 84 428 c 0
EndSplineSet
EndChar

StartChar: _58
Encoding: 65586 -1 67
Width: 688
VWidth: 0
Flags: W
LayerCount: 2
Fore
SplineSet
211 659 m 0
 211 557 207 486 289 414 c 0
 320 387 356 385 395 385 c 0
 458 385 525 385 584 414 c 0
 590 418 604 432 604 434 c 2
 604 518 l 1
 485 518 l 2
 460 518 412 570 408 590 c 0
 406 600 401 645 401 651 c 2
 401 1235 l 1
 408 1319 l 1
 584 1319 l 2
 604 1319 604 1344 604 1358 c 0
 604 1399 602 1421 555 1423 c 1
 532 1425 431 1425 408 1423 c 1
 401 1432 l 1
 401 1614 l 1
 338 1614 l 1
 295 1551 229 1487 176 1438 c 1
 174 1438 164 1432 162 1432 c 1
 162 1430 156 1423 156 1423 c 1
 123 1405 78 1393 78 1348 c 0
 78 1338 94 1323 98 1319 c 1
 190 1319 l 1
 229 1317 219 1260 219 1235 c 0
 219 1042 211 852 211 659 c 0
EndSplineSet
EndChar

StartChar: _59
Encoding: 65587 -1 68
Width: 1210
VWidth: 0
Flags: W
LayerCount: 2
Fore
SplineSet
61 434 m 2
 61 414 l 1
 76 399 l 1
 561 399 l 1
 561 399 567 410 567 414 c 2
 567 442 l 1
 567 469 l 1
 553 489 522 486 504 492 c 0
 443 510 408 542 406 610 c 1
 406 645 399 926 399 961 c 2
 399 1077 l 1
 399 1192 l 1
 407 1235 465 1256 498 1270 c 1
 582 1298 l 1
 625 1298 l 2
 662 1298 710 1303 743 1276 c 1
 766 1260 785 1239 799 1212 c 0
 803 1204 819 1177 819 1163 c 1
 821 1147 827 1083 827 1073 c 2
 827 582 l 2
 827 514 741 481 686 483 c 1
 680 477 l 1
 680 408 l 2
 680 406 694 399 700 399 c 2
 737 399 l 1
 784 399 l 1
 841 401 1106 406 1163 408 c 1
 1171 410 1171 414 1171 420 c 0
 1171 449 1174 484 1143 492 c 0
 1139 492 1104 498 1100 498 c 1
 1037 516 1020 588 1016 645 c 1
 1018 688 1018 889 1016 932 c 1
 1016 957 1010 1140 1010 1163 c 2
 1010 1221 l 1
 1008 1225 999 1260 995 1270 c 0
 991 1282 975 1297 981 1311 c 1
 915 1409 850 1454 729 1454 c 0
 604 1454 534 1393 434 1325 c 1
 432 1325 414 1311 410 1311 c 0
 406 1311 401 1313 399 1319 c 0
 397 1325 391 1350 391 1354 c 0
 391 1364 397 1407 399 1417 c 1
 399 1921 l 1
 401 1929 406 1964 406 1970 c 0
 406 1995 378 2001 362 2001 c 0
 358 2001 344 1999 342 1999 c 2
 119 1909 l 1
 94 1905 55 1899 55 1866 c 0
 55 1854 58 1837 70 1831 c 2
 188 1761 l 1
 196 1755 207 1743 209 1733 c 1
 209 1550 l 1
 211 1530 217 1366 217 1348 c 2
 217 1030 l 1
 217 715 l 2
 217 699 213 614 209 596 c 1
 209 588 199 559 195 555 c 1
 193 549 157 516 147 506 c 0
 145 504 135 500 133 498 c 1
 127 496 88 485 84 483 c 0
 59 475 61 457 61 434 c 2
371 1679 m 0
 375 1679 375 1673 371 1673 c 0
 367 1673 367 1679 371 1679 c 0
EndSplineSet
EndChar

StartChar: _60
Encoding: 65588 -1 69
Width: 929
VWidth: 0
Flags: W
LayerCount: 2
Fore
SplineSet
53 911 m 2
 53 858 52 796 68 743 c 0
 134 520 274 379 516 379 c 0
 678 379 770 473 874 582 c 0
 888 598 889 613 889 631 c 2
 889 651 l 1
 877 657 862 674 850 674 c 2
 846 674 l 1
 817 641 776 602 733 590 c 0
 708 582 629 561 621 561 c 1
 607 559 526 565 510 567 c 1
 496 571 428 596 412 604 c 0
 349 633 299 701 264 758 c 0
 262 760 258 770 256 772 c 1
 231 846 213 917 213 995 c 0
 213 1001 215 1026 215 1030 c 1
 223 1046 250 1044 264 1044 c 0
 344 1044 424 1038 504 1038 c 0
 629 1038 749 1048 874 1044 c 1
 882 1046 881 1061 881 1065 c 0
 881 1081 876 1094 874 1108 c 0
 872 1118 868 1149 866 1151 c 1
 850 1206 817 1258 782 1305 c 0
 774 1317 735 1362 727 1368 c 0
 668 1419 570 1452 494 1452 c 0
 355 1452 289 1413 193 1311 c 0
 185 1303 160 1274 158 1270 c 0
 103 1174 59 1080 53 969 c 1
 53 911 l 2
227 1135 m 0
 227 1172 248 1210 264 1241 c 0
 270 1253 295 1292 299 1298 c 0
 330 1335 418 1362 461 1362 c 0
 465 1362 479 1362 481 1360 c 1
 571 1342 616 1272 649 1192 c 0
 655 1180 664 1147 664 1137 c 0
 664 1117 633 1116 621 1116 c 2
 242 1116 l 2
 226 1116 227 1125 227 1135 c 0
EndSplineSet
EndChar

StartChar: _61
Encoding: 65589 -1 70
Width: 980
VWidth: 0
Flags: W
LayerCount: 2
Fore
SplineSet
74 926 m 0
 74 736 106 586 256 463 c 0
 287 438 321 426 354 408 c 0
 360 404 379 393 383 393 c 1
 430 377 477 365 530 365 c 0
 550 365 580 375 600 379 c 0
 604 379 637 385 641 385 c 0
 666 391 685 408 705 414 c 0
 707 414 717 420 719 420 c 1
 729 428 760 447 762 449 c 0
 772 459 836 523 852 541 c 1
 872 561 901 596 901 627 c 2
 901 639 l 1
 899 643 878 662 872 666 c 1
 872 668 868 668 866 668 c 0
 864 668 860 668 860 666 c 1
 792 586 696 553 594 553 c 0
 582 553 553 553 551 555 c 1
 545 555 512 565 502 567 c 1
 500 569 496 575 494 575 c 0
 492 575 463 582 459 582 c 1
 350 629 285 725 250 836 c 0
 246 846 236 891 236 897 c 0
 236 901 233 955 233 975 c 0
 233 995 236 1049 236 1053 c 0
 236 1061 246 1110 250 1122 c 0
 285 1247 379 1360 518 1360 c 0
 594 1360 666 1336 705 1270 c 1
 734 1223 729 1143 803 1143 c 0
 873 1143 885 1184 901 1241 c 1
 901 1245 l 2
 901 1290 873 1345 838 1374 c 0
 815 1394 785 1417 754 1423 c 1
 742 1427 635 1450 621 1452 c 1
 611 1452 520 1446 508 1444 c 1
 494 1444 l 1
 469 1438 357 1399 334 1389 c 1
 322 1385 268 1349 256 1339 c 0
 193 1288 156 1231 123 1157 c 1
 90 1079 74 1010 74 926 c 0
438 621 m 0
 434 621 434 614 438 614 c 0
 442 614 442 621 438 621 c 0
629 979 m 0
 625 979 625 971 629 971 c 0
 631 971 631 979 629 979 c 0
846 1827 m 0
 842 1827 842 1821 846 1821 c 0
 848 1821 848 1827 846 1827 c 0
EndSplineSet
EndChar

StartChar: _62
Encoding: 65590 -1 71
Width: 956
VWidth: 0
Flags: W
LayerCount: 2
Fore
SplineSet
53 621 m 1
 53 616 l 1
 57 600 72 547 74 541 c 0
 76 535 86 516 88 512 c 0
 135 444 209 391 293 391 c 0
 342 391 403 399 446 428 c 0
 464 440 547 500 565 512 c 1
 571 512 l 2
 596 512 627 417 670 399 c 0
 690 391 704 393 727 393 c 0
 780 393 825 405 866 442 c 0
 876 450 901 475 901 477 c 2
 901 567 l 2
 901 577 889 575 885 575 c 0
 862 575 842 557 817 555 c 1
 792 551 768 605 768 625 c 0
 768 666 762 862 762 905 c 0
 762 909 768 934 768 940 c 2
 768 944 l 2
 768 967 762 987 762 1012 c 0
 762 1022 760 1030 768 1038 c 1
 768 1192 l 2
 768 1196 762 1217 762 1221 c 2
 762 1241 l 1
 754 1298 733 1335 692 1374 c 0
 616 1444 563 1452 459 1452 c 0
 391 1452 323 1440 264 1409 c 1
 211 1384 148 1351 117 1298 c 0
 111 1286 90 1237 88 1227 c 0
 88 1225 86 1196 86 1186 c 0
 86 1147 101 1051 156 1051 c 0
 160 1051 172 1053 172 1053 c 2
 180 1055 240 1079 256 1087 c 0
 279 1097 299 1116 299 1141 c 2
 299 1151 l 2
 299 1153 289 1172 285 1178 c 0
 281 1186 256 1227 250 1235 c 1
 250 1241 l 2
 250 1259 262 1284 270 1298 c 1
 301 1345 353 1354 406 1354 c 0
 420 1354 459 1356 473 1348 c 0
 477 1346 521 1310 537 1298 c 0
 584 1259 580 1138 580 1087 c 2
 580 1030 l 1
 519 993 443 983 377 954 c 0
 350 942 228 882 201 870 c 1
 193 864 151 833 145 827 c 1
 137 821 113 797 109 793 c 1
 105 787 78 735 74 729 c 1
 74 727 70 723 68 723 c 1
 66 709 55 639 53 625 c 1
 53 621 l 1
250 680 m 0
 250 723 264 776 305 799 c 2
 516 920 l 2
 530 928 543 928 559 928 c 0
 561 928 571 926 571 926 c 1
 580 905 l 1
 580 645 l 2
 580 643 559 618 551 610 c 0
 510 567 448 541 389 541 c 2
 377 541 l 1
 363 545 319 563 313 567 c 1
 307 573 272 613 264 625 c 0
 250 645 250 657 250 680 c 0
698 1675 m 1
 698 1669 l 1
 705 1669 l 1
 698 1675 l 1
EndSplineSet
EndChar

StartChar: _63
Encoding: 65591 -1 72
Width: 778
VWidth: 0
Flags: W
LayerCount: 2
Fore
SplineSet
61 700 m 2
 61 680 l 1
 65 619 76 471 76 469 c 1
 98 449 l 2
 100 447 178 407 209 393 c 0
 262 368 303 365 360 365 c 0
 557 365 723 461 723 672 c 0
 723 680 723 700 721 700 c 1
 686 933 437 975 281 1102 c 1
 248 1127 217 1167 217 1210 c 2
 217 1212 l 1
 227 1255 244 1323 293 1339 c 0
 322 1349 358 1354 389 1354 c 0
 485 1354 559 1251 588 1171 c 0
 590 1167 600 1126 602 1122 c 0
 604 1114 621 1108 627 1108 c 0
 639 1108 660 1110 666 1122 c 1
 676 1167 674 1217 674 1262 c 0
 674 1276 674 1334 672 1348 c 0
 672 1350 661 1360 659 1360 c 1
 587 1405 516 1422 434 1432 c 0
 430 1432 389 1438 385 1438 c 0
 279 1434 155 1405 98 1305 c 1
 73 1266 55 1223 55 1176 c 0
 55 1121 76 1055 111 1010 c 1
 125 994 174 944 182 940 c 2
 434 793 l 2
 440 789 486 753 498 743 c 1
 553 688 l 1
 569 670 567 636 567 616 c 0
 567 485 492 442 371 442 c 0
 267 442 195 555 160 639 c 1
 154 651 l 1
 150 676 151 706 139 729 c 0
 133 741 123 737 113 737 c 0
 86 737 61 731 61 700 c 2
573 1606 m 1
 569 1608 569 1597 573 1599 c 1
 577 1599 577 1606 573 1606 c 1
EndSplineSet
EndChar

StartChar: _64
Encoding: 65592 -1 73
Width: 999
VWidth: 0
Flags: W
LayerCount: 2
Fore
SplineSet
78 918 m 0
 78 902 80 858 80 856 c 0
 82 838 90 759 94 743 c 0
 125 583 248 432 410 393 c 0
 418 391 492 381 500 379 c 0
 504 379 526 373 528 373 c 2
 532 373 l 1
 537 373 l 1
 572 377 660 391 662 393 c 1
 705 405 745 436 780 463 c 0
 782 465 801 475 803 477 c 0
 819 491 879 551 887 561 c 0
 903 579 922 606 922 633 c 0
 922 653 902 670 879 674 c 1
 871 674 854 655 852 651 c 1
 848 649 827 620 823 616 c 1
 764 577 680 561 612 561 c 0
 364 561 242 766 242 993 c 0
 242 1007 248 1038 268 1038 c 2
 879 1038 l 2
 891 1038 907 1045 907 1059 c 0
 907 1067 903 1106 901 1116 c 1
 899 1116 893 1120 893 1122 c 0
 893 1124 895 1147 893 1151 c 0
 877 1212 838 1272 795 1319 c 0
 707 1415 627 1446 500 1446 c 0
 439 1446 387 1438 332 1403 c 0
 322 1397 268 1358 256 1348 c 0
 225 1323 202 1286 184 1255 c 0
 121 1144 78 1045 78 918 c 0
256 1116 m 0
 254 1118 254 1131 254 1133 c 0
 254 1137 254 1149 256 1151 c 1
 274 1237 332 1315 416 1348 c 0
 418 1348 467 1358 487 1360 c 1
 489 1360 l 2
 493 1360 537 1356 543 1354 c 0
 545 1354 549 1348 549 1348 c 1
 557 1342 615 1296 621 1290 c 0
 625 1286 643 1257 647 1249 c 0
 653 1239 678 1183 684 1171 c 0
 688 1161 690 1147 690 1135 c 0
 690 1125 688 1122 676 1116 c 1
 416 1116 l 1
 408 1114 327 1108 317 1108 c 2
 295 1108 l 2
 281 1108 270 1106 256 1116 c 0
EndSplineSet
EndChar

StartChar: _65
Encoding: 65593 -1 74
Width: 823
VWidth: 0
Flags: W
LayerCount: 2
Fore
SplineSet
94 469 m 1
 96 467 107 457 109 457 c 1
 189 406 291 365 387 365 c 2
 424 365 l 2
 426 365 442 371 444 373 c 1
 454 373 527 383 537 385 c 0
 543 387 592 412 606 420 c 0
 698 475 748 570 748 676 c 0
 748 684 747 715 745 723 c 1
 735 737 741 756 731 772 c 1
 723 788 694 842 690 848 c 0
 688 852 670 871 662 877 c 0
 652 885 602 926 592 932 c 0
 557 950 402 1035 367 1053 c 1
 314 1084 248 1142 248 1210 c 2
 248 1241 l 1
 250 1253 270 1303 276 1311 c 1
 307 1331 319 1346 360 1354 c 0
 372 1356 412 1362 416 1360 c 1
 420 1360 451 1350 459 1348 c 1
 527 1315 571 1260 598 1192 c 0
 600 1188 610 1149 612 1143 c 0
 614 1137 625 1116 627 1116 c 1
 633 1110 647 1108 655 1108 c 0
 665 1108 686 1110 690 1122 c 0
 692 1128 696 1159 696 1163 c 1
 698 1167 698 1230 698 1255 c 0
 698 1269 698 1334 696 1348 c 1
 684 1362 673 1376 655 1382 c 0
 577 1409 508 1438 424 1438 c 0
 363 1438 303 1434 248 1409 c 1
 154 1370 78 1277 78 1171 c 0
 78 1095 115 1032 164 975 c 1
 199 940 l 1
 522 743 l 1
 526 739 561 706 571 694 c 0
 589 671 592 639 592 610 c 0
 592 489 514 440 401 440 c 0
 358 440 330 446 297 477 c 0
 283 491 237 535 233 541 c 0
 225 551 197 600 193 610 c 0
 187 628 166 711 164 729 c 0
 162 739 145 737 139 737 c 0
 125 737 94 739 86 723 c 1
 86 680 l 1
 86 639 l 1
 88 612 92 496 94 469 c 1
EndSplineSet
EndChar

StartChar: _66
Encoding: 65594 -1 75
Width: 1234
VWidth: 0
Flags: W
LayerCount: 2
Fore
SplineSet
236 590 m 1
 244 547 247 523 276 492 c 0
 286 482 330 436 340 428 c 0
 387 385 453 379 512 379 c 0
 623 379 686 424 774 483 c 0
 794 497 806 514 831 518 c 1
 831 377 l 1
 845 377 883 375 901 385 c 1
 1104 420 l 1
 1110 418 1135 418 1139 420 c 0
 1164 430 1167 457 1167 477 c 0
 1167 483 1169 526 1153 526 c 2
 1069 526 l 2
 1067 526 1046 537 1040 541 c 0
 1020 555 1014 567 1014 596 c 2
 1014 1348 l 1
 1020 1373 1022 1388 1022 1413 c 0
 1022 1423 1022 1444 1004 1444 c 2
 999 1444 l 1
 981 1442 829 1425 809 1423 c 1
 774 1423 l 2
 743 1423 670 1417 670 1417 c 1
 655 1403 l 1
 655 1401 660 1362 664 1348 c 1
 664 1344 668 1335 670 1333 c 1
 733 1323 823 1317 831 1235 c 1
 831 1186 l 2
 831 1153 838 883 838 848 c 2
 838 743 l 1
 838 639 l 2
 838 635 833 627 831 625 c 0
 768 553 682 526 588 526 c 0
 477 526 416 621 410 723 c 1
 410 920 l 1
 410 1116 l 2
 410 1124 416 1198 418 1206 c 1
 418 1227 l 1
 418 1249 l 1
 416 1276 412 1409 410 1438 c 1
 383 1438 l 1
 354 1438 l 2
 348 1438 297 1432 291 1432 c 0
 221 1426 152 1421 80 1417 c 1
 72 1411 59 1396 59 1386 c 0
 59 1368 64 1347 74 1333 c 1
 142 1327 196 1313 221 1241 c 1
 219 1175 219 867 221 799 c 0
 221 768 232 621 236 590 c 1
1028 1176 m 0
 1024 1176 1024 1167 1028 1167 c 0
 1030 1167 1030 1176 1028 1176 c 0
EndSplineSet
EndChar

StartChar: _67
Encoding: 65595 -1 76
Width: 1234
VWidth: 0
Flags: W
LayerCount: 2
Fore
SplineSet
537 6 m 1
 543 4 572 0 578 0 c 0
 605 0 614 18 614 41 c 0
 614 57 615 80 592 84 c 0
 586 86 528 90 522 92 c 0
 491 98 456 133 444 162 c 0
 426 209 430 262 430 311 c 2
 430 373 l 1
 434 393 439 401 459 401 c 0
 461 401 471 399 473 399 c 0
 479 399 531 387 537 385 c 0
 584 377 602 379 649 379 c 0
 686 379 704 377 739 385 c 1
 757 391 840 416 858 420 c 1
 864 432 889 438 893 442 c 1
 913 454 967 488 971 492 c 0
 1077 582 1153 768 1153 903 c 0
 1153 1020 1139 1121 1090 1227 c 1
 1080 1233 1081 1245 1075 1255 c 0
 1073 1259 1038 1305 1026 1319 c 0
 1008 1342 998 1360 971 1374 c 1
 942 1392 864 1436 858 1438 c 0
 854 1440 776 1450 745 1452 c 1
 727 1452 l 2
 661 1452 573 1415 522 1374 c 0
 493 1351 465 1319 430 1305 c 1
 422 1319 424 1332 424 1346 c 0
 424 1369 430 1387 430 1407 c 0
 430 1436 428 1452 399 1452 c 2
 381 1452 l 1
 346 1440 185 1380 150 1368 c 0
 146 1366 104 1345 94 1339 c 0
 78 1331 78 1308 78 1294 c 0
 78 1290 80 1276 80 1276 c 1
 82 1274 105 1264 109 1262 c 0
 111 1262 127 1249 129 1249 c 0
 143 1241 213 1206 227 1200 c 1
 233 1192 l 1
 229 973 248 754 248 535 c 0
 248 418 238 309 242 188 c 1
 240 147 207 108 164 98 c 1
 129 98 l 1
 80 94 78 80 78 35 c 0
 78 29 80 14 80 14 c 1
 86 6 l 1
 537 6 l 1
670 172 m 0
 666 172 666 164 670 164 c 0
 672 164 672 172 670 172 c 0
494 532 m 0
 484 546 450 617 444 631 c 0
 442 637 432 700 430 723 c 0
 420 815 422 914 422 1006 c 0
 422 1029 424 1128 424 1151 c 1
 416 1229 574 1276 635 1276 c 0
 668 1276 745 1269 774 1255 c 1
 919 1177 985 1010 985 850 c 0
 985 776 967 717 942 645 c 1
 942 639 l 2
 942 635 913 589 901 575 c 0
 887 559 831 504 823 498 c 0
 815 492 761 467 745 463 c 1
 729 463 l 2
 661 463 606 478 543 498 c 0
 541 498 530 504 528 506 c 1
 522 508 498 528 494 532 c 0
100 1188 m 0
 98 1188 98 1182 100 1182 c 0
 104 1182 104 1188 100 1188 c 0
340 1468 m 0
 336 1468 336 1462 340 1462 c 0
 342 1462 342 1468 340 1468 c 0
EndSplineSet
EndChar

StartChar: _68
Encoding: 65596 -1 77
Width: 638
VWidth: 0
Flags: W
LayerCount: 2
Fore
SplineSet
182 610 m 1
 184 598 188 538 188 526 c 2
 188 518 l 1
 196 502 215 453 217 449 c 0
 219 445 254 411 266 399 c 1
 274 393 301 387 309 385 c 1
 334 383 372 379 401 379 c 2
 414 379 l 1
 567 414 l 1
 582 428 l 1
 582 506 l 1
 575 518 l 1
 557 520 473 524 457 526 c 0
 432 528 415 547 399 561 c 0
 389 569 379 590 379 604 c 2
 379 1290 l 2
 379 1308 390 1319 408 1319 c 2
 575 1319 l 1
 582 1325 l 1
 582 1327 584 1350 584 1356 c 0
 584 1368 582 1401 582 1403 c 0
 582 1411 577 1427 575 1427 c 2
 379 1427 l 1
 379 1599 l 2
 379 1617 356 1620 344 1620 c 0
 276 1620 238 1522 197 1487 c 0
 187 1479 158 1454 154 1452 c 0
 127 1432 83 1418 63 1389 c 0
 51 1371 49 1364 49 1346 c 2
 49 1333 l 1
 51 1327 61 1315 63 1315 c 2
 182 1315 l 2
 184 1315 188 1302 188 1298 c 0
 188 1296 190 1284 190 1278 c 0
 190 1274 188 1257 188 1255 c 0
 188 1239 182 1110 182 1094 c 2
 182 852 l 1
 182 610 l 1
84 1141 m 0
 80 1141 80 1133 84 1133 c 0
 88 1133 88 1141 84 1141 c 0
EndSplineSet
EndChar

StartChar: _69
Encoding: 65597 -1 78
Width: 1048
VWidth: 0
Flags: W
LayerCount: 2
Fore
SplineSet
803 375 m 0
 801 375 801 369 803 369 c 0
 807 369 807 375 803 375 c 0
270 457 m 0
 344 404 428 385 516 385 c 0
 641 385 811 463 881 567 c 1
 953 676 993 807 993 936 c 0
 993 1131 926 1301 754 1403 c 0
 740 1411 665 1446 649 1452 c 1
 633 1450 616 1456 600 1458 c 0
 584 1460 530 1466 522 1466 c 0
 518 1466 485 1460 481 1458 c 0
 479 1458 463 1460 461 1458 c 1
 451 1458 422 1452 418 1452 c 1
 330 1425 241 1383 180 1311 c 0
 166 1293 112 1198 102 1178 c 0
 100 1174 86 1134 82 1122 c 0
 80 1118 76 1098 74 1094 c 1
 70 1061 55 952 53 940 c 1
 53 901 l 2
 53 864 53 813 59 778 c 0
 63 758 84 690 88 680 c 0
 96 662 146 583 158 567 c 1
 174 549 252 471 270 457 c 0
264 891 m 0
 262 901 256 951 256 961 c 2
 256 1001 l 2
 256 1120 268 1299 403 1348 c 1
 419 1352 469 1366 473 1368 c 1
 506 1368 l 2
 559 1368 588 1356 629 1319 c 0
 639 1309 684 1263 692 1255 c 0
 694 1253 705 1237 705 1235 c 0
 719 1200 768 1039 776 1004 c 1
 776 998 791 856 797 799 c 1
 797 788 l 2
 797 737 788 682 776 631 c 1
 751 537 696 508 608 483 c 1
 588 479 579 477 561 477 c 0
 520 477 459 495 426 526 c 0
 410 540 364 584 362 590 c 1
 356 598 332 652 328 666 c 0
 316 701 272 856 264 891 c 0
762 1610 m 0
 758 1610 758 1604 762 1604 c 0
 766 1604 766 1610 762 1610 c 0
397 1708 m 0
 393 1708 393 1700 397 1700 c 0
 401 1700 401 1708 397 1708 c 0
EndSplineSet
EndChar

StartChar: _70
Encoding: 65598 -1 79
Width: 1009
VWidth: 0
Flags: W
LayerCount: 2
Fore
SplineSet
78 133 m 0
 78 41 190 20 262 20 c 2
 276 20 l 1
 368 28 469 37 557 70 c 0
 739 140 922 334 922 539 c 2
 922 582 l 1
 920 600 905 674 901 688 c 0
 868 788 784 848 696 897 c 0
 694 899 666 909 662 911 c 0
 660 913 633 926 633 936 c 0
 633 938 635 940 635 940 c 2
 635 942 645 952 647 954 c 0
 692 979 757 999 788 1044 c 0
 796 1056 832 1116 838 1128 c 0
 840 1134 850 1165 852 1171 c 1
 854 1189 858 1247 858 1255 c 1
 856 1267 837 1336 829 1354 c 0
 827 1360 809 1389 803 1397 c 1
 787 1413 712 1487 696 1501 c 1
 639 1532 585 1544 522 1550 c 1
 496 1550 l 1
 473 1550 l 1
 455 1548 364 1532 346 1530 c 1
 291 1507 268 1477 227 1444 c 0
 223 1442 195 1425 193 1423 c 0
 162 1400 123 1356 123 1315 c 0
 123 1288 151 1262 178 1262 c 0
 180 1262 191 1268 193 1270 c 0
 195 1272 217 1294 219 1298 c 1
 282 1343 352 1382 430 1382 c 0
 479 1382 559 1366 592 1325 c 0
 629 1278 655 1235 655 1176 c 0
 655 1098 623 1032 557 989 c 0
 500 952 458 929 395 911 c 0
 383 907 280 887 268 885 c 1
 239 875 219 854 219 823 c 0
 219 768 258 780 305 778 c 0
 315 778 406 772 416 772 c 2
 438 772 l 1
 446 770 520 752 528 750 c 1
 537 750 l 1
 615 721 664 666 705 596 c 1
 705 594 717 577 719 575 c 1
 725 546 725 506 725 473 c 0
 725 373 703 283 621 217 c 0
 619 215 588 201 578 197 c 0
 574 195 559 190 557 188 c 1
 551 188 471 178 444 176 c 1
 440 176 l 1
 438 176 l 2
 415 176 356 182 354 182 c 0
 336 184 306 199 283 203 c 1
 276 203 l 1
 241 215 215 233 178 233 c 0
 145 233 120 224 100 197 c 0
 96 191 90 168 80 162 c 1
 80 158 78 137 78 133 c 0
EndSplineSet
EndChar

StartChar: _71
Encoding: 65599 -1 80
Width: 1073
VWidth: 0
Flags: W
LayerCount: 2
Fore
SplineSet
68 979 m 0
 68 905 61 815 88 743 c 0
 96 723 146 615 160 590 c 0
 187 539 215 510 256 477 c 0
 342 409 431 385 535 385 c 0
 682 385 867 461 930 604 c 1
 973 694 1001 777 1001 879 c 0
 1001 1131 854 1348 584 1348 c 0
 492 1348 408 1311 328 1270 c 1
 322 1270 l 1
 322 1313 339 1345 362 1382 c 0
 370 1396 406 1452 412 1458 c 1
 492 1567 596 1663 707 1739 c 1
 770 1784 858 1829 930 1860 c 1
 930 1860 932 1864 932 1866 c 0
 932 1893 861 1929 838 1929 c 0
 797 1929 756 1910 719 1894 c 1
 656 1863 600 1833 545 1796 c 0
 516 1776 417 1708 403 1698 c 0
 401 1696 385 1679 383 1675 c 1
 379 1671 354 1653 348 1649 c 1
 207 1487 l 1
 207 1483 197 1462 195 1458 c 1
 191 1454 162 1409 160 1403 c 0
 92 1258 68 1139 68 979 c 0
299 758 m 1
 289 844 279 924 279 1008 c 2
 279 1038 l 2
 279 1050 283 1110 285 1122 c 1
 320 1185 451 1206 514 1206 c 2
 545 1206 l 1
 557 1204 611 1190 623 1186 c 1
 629 1174 649 1169 657 1163 c 0
 682 1145 711 1106 727 1079 c 0
 776 997 782 913 782 821 c 0
 782 700 766 596 664 518 c 1
 627 491 592 483 549 483 c 0
 520 483 494 484 467 492 c 0
 393 512 351 605 328 666 c 0
 322 680 303 744 299 758 c 1
487 1827 m 0
 485 1827 485 1821 487 1821 c 0
 491 1821 491 1827 487 1827 c 0
524 1862 m 0
 520 1862 520 1855 524 1855 c 0
 526 1855 526 1862 524 1862 c 0
EndSplineSet
EndChar

StartChar: _72
Encoding: 65600 -1 81
Width: 1234
VWidth: 0
Flags: W
LayerCount: 2
Fore
SplineSet
80 53 m 0
 80 45 80 6 94 6 c 2
 612 6 l 1
 612 78 l 1
 612 78 608 84 606 84 c 1
 604 86 588 90 586 92 c 1
 578 92 522 102 514 104 c 0
 428 131 430 237 430 309 c 2
 430 379 l 1
 436 397 443 401 463 401 c 0
 467 401 479 399 479 399 c 2
 491 397 545 383 557 379 c 1
 569 379 625 377 637 377 c 0
 741 377 819 398 907 449 c 0
 911 451 946 467 950 469 c 1
 1044 547 1100 647 1133 764 c 1
 1137 784 1151 848 1153 856 c 1
 1153 897 l 2
 1153 1106 1097 1300 907 1409 c 1
 899 1415 870 1430 866 1432 c 0
 833 1442 776 1446 741 1446 c 0
 716 1446 701 1446 676 1438 c 0
 651 1430 573 1401 563 1397 c 1
 557 1393 512 1362 500 1354 c 1
 498 1350 469 1321 465 1319 c 1
 461 1315 436 1300 430 1298 c 1
 428 1304 424 1333 424 1339 c 0
 422 1355 422 1430 424 1444 c 1
 420 1448 399 1452 395 1452 c 0
 383 1452 372 1442 360 1438 c 0
 317 1422 276 1411 233 1397 c 1
 200 1385 170 1366 135 1354 c 0
 129 1352 102 1347 94 1339 c 1
 84 1331 86 1317 86 1307 c 0
 86 1276 118 1261 143 1249 c 1
 151 1243 219 1210 227 1206 c 0
 229 1204 240 1196 242 1192 c 1
 238 950 250 711 250 467 c 0
 250 367 250 274 242 176 c 1
 226 135 195 106 150 98 c 0
 111 92 80 106 80 53 c 0
424 1137 m 0
 424 1143 430 1172 430 1178 c 1
 432 1184 436 1198 438 1200 c 0
 440 1202 459 1217 465 1221 c 0
 520 1254 572 1278 635 1278 c 0
 879 1278 985 1059 985 842 c 0
 985 803 987 797 977 758 c 1
 973 738 961 717 965 694 c 1
 920 590 844 463 715 463 c 0
 604 463 508 496 459 596 c 0
 455 606 438 645 438 651 c 1
 436 657 438 696 438 700 c 1
 436 706 430 746 430 750 c 2
 430 799 l 2
 430 850 424 1086 424 1137 c 0
EndSplineSet
EndChar

StartChar: _73
Encoding: 65601 -1 82
Width: 1028
VWidth: 0
Flags: W
LayerCount: 2
Fore
SplineSet
369 4 m 0
 365 4 365 -4 369 -4 c 0
 371 -4 371 4 369 4 c 0
586 117 m 0
 582 117 582 109 586 109 c 0
 588 109 588 117 586 117 c 0
45 885 m 0
 45 791 55 709 100 625 c 1
 110 609 146 553 150 547 c 1
 160 537 237 462 262 442 c 0
 297 413 352 389 395 379 c 0
 436 369 459 371 502 371 c 0
 543 371 582 369 621 385 c 0
 654 399 741 440 745 442 c 0
 751 444 797 480 809 492 c 1
 817 498 846 526 852 532 c 1
 866 555 926 663 936 688 c 1
 942 700 965 788 971 813 c 1
 977 848 979 899 979 936 c 0
 979 1012 959 1079 936 1151 c 1
 932 1159 917 1194 915 1200 c 1
 831 1341 684 1446 516 1446 c 0
 446 1446 385 1430 319 1403 c 1
 174 1348 98 1198 59 1059 c 1
 61 1043 53 1026 51 1010 c 0
 47 969 45 926 45 885 c 0
297 700 m 1
 248 891 l 1
 252 932 242 971 242 1014 c 0
 242 1147 262 1259 381 1333 c 0
 385 1335 410 1344 418 1348 c 1
 428 1350 484 1364 494 1368 c 1
 598 1339 672 1261 711 1163 c 1
 713 1161 717 1132 719 1128 c 0
 721 1120 743 1052 745 1044 c 0
 747 1040 758 981 760 961 c 1
 764 936 760 905 774 885 c 1
 774 694 l 2
 774 686 760 620 754 604 c 0
 752 596 727 546 719 532 c 1
 705 518 l 1
 685 506 625 471 621 469 c 0
 607 465 542 455 528 457 c 0
 526 457 483 471 465 477 c 0
 430 489 398 530 375 555 c 0
 346 586 335 604 319 645 c 0
 311 663 309 684 297 700 c 1
EndSplineSet
EndChar

StartChar: _74
Encoding: 65602 -1 83
Width: 673
VWidth: 0
Flags: W
LayerCount: 2
Fore
SplineSet
94 385 m 1
 246 389 397 379 547 379 c 2
 586 379 l 1
 602 389 600 408 600 424 c 2
 600 449 l 1
 573 484 536 465 516 483 c 1
 473 526 l 1
 469 532 455 567 453 575 c 0
 451 587 444 647 446 659 c 1
 444 702 444 903 444 946 c 0
 444 1022 444 1223 446 1235 c 1
 446 1249 453 1366 453 1382 c 2
 453 1401 l 2
 453 1430 445 1438 418 1438 c 2
 397 1438 l 1
 297 1405 215 1372 117 1339 c 1
 109 1335 102 1325 102 1315 c 0
 102 1288 123 1274 143 1262 c 1
 159 1254 240 1208 256 1200 c 1
 262 1171 l 2
 264 1165 264 1098 264 1075 c 0
 264 1042 264 944 262 932 c 1
 262 877 252 616 250 561 c 1
 232 500 178 487 123 477 c 0
 109 475 100 483 88 469 c 1
 74 455 74 442 74 426 c 0
 74 410 74 389 94 385 c 1
109 971 m 0
 105 971 105 965 109 965 c 0
 113 965 113 971 109 971 c 0
221 1880 m 0
 221 1839 231 1775 276 1761 c 0
 296 1755 314 1747 334 1747 c 2
 340 1747 l 1
 356 1749 399 1759 403 1761 c 0
 438 1773 453 1818 459 1851 c 2
 459 1851 461 1860 461 1862 c 0
 461 1864 459 1872 459 1872 c 2
 445 1946 414 1993 334 1993 c 0
 273 1993 221 1943 221 1880 c 0
EndSplineSet
EndChar

StartChar: _75
Encoding: 65603 -1 84
Width: 1187
VWidth: 0
Flags: W
LayerCount: 2
Fore
SplineSet
39 414 m 0
 39 400 43 389 59 385 c 0
 71 383 117 379 123 379 c 0
 127 379 148 383 152 385 c 1
 164 385 224 387 236 387 c 0
 330 387 426 379 520 379 c 0
 551 379 551 399 551 424 c 0
 551 447 549 469 522 477 c 0
 516 479 465 490 459 492 c 0
 420 506 389 555 389 596 c 2
 389 1024 l 1
 385 1044 383 1051 383 1065 c 2
 383 1073 l 2
 383 1091 389 1174 389 1192 c 1
 448 1260 535 1290 623 1290 c 0
 662 1290 712 1288 739 1255 c 1
 782 1206 799 1174 803 1108 c 1
 803 1044 l 1
 805 1017 809 805 811 778 c 1
 811 756 l 2
 811 701 807 641 803 590 c 0
 795 469 655 477 655 463 c 2
 655 399 l 1
 670 385 l 1
 678 387 719 387 727 385 c 0
 729 385 752 379 754 379 c 0
 762 379 797 383 803 385 c 1
 1141 385 l 1
 1147 393 l 1
 1147 393 1149 410 1149 416 c 0
 1149 504 1096 451 1049 498 c 0
 1002 545 1001 582 999 645 c 1
 999 696 993 1112 993 1163 c 2
 993 1178 l 2
 993 1180 987 1198 985 1200 c 1
 985 1206 975 1258 971 1262 c 1
 961 1297 929 1335 909 1360 c 0
 901 1370 870 1401 866 1403 c 0
 809 1442 754 1438 684 1444 c 1
 684 1444 678 1446 676 1446 c 0
 664 1446 657 1444 643 1438 c 1
 629 1434 590 1419 586 1417 c 0
 566 1405 475 1358 459 1348 c 1
 451 1340 405 1306 397 1298 c 1
 383 1298 l 1
 383 1335 391 1372 391 1411 c 0
 391 1417 389 1430 389 1432 c 1
 383 1438 l 1
 334 1438 l 1
 186 1382 l 1
 161 1357 39 1336 39 1305 c 0
 39 1297 55 1280 59 1276 c 1
 193 1192 l 1
 195 1192 199 1108 201 1073 c 1
 201 827 l 1
 209 798 207 781 207 752 c 0
 207 709 207 678 201 631 c 0
 191 559 172 494 94 469 c 0
 92 469 70 471 68 469 c 1
 41 465 39 434 39 414 c 0
467 1931 m 0
 463 1931 463 1925 467 1925 c 0
 471 1925 471 1931 467 1931 c 0
EndSplineSet
EndChar

StartChar: _76
Encoding: 65604 -1 85
Width: 655
VWidth: 0
Flags: W
LayerCount: 2
Fore
SplineSet
221 428 m 1
 282 358 320 365 408 365 c 2
 467 365 l 1
 475 367 545 385 565 393 c 1
 573 395 594 408 594 420 c 2
 594 498 l 1
 580 506 l 1
 508 502 430 489 389 561 c 1
 389 581 383 674 383 694 c 0
 383 717 381 967 381 1053 c 0
 381 1110 383 1272 383 1284 c 1
 389 1298 l 1
 580 1298 l 2
 584 1298 594 1319 594 1319 c 1
 594 1350 l 2
 594 1368 598 1391 580 1403 c 1
 521 1413 446 1411 389 1409 c 1
 383 1417 l 1
 383 1585 l 2
 383 1599 350 1599 344 1599 c 0
 328 1599 315 1597 305 1585 c 0
 301 1579 268 1534 264 1530 c 0
 250 1514 186 1456 172 1444 c 1
 158 1434 84 1384 68 1374 c 1
 54 1360 51 1345 51 1327 c 0
 51 1323 53 1313 53 1311 c 1
 68 1300 l 1
 180 1300 l 2
 182 1300 193 1288 193 1284 c 2
 193 1274 l 1
 193 1262 l 2
 193 1248 186 1124 186 1108 c 2
 186 827 l 1
 186 547 l 1
 188 508 207 461 221 428 c 1
EndSplineSet
EndChar

StartChar: _77
Encoding: 65605 -1 86
Width: 507
VWidth: 0
Flags: W
LayerCount: 2
Fore
SplineSet
25 51 m 0
 25 35 23 26 39 14 c 1
 68 14 l 2
 160 14 221 29 299 84 c 1
 344 119 389 160 418 211 c 1
 428 231 459 291 459 295 c 1
 461 299 475 387 481 420 c 1
 481 428 l 2
 481 489 467 537 444 596 c 1
 428 643 402 668 369 709 c 0
 340 744 287 752 246 752 c 0
 162 752 121 737 88 659 c 1
 88 653 86 622 86 616 c 0
 86 567 96 537 137 506 c 1
 143 500 164 487 164 487 c 1
 270 487 l 2
 272 487 293 475 299 469 c 0
 326 444 334 408 334 373 c 0
 334 303 319 245 276 188 c 1
 256 168 l 1
 252 166 198 141 178 133 c 1
 176 131 162 127 158 127 c 0
 119 117 78 118 39 104 c 1
 21 100 25 65 25 51 c 0
EndSplineSet
EndChar

StartChar: _78
Encoding: 65606 -1 87
Width: 1024
VWidth: 0
Flags: W
LayerCount: 2
Fore
SplineSet
84 643 m 0
 84 524 146 446 252 393 c 0
 272 383 306 385 326 385 c 0
 432 385 512 438 596 506 c 1
 602 506 l 1
 620 461 645 439 680 408 c 0
 703 388 727 385 754 385 c 0
 826 385 879 408 926 463 c 0
 928 465 932 475 932 477 c 2
 932 561 l 2
 932 569 919 569 915 569 c 0
 892 569 881 553 856 553 c 0
 848 553 827 551 821 561 c 1
 817 565 807 584 807 590 c 1
 803 602 793 662 793 674 c 0
 793 678 791 721 791 735 c 0
 791 745 793 776 793 778 c 2
 799 793 l 1
 797 818 793 936 793 961 c 0
 793 971 799 1043 799 1053 c 2
 799 1055 l 1
 799 1059 l 2
 799 1075 793 1211 793 1227 c 0
 793 1247 794 1264 784 1284 c 0
 759 1335 729 1378 680 1409 c 0
 674 1413 635 1428 625 1432 c 1
 607 1436 522 1450 504 1452 c 1
 498 1450 469 1446 463 1444 c 0
 461 1444 451 1446 449 1444 c 1
 424 1440 344 1425 336 1423 c 0
 311 1417 301 1401 281 1389 c 0
 273 1385 211 1352 203 1348 c 1
 154 1313 115 1251 113 1192 c 0
 113 1188 117 1149 119 1137 c 0
 125 1110 153 1038 184 1038 c 0
 198 1038 203 1038 217 1044 c 0
 235 1052 289 1077 295 1079 c 1
 311 1089 324 1112 324 1130 c 0
 324 1171 275 1210 281 1249 c 1
 283 1274 317 1325 344 1333 c 0
 352 1335 398 1346 408 1348 c 1
 430 1348 l 2
 493 1348 536 1313 575 1262 c 1
 575 1262 582 1251 582 1249 c 0
 586 1235 596 1202 596 1200 c 2
 596 1024 l 2
 596 1020 581 1006 575 1004 c 0
 571 1002 543 997 541 995 c 1
 525 991 450 967 434 961 c 0
 416 955 395 942 379 932 c 1
 279 883 180 846 119 750 c 1
 94 713 84 686 84 643 c 0
281 668 m 2
 281 713 287 755 322 786 c 0
 332 794 344 797 350 807 c 1
 541 905 l 2
 553 911 561 913 575 913 c 0
 581 913 594 915 596 905 c 0
 610 850 602 780 602 729 c 1
 604 723 610 672 610 666 c 0
 610 662 600 637 596 631 c 0
 586 617 551 577 547 575 c 0
 541 571 502 551 492 547 c 0
 480 543 426 528 414 526 c 1
 375 549 321 551 301 596 c 0
 297 606 283 647 281 651 c 1
 281 668 l 2
358 582 m 1
 358 586 350 586 350 582 c 1
 352 578 356 578 358 582 c 1
322 604 m 1
 326 598 328 596 334 596 c 2
 336 596 l 1
 334 602 332 604 326 604 c 2
 322 604 l 1
EndSplineSet
EndChar

StartChar: _79
Encoding: 65607 -1 88
Width: 1269
VWidth: 0
Flags: W
LayerCount: 2
Fore
SplineSet
80 420 m 0
 80 408 77 379 100 379 c 2
 578 379 l 2
 586 379 598 404 598 410 c 2
 598 414 l 2
 598 424 592 453 592 457 c 1
 584 486 551 477 528 483 c 1
 477 501 440 543 430 596 c 1
 432 776 424 955 424 1135 c 0
 424 1174 424 1194 459 1221 c 0
 518 1268 586 1290 662 1290 c 0
 723 1290 772 1272 809 1221 c 1
 815 1211 836 1171 838 1163 c 0
 840 1157 838 1102 838 1094 c 0
 838 1092 844 1075 844 1073 c 0
 846 1063 844 985 844 975 c 0
 844 957 850 817 852 799 c 1
 852 770 l 1
 852 743 l 2
 852 733 846 643 844 631 c 1
 840 549 829 497 739 477 c 0
 716 471 690 477 690 442 c 0
 690 440 694 416 696 408 c 0
 698 402 705 385 705 385 c 1
 1182 385 l 2
 1184 385 1194 395 1196 399 c 1
 1196 420 l 2
 1196 488 1161 457 1118 477 c 0
 1063 502 1046 563 1040 616 c 1
 1042 677 1042 963 1040 1024 c 0
 1040 1051 1030 1179 1026 1206 c 1
 997 1341 905 1440 760 1444 c 1
 746 1446 686 1440 676 1438 c 0
 670 1436 601 1407 578 1397 c 0
 549 1383 512 1359 487 1339 c 1
 467 1325 453 1298 426 1298 c 1
 426 1306 422 1333 424 1339 c 0
 424 1341 430 1364 430 1368 c 2
 430 1368 432 1391 432 1399 c 0
 432 1405 430 1426 430 1432 c 1
 426 1444 403 1446 391 1446 c 1
 389 1444 l 1
 385 1444 371 1440 367 1438 c 0
 363 1436 317 1413 311 1409 c 1
 293 1403 147 1347 129 1339 c 0
 106 1329 80 1325 80 1296 c 0
 80 1265 206 1219 233 1186 c 1
 235 1176 242 1132 242 1122 c 2
 242 842 l 2
 242 832 248 753 248 743 c 0
 248 729 237 617 233 582 c 0
 229 545 193 485 158 477 c 0
 148 475 102 465 94 463 c 1
 80 453 80 436 80 420 c 0
EndSplineSet
EndChar

StartChar: _80
Encoding: 65608 -1 89
Width: 1236
VWidth: 0
Flags: W
LayerCount: 2
Fore
SplineSet
78 872 m 1
 78 870 l 1
 80 858 90 762 92 750 c 1
 92 715 l 2
 92 713 104 696 106 694 c 1
 127 631 l 1
 211 465 319 356 518 356 c 0
 627 356 735 428 807 506 c 1
 811 506 l 2
 817 506 821 498 821 492 c 2
 821 463 l 1
 821 434 l 1
 821 434 815 422 815 420 c 0
 815 412 819 373 821 365 c 1
 846 365 l 1
 870 365 l 2
 872 365 889 371 891 373 c 1
 922 379 1058 408 1087 414 c 1
 1103 410 1102 416 1116 420 c 1
 1159 436 1159 428 1159 481 c 0
 1159 487 1159 504 1157 506 c 2
 1145 518 l 1
 1067 518 l 2
 1065 518 1055 524 1053 526 c 0
 1047 530 1032 545 1032 547 c 1
 1028 553 1018 594 1018 604 c 2
 1018 666 l 2
 1018 695 1010 919 1010 946 c 2
 1010 1956 l 1
 1008 1979 996 1993 973 1993 c 0
 905 1993 854 1949 793 1929 c 0
 783 1925 692 1905 682 1901 c 1
 668 1897 645 1880 645 1866 c 0
 645 1850 662 1829 674 1823 c 2
 778 1774 l 2
 780 1774 784 1767 786 1767 c 0
 788 1767 799 1761 801 1761 c 1
 803 1757 807 1743 807 1739 c 2
 807 1675 l 2
 807 1667 813 1593 815 1585 c 1
 815 1581 l 2
 815 1569 807 1556 807 1544 c 0
 807 1513 815 1485 815 1454 c 0
 815 1442 809 1423 793 1423 c 2
 786 1423 l 1
 780 1425 735 1438 729 1438 c 0
 715 1440 645 1450 633 1452 c 1
 610 1452 l 2
 516 1452 414 1421 338 1368 c 1
 254 1305 l 2
 252 1303 240 1298 240 1298 c 2
 238 1296 233 1284 231 1284 c 1
 229 1282 213 1272 211 1270 c 1
 211 1268 205 1257 205 1255 c 1
 201 1249 166 1198 162 1192 c 0
 156 1182 119 1097 113 1087 c 1
 113 1085 100 1069 98 1067 c 1
 98 1044 l 1
 96 1028 80 893 78 877 c 1
 78 872 l 1
387 616 m 1
 381 636 360 650 352 666 c 1
 311 736 280 819 266 897 c 1
 266 934 l 2
 266 1098 313 1257 471 1325 c 0
 496 1335 512 1348 541 1348 c 0
 631 1348 705 1315 766 1249 c 0
 797 1214 793 1169 807 1128 c 1
 809 1103 813 981 815 954 c 1
 815 936 813 788 815 772 c 1
 815 762 821 684 821 674 c 2
 821 662 l 2
 821 607 703 561 668 547 c 0
 666 547 655 541 653 541 c 0
 651 541 626 539 618 539 c 0
 608 539 584 541 584 541 c 2
 582 541 563 547 561 547 c 2
 526 547 l 1
 475 559 428 581 387 616 c 1
1137 1683 m 0
 1139 1687 1120 1687 1122 1683 c 0
 1124 1679 1135 1679 1137 1683 c 0
EndSplineSet
EndChar

StartChar: _81
Encoding: 65609 -1 90
Width: 798
VWidth: 0
Flags: W
LayerCount: 2
Fore
SplineSet
82 422 m 0
 82 397 96 373 127 373 c 0
 137 373 193 377 203 379 c 1
 709 379 l 1
 709 463 l 2
 709 498 518 438 504 596 c 0
 502 619 498 713 498 729 c 2
 498 1006 l 1
 498 1284 l 2
 498 1354 565 1397 631 1403 c 1
 680 1403 l 2
 684 1403 692 1409 694 1409 c 1
 702 1421 702 1442 702 1456 c 0
 702 1487 699 1487 666 1493 c 1
 664 1493 l 1
 659 1493 l 2
 647 1493 551 1487 541 1487 c 2
 98 1487 l 1
 86 1481 84 1462 84 1448 c 0
 84 1430 86 1399 113 1397 c 1
 217 1382 l 1
 219 1380 250 1351 260 1339 c 0
 270 1327 279 1300 281 1284 c 0
 283 1268 287 1214 287 1206 c 2
 287 616 l 2
 287 614 283 590 281 582 c 0
 261 510 230 483 154 477 c 0
 103 473 82 483 82 422 c 0
639 1561 m 0
 635 1561 635 1554 639 1554 c 0
 641 1554 641 1561 639 1561 c 0
EndSplineSet
EndChar

StartChar: _82
Encoding: 65610 -1 91
Width: 1087
VWidth: 0
Flags: W
LayerCount: 2
Fore
SplineSet
72 420 m 0
 72 414 74 401 74 399 c 1
 88 385 l 2
 90 383 305 379 397 379 c 0
 544 379 899 383 901 385 c 2
 909 393 l 1
 917 420 961 548 971 575 c 0
 977 589 1006 654 1014 666 c 1
 1014 684 l 1
 1014 684 1018 709 1006 709 c 2
 936 709 l 1
 936 709 932 702 930 700 c 0
 926 698 917 682 915 680 c 1
 913 674 891 629 887 625 c 1
 873 602 842 585 817 575 c 1
 794 571 687 563 664 561 c 1
 580 561 l 2
 572 561 510 555 502 555 c 0
 490 555 409 559 389 561 c 0
 385 561 364 567 360 567 c 1
 360 575 l 2
 360 585 463 649 467 651 c 0
 510 682 551 719 592 750 c 0
 596 754 610 762 614 764 c 1
 817 946 l 2
 862 987 889 1053 909 1108 c 1
 915 1128 915 1153 915 1176 c 0
 915 1231 897 1301 866 1348 c 0
 792 1457 668 1524 537 1524 c 0
 529 1524 489 1522 481 1522 c 1
 450 1510 420 1511 389 1501 c 0
 328 1481 270 1442 221 1403 c 0
 215 1399 170 1352 166 1348 c 0
 150 1334 129 1330 129 1305 c 0
 129 1272 159 1247 190 1247 c 0
 192 1247 199 1249 201 1249 c 0
 203 1249 219 1262 221 1262 c 0
 250 1278 334 1323 340 1325 c 0
 379 1343 430 1348 473 1348 c 0
 536 1348 586 1329 635 1290 c 0
 655 1274 688 1243 698 1212 c 0
 708 1183 707 1176 707 1141 c 0
 707 1075 686 1012 641 961 c 1
 621 936 517 824 494 799 c 1
 467 783 443 757 418 737 c 0
 395 719 315 653 305 645 c 0
 239 594 175 543 109 492 c 1
 80 463 l 1
 70 451 72 436 72 420 c 0
EndSplineSet
EndChar

StartChar: _83
Encoding: 65611 -1 92
Width: 978
VWidth: 0
Flags: W
LayerCount: 2
Fore
SplineSet
70 106 m 2
 70 53 119 14 168 6 c 1
 252 6 l 2
 430 6 566 36 709 147 c 0
 725 159 778 209 784 217 c 1
 794 227 848 311 862 336 c 1
 880 371 901 424 905 463 c 1
 905 537 l 1
 905 610 l 1
 878 694 848 760 778 813 c 0
 766 823 702 862 686 870 c 1
 678 866 623 895 623 907 c 0
 623 913 625 916 631 920 c 1
 637 922 682 944 686 946 c 0
 704 958 768 1008 778 1018 c 0
 784 1024 809 1057 813 1067 c 0
 819 1081 840 1145 842 1157 c 1
 842 1198 l 2
 842 1313 805 1368 721 1444 c 1
 692 1473 676 1487 637 1501 c 0
 590 1519 538 1522 487 1522 c 2
 449 1522 l 2
 439 1522 370 1511 350 1507 c 0
 346 1507 332 1503 330 1501 c 0
 314 1491 239 1442 223 1432 c 1
 194 1409 104 1343 104 1298 c 0
 104 1286 123 1255 133 1249 c 1
 145 1239 164 1227 182 1227 c 0
 192 1227 195 1229 203 1241 c 0
 223 1270 227 1264 252 1284 c 0
 256 1286 277 1309 281 1311 c 0
 291 1317 334 1337 344 1339 c 1
 346 1341 381 1339 385 1339 c 0
 387 1339 397 1348 399 1348 c 2
 436 1348 l 2
 561 1348 639 1258 639 1137 c 0
 639 977 512 928 379 885 c 0
 344 873 322 864 281 856 c 0
 263 852 227 854 217 836 c 0
 213 830 203 794 203 786 c 1
 201 772 215 756 223 750 c 1
 340 742 498 758 596 680 c 1
 602 674 l 1
 606 672 629 655 631 651 c 1
 633 651 637 645 637 645 c 1
 651 625 690 561 694 555 c 0
 712 518 715 477 715 438 c 0
 715 342 678 252 610 182 c 1
 557 157 501 147 444 147 c 0
 372 147 299 157 238 188 c 0
 232 192 207 203 203 203 c 2
 203 203 188 205 184 205 c 0
 125 205 84 180 70 119 c 1
 70 106 l 2
504 1280 m 0
 502 1280 502 1274 504 1274 c 0
 508 1274 508 1280 504 1280 c 0
EndSplineSet
EndChar

StartChar: _84
Encoding: 65612 -1 93
Width: 1097
VWidth: 0
Flags: W
LayerCount: 2
Fore
SplineSet
39 469 m 0
 39 455 37 393 53 393 c 2
 580 393 l 2
 594 393 600 377 600 365 c 2
 600 35 l 2
 600 29 608 18 614 14 c 1
 643 14 l 1
 670 14 l 2
 672 14 682 20 684 20 c 0
 686 20 696 16 698 14 c 1
 776 14 l 2
 782 14 795 37 797 43 c 1
 799 76 803 233 803 266 c 2
 803 385 l 1
 811 393 l 1
 1008 393 l 2
 1010 393 1024 397 1028 399 c 0
 1030 401 1034 406 1034 408 c 2
 1034 532 l 2
 1034 542 1024 555 1014 555 c 2
 797 555 l 1
 797 946 l 1
 799 958 803 1012 803 1024 c 0
 803 1042 797 1182 797 1200 c 2
 797 1522 l 1
 782 1536 l 1
 782 1536 758 1538 750 1538 c 0
 738 1538 700 1536 698 1536 c 0
 669 1534 671 1518 655 1493 c 0
 635 1462 612 1430 594 1397 c 1
 553 1331 455 1173 453 1171 c 2
 446 1163 l 1
 166 709 l 2
 164 707 160 702 158 700 c 0
 150 690 125 655 123 651 c 0
 119 645 86 581 82 575 c 1
 78 571 55 545 53 541 c 0
 39 512 39 496 39 469 c 0
565 354 m 0
 561 354 561 348 565 348 c 0
 569 348 569 354 565 354 c 0
186 565 m 2
 186 567 l 1
 188 571 199 592 201 596 c 0
 303 772 411 944 522 1116 c 0
 538 1141 580 1200 580 1200 c 1
 594 1192 l 1
 594 1192 598 1163 600 1151 c 1
 600 1141 l 2
 600 1082 592 1022 592 963 c 0
 592 924 600 889 600 852 c 2
 600 848 l 2
 600 840 594 766 594 758 c 0
 594 752 600 706 600 700 c 2
 600 684 l 2
 600 643 590 608 594 567 c 1
 580 555 l 1
 476 557 372 547 268 547 c 2
 236 547 l 2
 232 547 207 553 201 555 c 0
 191 557 186 557 186 565 c 2
EndSplineSet
EndChar

StartChar: _85
Encoding: 65613 -1 94
Width: 995
VWidth: 0
Flags: W
LayerCount: 2
Fore
SplineSet
74 90 m 2
 74 78 l 1
 101 27 176 33 213 6 c 1
 260 12 303 16 348 20 c 1
 354 22 383 27 389 29 c 0
 450 43 522 82 571 119 c 0
 598 139 693 219 705 231 c 0
 711 237 756 301 762 309 c 0
 797 356 834 437 852 492 c 1
 852 512 l 1
 858 555 866 594 866 637 c 0
 866 696 856 750 831 807 c 0
 829 813 799 856 797 862 c 1
 795 864 790 875 788 877 c 0
 778 891 719 955 705 969 c 1
 699 973 647 1006 641 1010 c 1
 641 1010 635 1016 635 1018 c 1
 481 1108 l 1
 475 1108 457 1114 453 1116 c 0
 441 1120 381 1151 369 1157 c 1
 369 1159 367 1169 367 1171 c 0
 367 1185 415 1309 438 1311 c 1
 454 1309 535 1298 551 1298 c 1
 576 1294 586 1302 606 1290 c 1
 633 1290 755 1296 782 1298 c 1
 800 1298 815 1299 823 1311 c 1
 827 1315 850 1350 852 1354 c 0
 854 1356 872 1372 872 1374 c 0
 874 1378 885 1419 887 1423 c 0
 901 1458 915 1476 915 1513 c 2
 915 1530 l 1
 911 1536 887 1561 881 1565 c 1
 879 1565 862 1567 856 1567 c 0
 795 1567 813 1517 774 1501 c 0
 747 1489 723 1487 694 1487 c 0
 624 1487 555 1509 483 1509 c 0
 454 1509 419 1512 403 1481 c 2
 326 1333 l 1
 326 1325 l 1
 236 1163 l 2
 234 1161 229 1147 227 1143 c 0
 217 1120 162 1018 152 995 c 1
 172 975 l 1
 369 905 l 1
 371 903 385 893 389 891 c 0
 391 889 408 885 410 885 c 0
 467 856 512 840 557 799 c 1
 571 789 631 735 641 723 c 0
 643 721 653 706 655 700 c 1
 667 677 703 604 705 596 c 0
 713 573 713 533 713 508 c 0
 713 475 713 455 705 420 c 0
 693 365 627 262 586 231 c 0
 574 223 534 199 530 197 c 0
 487 183 440 182 395 182 c 0
 354 182 332 180 291 188 c 1
 289 190 278 197 276 197 c 0
 264 199 209 209 201 211 c 1
 176 211 l 2
 117 211 74 145 74 90 c 2
397 881 m 0
 393 881 393 872 397 872 c 0
 399 872 399 881 397 881 c 0
EndSplineSet
EndChar

StartChar: _86
Encoding: 65614 -1 95
Width: 1073
VWidth: 0
Flags: W
LayerCount: 2
Fore
SplineSet
279 449 m 0
 293 441 367 405 383 399 c 1
 406 393 507 373 530 373 c 1
 544 385 555 377 573 379 c 0
 587 381 662 395 678 399 c 0
 680 399 690 406 692 408 c 1
 694 408 717 414 719 414 c 0
 746 426 819 465 825 469 c 0
 841 481 905 545 915 561 c 0
 917 565 922 580 924 582 c 1
 928 592 969 676 973 688 c 0
 973 690 979 719 979 723 c 1
 995 780 1001 813 1001 874 c 0
 1001 931 998 1004 973 1059 c 0
 967 1073 921 1161 909 1186 c 0
 907 1190 897 1204 895 1206 c 0
 883 1220 833 1270 825 1276 c 0
 823 1278 801 1288 797 1290 c 0
 795 1292 778 1305 776 1305 c 0
 751 1315 672 1339 664 1339 c 0
 662 1339 620 1341 606 1341 c 0
 571 1341 535 1345 502 1333 c 1
 479 1323 371 1280 348 1270 c 1
 344 1270 l 2
 336 1270 334 1280 334 1286 c 0
 334 1313 344 1319 354 1339 c 0
 358 1345 387 1403 391 1409 c 1
 395 1419 420 1454 426 1458 c 1
 614 1663 l 2
 618 1667 684 1717 707 1733 c 0
 709 1735 731 1745 733 1747 c 0
 737 1749 760 1765 762 1767 c 0
 787 1781 905 1846 930 1860 c 1
 930 1880 l 2
 930 1882 886 1917 866 1929 c 0
 862 1931 844 1935 840 1935 c 0
 834 1935 801 1925 791 1921 c 1
 787 1921 752 1903 748 1901 c 0
 736 1897 676 1876 664 1872 c 1
 658 1868 651 1859 649 1851 c 1
 412 1698 l 2
 406 1694 342 1634 319 1614 c 1
 274 1567 238 1513 201 1458 c 0
 195 1450 188 1438 180 1432 c 1
 166 1405 112 1276 102 1249 c 1
 102 1245 88 1172 82 1143 c 0
 68 1071 66 1006 66 932 c 0
 66 909 68 850 68 848 c 0
 72 819 105 688 117 659 c 0
 127 634 185 532 201 512 c 1
 211 504 260 465 270 457 c 0
 272 455 277 451 279 449 c 0
514 1194 m 0
 522 1194 543 1192 545 1192 c 0
 561 1190 625 1169 635 1163 c 1
 645 1159 684 1130 692 1122 c 0
 698 1116 727 1071 733 1059 c 1
 737 1055 754 1008 756 1004 c 0
 756 1002 762 991 762 989 c 1
 762 989 768 983 768 981 c 1
 770 979 768 956 768 954 c 0
 770 946 782 891 782 885 c 0
 782 881 784 835 784 817 c 0
 784 737 772 670 741 596 c 1
 731 576 721 571 707 555 c 0
 705 553 694 534 692 532 c 0
 688 528 668 514 664 512 c 0
 648 504 594 479 586 477 c 1
 559 477 l 2
 498 477 434 479 397 532 c 1
 356 593 325 649 305 723 c 0
 301 739 293 793 293 799 c 2
 293 1108 l 2
 293 1139 392 1174 412 1178 c 1
 424 1182 473 1192 481 1192 c 0
 483 1192 506 1194 514 1194 c 0
328 797 m 0
 324 797 324 788 328 788 c 0
 330 788 330 797 328 797 c 0
516 1077 m 0
 512 1077 512 1069 516 1069 c 0
 520 1069 520 1077 516 1077 c 0
594 1092 m 0
 590 1092 590 1083 594 1083 c 0
 598 1083 598 1092 594 1092 c 0
805 1757 m 0
 801 1757 801 1749 805 1749 c 0
 807 1749 807 1757 805 1757 c 0
EndSplineSet
EndChar

StartChar: _87
Encoding: 65615 -1 96
Width: 1038
VWidth: 0
Flags: W
LayerCount: 2
Fore
SplineSet
301 49 m 1
 307 31 326 14 344 14 c 0
 430 14 428 88 457 154 c 0
 459 158 475 186 477 188 c 1
 495 229 503 278 526 315 c 0
 528 317 539 334 541 336 c 1
 545 346 569 412 575 428 c 0
 577 432 582 453 582 457 c 1
 752 862 l 1
 752 877 l 1
 989 1458 l 1
 989 1466 l 2
 989 1472 989 1477 983 1481 c 1
 793 1477 606 1487 418 1487 c 2
 246 1487 l 2
 236 1487 186 1481 176 1481 c 1
 141 1475 133 1420 133 1397 c 1
 63 1151 l 1
 63 1143 l 2
 63 1120 99 1122 113 1122 c 0
 127 1122 154 1119 162 1137 c 0
 189 1192 194 1248 260 1262 c 1
 272 1266 332 1280 344 1284 c 1
 752 1284 l 2
 772 1284 780 1269 780 1251 c 0
 780 1249 778 1241 778 1241 c 1
 702 1079 l 1
 690 1007 643 925 618 862 c 0
 579 764 545 659 506 561 c 0
 504 555 479 510 477 506 c 0
 475 500 465 461 463 457 c 0
 461 451 438 405 436 399 c 0
 424 372 375 240 365 211 c 1
 345 188 354 189 344 162 c 0
 342 156 317 104 315 98 c 0
 313 90 303 57 301 49 c 1
EndSplineSet
EndChar

StartChar: _88
Encoding: 65616 -1 97
Width: 1013
VWidth: 0
Flags: W
LayerCount: 2
Fore
SplineSet
80 743 m 0
 80 702 77 647 100 610 c 1
 114 590 154 530 158 526 c 0
 238 424 389 379 514 379 c 0
 704 379 847 481 915 659 c 1
 913 659 913 666 915 666 c 1
 915 670 922 692 922 694 c 2
 922 754 l 2
 922 904 836 1028 725 1122 c 0
 717 1128 649 1180 641 1186 c 0
 637 1188 623 1204 621 1206 c 1
 621 1210 l 2
 621 1233 648 1239 662 1249 c 0
 709 1280 753 1329 788 1368 c 0
 790 1370 801 1387 803 1389 c 2
 823 1409 l 1
 833 1423 862 1473 866 1481 c 1
 868 1489 889 1556 893 1579 c 1
 893 1589 l 1
 893 1599 l 2
 893 1601 887 1612 887 1614 c 0
 877 1655 872 1694 852 1733 c 1
 844 1745 819 1784 817 1788 c 1
 805 1800 735 1860 719 1872 c 0
 653 1919 563 1929 487 1929 c 2
 430 1929 l 1
 428 1927 414 1923 410 1921 c 0
 408 1921 397 1915 395 1915 c 2
 311 1894 l 1
 297 1888 243 1859 233 1851 c 0
 223 1843 170 1790 158 1774 c 1
 103 1711 86 1636 86 1554 c 2
 86 1530 l 1
 90 1512 109 1437 115 1423 c 0
 162 1298 267 1231 367 1151 c 0
 375 1145 375 1145 375 1137 c 0
 375 1125 372 1124 360 1116 c 1
 350 1106 258 1040 248 1030 c 0
 230 1014 151 931 135 911 c 1
 127 897 94 829 86 813 c 1
 80 795 80 763 80 743 c 0
276 723 m 0
 276 786 293 840 311 897 c 0
 313 901 317 924 317 926 c 0
 327 946 348 955 354 975 c 1
 444 1067 l 1
 457 1067 l 2
 490 1067 514 1030 537 1010 c 1
 600 951 662 897 711 821 c 0
 738 778 739 737 739 688 c 0
 739 592 692 500 592 477 c 1
 528 477 l 2
 495 477 463 473 430 483 c 1
 332 518 276 623 276 723 c 0
268 1616 m 0
 268 1636 268 1672 276 1690 c 0
 315 1774 400 1837 494 1837 c 0
 584 1837 635 1792 676 1718 c 0
 694 1685 719 1643 719 1604 c 0
 719 1512 692 1461 647 1389 c 0
 633 1366 571 1270 551 1270 c 0
 518 1270 496 1307 473 1325 c 0
 471 1327 461 1331 459 1333 c 0
 422 1360 383 1399 354 1432 c 1
 305 1485 268 1542 268 1616 c 0
EndSplineSet
EndChar

StartChar: _89
Encoding: 65617 -1 98
Width: 1069
VWidth: 0
Flags: W
LayerCount: 2
Fore
SplineSet
119 94 m 0
 119 71 161 29 186 29 c 2
 188 29 l 2
 190 29 207 35 209 35 c 2
 252 35 l 2
 256 35 291 47 295 49 c 0
 301 51 350 61 356 63 c 1
 360 63 375 70 379 70 c 1
 404 82 488 121 498 127 c 0
 549 154 594 194 645 225 c 1
 665 245 764 345 784 365 c 0
 788 369 817 404 819 408 c 1
 823 410 846 432 848 434 c 0
 959 571 995 784 995 954 c 0
 995 1112 971 1207 891 1348 c 0
 889 1350 879 1358 877 1360 c 0
 873 1364 852 1393 848 1397 c 0
 758 1487 682 1538 551 1538 c 0
 463 1538 367 1538 295 1481 c 1
 277 1465 217 1415 209 1409 c 1
 209 1409 199 1391 197 1389 c 0
 193 1385 178 1370 174 1368 c 1
 111 1264 68 1165 68 1042 c 0
 68 1034 70 997 70 989 c 1
 72 987 76 977 76 975 c 0
 78 967 88 899 90 891 c 0
 98 860 109 826 125 799 c 1
 184 711 254 623 365 596 c 0
 406 586 449 582 492 582 c 2
 504 582 l 1
 529 586 602 600 610 604 c 1
 618 606 680 641 686 645 c 1
 692 647 717 657 721 659 c 1
 731 657 729 643 729 637 c 0
 729 608 716 580 700 555 c 0
 686 532 618 428 602 408 c 0
 600 404 584 389 582 385 c 1
 580 385 575 373 575 373 c 1
 548 344 512 304 477 281 c 1
 469 277 414 242 406 238 c 0
 404 238 381 219 379 217 c 0
 359 207 295 172 287 168 c 1
 275 164 166 131 154 127 c 1
 136 119 119 114 119 94 c 0
399 389 m 0
 399 385 402 381 406 379 c 1
 406 399 l 1
 402 397 399 393 399 389 c 0
393 414 m 0
 387 416 387 397 393 399 c 0
 397 401 397 412 393 414 c 0
281 1112 m 2
 281 1116 l 1
 287 1157 289 1202 301 1241 c 0
 303 1247 328 1292 330 1298 c 1
 330 1305 l 1
 363 1383 434 1446 522 1446 c 0
 555 1446 591 1433 616 1423 c 0
 618 1423 639 1409 645 1403 c 0
 661 1389 700 1350 700 1348 c 2
 758 1206 l 2
 762 1196 780 1053 784 1004 c 0
 784 1002 786 952 786 936 c 0
 786 916 784 860 784 856 c 0
 784 852 780 827 778 821 c 0
 774 807 772 786 758 778 c 1
 744 772 680 741 666 737 c 1
 633 723 600 723 567 715 c 1
 563 715 l 1
 561 715 l 1
 553 717 497 735 489 737 c 0
 487 737 471 735 469 737 c 1
 444 743 426 754 406 772 c 0
 379 797 334 838 322 877 c 1
 302 953 281 1034 281 1112 c 2
EndSplineSet
EndChar

StartChar: _90
Encoding: 65618 -1 99
Width: 1140
VWidth: 0
Flags: W
LayerCount: 2
Fore
SplineSet
408 379 m 1
 414 379 l 1
 420 377 465 367 471 365 c 0
 516 357 551 356 596 356 c 0
 668 356 740 377 801 414 c 0
 946 504 1024 655 1053 821 c 1
 1053 837 1055 920 1055 936 c 0
 1055 1002 1058 1071 1038 1137 c 0
 1036 1143 1014 1186 1010 1192 c 1
 1010 1196 1004 1210 1004 1212 c 1
 913 1339 l 1
 884 1351 873 1377 850 1397 c 1
 842 1401 809 1426 801 1432 c 1
 785 1440 721 1475 709 1481 c 0
 658 1504 598 1501 543 1501 c 0
 484 1501 428 1481 373 1458 c 1
 369 1458 360 1452 358 1452 c 1
 288 1403 211 1354 170 1276 c 1
 162 1264 133 1206 127 1192 c 1
 100 1098 78 1007 78 911 c 2
 78 897 l 1
 84 862 102 743 106 729 c 0
 141 575 267 440 408 379 c 1
238 932 m 0
 238 950 240 995 240 995 c 1
 242 1009 266 1097 274 1122 c 0
 327 1272 422 1356 584 1356 c 0
 697 1356 772 1300 827 1206 c 0
 835 1194 871 1128 877 1116 c 0
 879 1114 883 1093 885 1087 c 0
 893 1040 899 995 899 948 c 0
 899 882 891 821 877 758 c 0
 877 754 872 739 870 737 c 0
 827 645 780 567 688 518 c 1
 678 514 643 498 639 498 c 2
 602 498 l 2
 567 498 527 498 492 506 c 0
 488 506 463 516 457 518 c 1
 404 549 371 578 330 625 c 1
 254 715 238 817 238 932 c 0
477 592 m 0
 473 592 473 586 477 586 c 0
 481 586 481 592 477 592 c 0
393 1141 m 0
 389 1141 389 1133 393 1133 c 0
 397 1133 397 1141 393 1141 c 0
EndSplineSet
EndChar

StartChar: a
Encoding: 97 97 100
Width: 976
VWidth: 0
Flags: W
PickledData: "(dp1
S'com.typemytype.robofont.guides'
p2
(tsS'com.typemytype.robofont.layerData'
p3
(dp4
S'back'
p5
(dp6
S'name'
p7
S'a'
sS'lib'
p8
(dp9
sS'unicodes'
p10
(tsS'width'
p11
I976
sS'contours'
p12
(tsS'components'
p13
(tsS'anchors'
p14
(tsss."
LayerCount: 2
Fore
SplineSet
824 658 m 2
 824 919 744 1059 480 1059 c 0
 292 1059 97 964 97 812 c 0
 97 730 151 646 220 646 c 0
 275 646 323 688 323 735 c 0
 323 736 323 737 323 738 c 0
 321 792 280 849 280 854 c 0
 280 945 398 986 466 986 c 0
 607 986 650 852 650 692 c 2
 650 629 l 1
 413 539 l 1
 220 463 101 383 101 228 c 0
 101 92 213 -18 353 -18 c 0
 494 -18 614 98 656 188 c 1
 670 108 710 -12 801 -12 c 0
 803 -12 806 -12 808 -12 c 0
 901 -7 944 82 957 139 c 0
 957 140 957 142 957 143 c 0
 957 157 945 177 931 177 c 0
 926 177 921 175 916 170 c 0
 899 153 884 145 872 145 c 0
 839 145 824 198 824 250 c 2
 824 658 l 2
639 238 m 0
 586 180 519 123 433 123 c 0
 377 123 298 163 298 256 c 0
 298 390 446 467 572 518 c 1
 572 518 622 537 640 537 c 0
 646 537 648 535 650 523 c 1
 650 488 650 307 650 272 c 0
 650 248 643 243 639 238 c 0
532 1059 m 0
944 10 m 0
EndSplineSet
EndChar

StartChar: b
Encoding: 98 98 101
Width: 1206
VWidth: 0
Flags: W
PickledData: "(dp1
S'com.typemytype.robofont.layerData'
p2
(dp3
S'back'
p4
(dp5
S'name'
p6
S'b'
sS'lib'
p7
(dp8
sS'unicodes'
p9
(tsS'width'
p10
I1206
sS'contours'
p11
(tsS'components'
p12
(tsS'anchors'
p13
(tsss."
LayerCount: 2
Fore
SplineSet
208 103 m 1
 323 39 438 -18 614 -18 c 0
 924 -18 1125 228 1125 568 c 0
 1125 866 959 1059 732 1059 c 0
 600 1059 489 1013 386 902 c 1
 386 973 l 2
 386 1041 386 1107 386 1172 c 0
 386 1309 387 1445 403 1591 c 1
 403 1601 l 2
 403 1617 382 1618 369 1618 c 0
 367 1618 364 1618 362 1618 c 0
 335 1618 309 1599 290 1591 c 0
 221 1564 153 1548 82 1522 c 1
 72 1510 72 1498 72 1484 c 0
 72 1435 182 1417 212 1372 c 1
 212 429 l 2
 212 377 205 232 205 154 c 0
 205 128 206 109 208 103 c 1
652 924 m 0
 908 924 952 683 952 481 c 0
 952 273 831 82 638 82 c 0
 520 82 386 155 386 288 c 2
 386 800 l 1
 434 880 585 924 652 924 c 0
EndSplineSet
EndChar

StartChar: c
Encoding: 99 99 102
Width: 1003
VWidth: 0
Flags: W
PickledData: "(dp1
S'com.typemytype.robofont.layerData'
p2
(dp3
S'back'
p4
(dp5
S'name'
p6
S'c'
sS'lib'
p7
(dp8
sS'unicodes'
p9
(tsS'width'
p10
I1003
sS'contours'
p11
(tsS'components'
p12
(tsS'anchors'
p13
(tsss."
LayerCount: 2
Fore
SplineSet
887 280 m 0
 849 280 784 146 605 146 c 0
 388 146 251 346 251 593 c 0
 251 792 329 977 531 977 c 0
 672 977 708 886 770 781 c 0
 782 761 801 751 825 751 c 0
 865 751 912 780 912 833 c 0
 912 990 700 1059 559 1059 c 0
 278 1059 83 830 83 536 c 0
 83 179.172 285 -18 546 -18 c 0
 723 -18 869 85 927 215 c 1
 927 219 928 222 928 225 c 0
 928 251 910 280 887 280 c 0
503 1059 m 0
503 0 m 0
EndSplineSet
EndChar

StartChar: comma
Encoding: 44 44 103
Width: 507
VWidth: 0
Flags: W
LayerCount: 2
Fore
SplineSet
25 51 m 0
 25 35 23 26 39 14 c 1
 68 14 l 2
 160 14 221 29 299 84 c 1
 344 119 389 160 418 211 c 1
 428 231 459 291 459 295 c 1
 461 299 475 387 481 420 c 1
 481 428 l 2
 481 489 467 537 444 596 c 1
 428 643 402 668 369 709 c 0
 340 744 287 752 246 752 c 0
 162 752 121 737 88 659 c 1
 88 653 86 622 86 616 c 0
 86 567 96 537 137 506 c 1
 143 500 164 487 164 487 c 1
 270 487 l 2
 272 487 293 475 299 469 c 0
 326 444 334 408 334 373 c 0
 334 303 319 245 276 188 c 1
 256 168 l 1
 252 166 198 141 178 133 c 1
 176 131 162 127 158 127 c 0
 119 117 78 118 39 104 c 1
 21 100 25 65 25 51 c 0
EndSplineSet
EndChar

StartChar: d
Encoding: 100 100 104
Width: 1188
VWidth: 0
Flags: W
PickledData: "(dp1
S'com.typemytype.robofont.guides'
p2
(tsS'com.typemytype.robofont.layerData'
p3
(dp4
S'back'
p5
(dp6
S'name'
p7
S'd'
sS'lib'
p8
(dp9
sS'unicodes'
p10
(tsS'width'
p11
I1188
sS'contours'
p12
((dp13
S'points'
p14
((dp15
S'segmentType'
p16
S'curve'
p17
sS'x'
F689
sS'smooth'
p18
I01
sS'y'
F0
s(dp19
g16
S'line'
p20
sS'x'
F1173
sg18
I01
sS'y'
F0
s(dp21
S'y'
F0
sS'x'
F1184
sg18
I00
s(dp22
S'y'
F22
sS'x'
F1192
sg18
I00
s(dp23
g16
S'curve'
p24
sS'x'
F1192
sg18
I01
sS'y'
F43
s(dp25
S'y'
F59
sS'x'
F1192
sg18
I00
s(dp26
S'y'
F75
sS'x'
F1187
sg18
I00
s(dp27
g16
S'curve'
p28
sS'x'
F1173
sg18
I00
sS'y'
F76
s(dp29
S'y'
F99
sS'x'
F1019
sg18
I00
s(dp30
S'y'
F139
sS'x'
F1018
sg18
I00
s(dp31
g16
S'curve'
p32
sS'x'
F1018
sg18
I01
sS'y'
F228
s(dp33
g16
S'line'
p34
sS'x'
F1018
sg18
I00
sS'y'
F1350
s(dp35
S'y'
F1350
sS'x'
F1018
sg18
I00
s(dp36
S'y'
F1425
sS'x'
F1018
sg18
I00
s(dp37
g16
S'curve'
p38
sS'x'
F1018
sg18
I01
sS'y'
F1425
s(dp39
g16
S'line'
p40
sS'x'
F1018
sg18
I01
sS'y'
F1572
s(dp41
S'y'
F1590
sS'x'
F1018
sg18
I00
s(dp42
S'y'
F1605
sS'x'
F1018
sg18
I00
s(dp43
g16
S'curve'
p44
sS'x'
F1004
sg18
I01
sS'y'
F1605
s(dp45
S'y'
F1605
sS'x'
F998
sg18
I00
s(dp46
S'y'
F1603
sS'x'
F991
sg18
I00
s(dp47
g16
S'curve'
p48
sS'x'
F983
sg18
I01
sS'y'
F1599
s(dp49
S'y'
F1593
sS'x'
F968
sg18
I00
s(dp50
S'y'
F1505
sS'x'
F741
sg18
I00
s(dp51
g16
S'curve'
p52
sS'x'
F689
sg18
I01
sS'y'
F1486
s(dp53
S'y'
F1481
sS'x'
F676
sg18
I00
s(dp54
S'y'
F1473
sS'x'
F671
sg18
I00
s(dp55
g16
S'curve'
p56
sS'x'
F671
sg18
I01
sS'y'
F1465
s(dp57
S'y'
F1458
sS'x'
F671
sg18
I00
s(dp58
S'y'
F1451
sS'x'
F675
sg18
I00
s(dp59
g16
S'curve'
p60
sS'x'
F682
sg18
I01
sS'y'
F1448
s(dp61
g16
S'line'
p62
sS'x'
F844
sg18
I00
sS'y'
F1351
s(dp63
g16
S'line'
p64
sS'x'
F844
sg18
I01
sS'y'
F228
s(dp65
S'y'
F114
sS'x'
F844
sg18
I00
s(dp66
S'y'
F92
sS'x'
F770
sg18
I00
s(dp67
g16
S'curve'
p68
sS'x'
F705
sg18
I01
sS'y'
F78
s(dp69
S'y'
F74
sS'x'
F686
sg18
I00
s(dp70
S'y'
F69
sS'x'
F674
sg18
I00
s(dp71
g16
S'curve'
p72
sS'x'
F674
sg18
I01
sS'y'
F29
s(dp73
S'y'
F17
sS'x'
F674
sg18
I00
s(dp74
S'y'
F0
sS'x'
F679
sg18
I00
stp75
stp76
sS'components'
p77
(tsS'anchors'
p78
(tsss."
LayerCount: 2
Fore
SplineSet
859 -25 m 0
 884 -25 902 -9 927 -3 c 0
 1005 15 1088 19 1164 46 c 0
 1178 51 1179 72 1179 87 c 2
 1179 130 l 1
 1178 135 1174 136 1170 136 c 0
 1168 136 1166 136 1164 136 c 0
 1152 136 1139 130 1125 130 c 0
 1064 130 1020 168 1018 229 c 1
 1018 1574 l 2
 1018 1590 1018 1605 1004 1605 c 0
 998 1605 991 1603 983 1599 c 0
 968 1593 741 1505 689 1486 c 0
 676 1481 671 1473 671 1465 c 0
 671 1458 675 1451 682 1448 c 1
 844 1351 l 1
 844 989 l 2
 844 985 839 980 827 987 c 0
 782 1013 692 1059 584 1059 c 0
 221 1059 81 740 81 519 c 0
 81 291 208 -18 541 -18 c 0
 682 -18 782 49 837 117 c 1
 839 117 842 116 843 116 c 1
 843 -11 l 1
 843 -11 851 -21 855 -23 c 2
 855 -23 857 -25 859 -25 c 0
604 108 m 0
 403 108 262 294 262 553 c 0
 262 799 397 965 587 965 c 0
 729 965 844 872 844 781 c 2
 844 224 l 1
 824 198 738 108 604 108 c 0
607 530 m 0
EndSplineSet
EndChar

StartChar: e
Encoding: 101 101 105
Width: 1015
VWidth: 0
Flags: W
PickledData: "(dp1
S'com.typemytype.robofont.layerData'
p2
(dp3
S'back'
p4
(dp5
S'name'
p6
S'e'
sS'lib'
p7
(dp8
sS'unicodes'
p9
(tsS'width'
p10
I1015
sS'contours'
p11
((dp12
S'points'
p13
((dp14
S'y'
F709
sS'x'
F259
sS'smooth'
p15
I00
s(dp16
S'y'
F709
sS'x'
F259
sg15
I00
s(dp17
S'segmentType'
p18
S'curve'
p19
sS'x'
F259
sg15
I01
sS'y'
F709
s(dp20
S'y'
F709
sS'x'
F259
sg15
I00
s(dp21
S'y'
F725
sS'x'
F261
sg15
I00
s(dp22
g18
S'curve'
p23
sS'x'
F263
sg15
I01
sS'y'
F737
s(dp24
S'y'
F851
sS'x'
F282
sg15
I00
s(dp25
S'y'
F973
sS'x'
F370
sg15
I00
s(dp26
g18
S'curve'
p27
sS'x'
F495
sg15
I01
sS'y'
F975
s(dp28
S'y'
F975
sS'x'
F496
sg15
I00
s(dp29
S'y'
F975
sS'x'
F497
sg15
I00
s(dp30
g18
S'curve'
p31
sS'x'
F498
sg15
I01
sS'y'
F975
s(dp32
S'y'
F975
sS'x'
F654
sg15
I00
s(dp33
S'y'
F812
sS'x'
F709
sg15
I00
s(dp34
g18
S'curve'
p35
sS'x'
F709
sg15
I01
sS'y'
F748
s(dp36
S'y'
F731
sS'x'
F709
sg15
I00
s(dp37
S'y'
F721
sS'x'
F704
sg15
I00
s(dp38
g18
S'curve'
p39
sS'x'
F693
sg15
I01
sS'y'
F721
s(dp40
g18
S'line'
p41
sS'x'
F644
sg15
I01
sS'y'
F721
s(dp42
S'y'
F721
sS'x'
F521
sg15
I00
s(dp43
S'y'
F709
sS'x'
F380
sg15
I00
s(dp44
g18
S'curve'
p45
sS'x'
F259
sg15
I00
sS'y'
F709
stp46
s(dp47
g13
((dp48
S'y'
F261
sS'x'
F81
sg15
I00
s(dp49
S'y'
F-23
sS'x'
F243
sg15
I00
s(dp50
g18
S'curve'
p51
sS'x'
F547
sg15
I01
sS'y'
F-23
s(dp52
S'y'
F-23
sS'x'
F744
sg15
I00
s(dp53
S'y'
F115
sS'x'
F878
sg15
I00
s(dp54
g18
S'curve'
p55
sS'x'
F924
sg15
I00
sS'y'
F212
s(dp56
S'y'
F222
sS'x'
F928
sg15
I00
s(dp57
S'y'
F231
sS'x'
F930
sg15
I00
s(dp58
g18
S'curve'
p59
sS'x'
F930
sg15
I01
sS'y'
F239
s(dp60
S'y'
F260
sS'x'
F930
sg15
I00
s(dp61
S'y'
F274
sS'x'
F917
sg15
I00
s(dp62
g18
S'curve'
p63
sS'x'
F895
sg15
I00
sS'y'
F275
s(dp64
g18
S'line'
p65
sS'x'
F891
sg15
I01
sS'y'
F275
s(dp66
S'y'
F275
sS'x'
F853
sg15
I00
s(dp67
S'y'
F140
sS'x'
F792
sg15
I00
s(dp68
g18
S'curve'
p69
sS'x'
F601
sg15
I01
sS'y'
F140
s(dp70
S'y'
F140
sS'x'
F370
sg15
I00
s(dp71
S'y'
F364
sS'x'
F256
sg15
I00
s(dp72
g18
S'curve'
p73
sS'x'
F256
sg15
I01
sS'y'
F596
s(dp74
S'y'
F603
sS'x'
F255
sg15
I00
s(dp75
S'y'
F610
sS'x'
F255
sg15
I00
s(dp76
g18
S'curve'
p77
sS'x'
F255
sg15
I01
sS'y'
F616
s(dp78
S'y'
F629
sS'x'
F255
sg15
I00
s(dp79
S'y'
F639
sS'x'
F256
sg15
I00
s(dp80
g18
S'curve'
p81
sS'x'
F256
sg15
I00
sS'y'
F639
s(dp82
g18
S'line'
p83
sS'x'
F776
sg15
I01
sS'y'
F639
s(dp84
S'y'
F639
sS'x'
F826
sg15
I00
s(dp85
S'y'
F649
sS'x'
F907
sg15
I00
s(dp86
g18
S'curve'
p87
sS'x'
F915
sg15
I01
sS'y'
F657
s(dp88
S'y'
F659
sS'x'
F915
sg15
I00
s(dp89
S'y'
F676
sS'x'
F917
sg15
I00
s(dp90
g18
S'curve'
p91
sS'x'
F917
sg15
I01
sS'y'
F682
s(dp92
S'y'
F688
sS'x'
F917
sg15
I00
s(dp93
S'y'
F711
sS'x'
F915
sg15
I00
s(dp94
g18
S'curve'
p95
sS'x'
F915
sg15
I01
sS'y'
F715
s(dp96
S'y'
F908.87824272333728
sS'x'
F890.63833599287909
sg15
I00
s(dp97
S'y'
F1059
sS'x'
F727.07980496364303
sg15
I00
s(dp98
g18
S'curve'
p99
sS'x'
F525
sg15
I01
sS'y'
F1059
s(dp100
S'y'
F1059
sS'x'
F234
sg15
I00
s(dp101
S'y'
F797
sS'x'
F81
sg15
I00
s(dp102
g18
S'curve'
p103
sS'x'
F81
sg15
I01
sS'y'
F538
stp104
stp105
sS'components'
p106
(tsS'anchors'
p107
((dp108
S'y'
F0
sS'x'
F511
sg6
S'bottom'
p109
s(dp110
S'y'
F1059
sS'x'
F511
sg6
S'top'
p111
s(dp112
S'y'
F10
sS'x'
F885
sg6
S'ogonek'
p113
stp114
sss."
LayerCount: 2
Fore
SplineSet
547 -23 m 0
 744 -23 878 115 924 212 c 0
 928 222 930 231 930 239 c 0
 930 260 922 269 900 270 c 1
 896 270 l 2
 858 270 792 140 601 140 c 0
 363 140 256 372 256 604 c 0
 256 639 l 1
 776 639 l 2
 826 639 907 649 915 657 c 1
 915 659 917 676 917 682 c 0
 917 688 915 711 915 715 c 0
 891 909 727 1059 525 1059 c 0
 234 1059 81 797 81 538 c 0
 81 261 243 -23 547 -23 c 0
505 975 m 0
 655 975 709 811 709 748 c 0
 709 731 704 721 693 721 c 2
 644 721 l 2
 521 721 379 702 258 702 c 1
 269 827 364 975 505 975 c 0
511 1059 m 0
511 0 m 0
885 10 m 0
EndSplineSet
EndChar

StartChar: eight
Encoding: 56 56 106
Width: 1013
VWidth: 0
Flags: W
LayerCount: 2
Fore
SplineSet
80 315 m 0
 80 274 77 219 100 182 c 1
 114 162 154 102 158 98 c 0
 238 -4 389 -49 514 -49 c 0
 704 -49 847 53 915 231 c 1
 913 231 913 238 915 238 c 1
 915 242 922 264 922 266 c 2
 922 326 l 2
 922 476 836 600 725 694 c 0
 717 700 649 752 641 758 c 0
 637 760 623 776 621 778 c 1
 621 782 l 2
 621 805 648 811 662 821 c 0
 709 852 753 901 788 940 c 0
 790 942 801 959 803 961 c 2
 823 981 l 1
 833 995 862 1045 866 1053 c 1
 868 1061 889 1128 893 1151 c 1
 893 1161 l 1
 893 1171 l 2
 893 1173 887 1184 887 1186 c 0
 877 1227 872 1266 852 1305 c 1
 844 1317 819 1356 817 1360 c 1
 805 1372 735 1432 719 1444 c 0
 653 1491 563 1501 487 1501 c 2
 430 1501 l 1
 428 1499 414 1495 410 1493 c 0
 408 1493 397 1487 395 1487 c 2
 311 1466 l 1
 297 1460 243 1431 233 1423 c 0
 223 1415 170 1362 158 1346 c 1
 103 1283 86 1208 86 1126 c 2
 86 1102 l 1
 90 1084 109 1009 115 995 c 0
 162 870 267 803 367 723 c 0
 375 717 375 717 375 709 c 0
 375 697 372 696 360 688 c 1
 350 678 258 612 248 602 c 0
 230 586 151 503 135 483 c 1
 127 469 94 401 86 385 c 1
 80 367 80 335 80 315 c 0
276 295 m 0
 276 358 293 412 311 469 c 0
 313 473 317 496 317 498 c 0
 327 518 348 527 354 547 c 1
 444 639 l 1
 457 639 l 2
 490 639 514 602 537 582 c 1
 600 523 662 469 711 393 c 0
 738 350 739 309 739 260 c 0
 739 164 692 72 592 49 c 1
 528 49 l 2
 495 49 463 45 430 55 c 1
 332 90 276 195 276 295 c 0
268 1188 m 0
 268 1208 268 1244 276 1262 c 0
 315 1346 400 1409 494 1409 c 0
 584 1409 635 1364 676 1290 c 0
 694 1257 719 1215 719 1176 c 0
 719 1084 692 1033 647 961 c 0
 633 938 571 842 551 842 c 0
 518 842 496 879 473 897 c 0
 471 899 461 903 459 905 c 0
 422 932 383 971 354 1004 c 1
 305 1057 268 1114 268 1188 c 0
EndSplineSet
EndChar

StartChar: f
Encoding: 102 102 107
Width: 719
VWidth: 0
Flags: W
PickledData: "(dp1
S'com.typemytype.robofont.layerData'
p2
(dp3
S'back'
p4
(dp5
S'name'
p6
S'f'
sS'lib'
p7
(dp8
sS'unicodes'
p9
(tsS'width'
p10
F719.03999999999996
sS'contours'
p11
(tsS'components'
p12
(tsS'anchors'
p13
(tsss."
LayerCount: 2
Fore
SplineSet
556 0 m 2
 572 0 585 18 585 39 c 0
 585 49 577 62 556 70 c 1
 425 134 412 166 412 262 c 2
 412 922 l 1
 597 922 l 2
 617 922 626 949 626 976 c 0
 626 1005 616 1035 598 1035 c 2
 412 1035 l 1
 412 1035 412 1208 412 1212 c 0
 412 1354 455 1504 566 1504 c 0
 572 1504 591 1499 595 1497 c 0
 663 1460 715 1368 795 1368 c 0
 834 1368 876 1404 876 1437 c 0
 876 1453 877 1481 869 1497 c 0
 826 1579 743 1596 658 1596 c 0
 398 1596 238 1334 238 1139 c 0
 238 1137 233 1073 218 1055 c 0
 185 1016 142 1012 85 1012 c 0
 68 1012 71 977 71 963 c 0
 71 949 71 932 85 922 c 1
 195 922 l 2
 226 922 238 902 238 865 c 2
 238 262 l 2
 238 166 225 134 94 70 c 1
 73 62 65 49 65 39 c 0
 65 18 78 0 94 0 c 2
 556 0 l 2
EndSplineSet
EndChar

StartChar: five
Encoding: 53 53 108
Width: 995
VWidth: 0
Flags: W
LayerCount: 2
Fore
SplineSet
74 -338 m 2
 74 -350 l 1
 101 -401 176 -395 213 -422 c 1
 260 -416 303 -412 348 -408 c 1
 354 -406 383 -401 389 -399 c 0
 450 -385 522 -346 571 -309 c 0
 598 -289 693 -209 705 -197 c 0
 711 -191 756 -127 762 -119 c 0
 797 -72 834 8 852 63 c 1
 852 84 l 1
 858 127 866 166 866 209 c 0
 866 268 856 322 831 379 c 0
 829 385 799 428 797 434 c 1
 795 436 790 447 788 449 c 0
 778 463 719 527 705 541 c 1
 699 545 647 578 641 582 c 1
 641 582 635 588 635 590 c 1
 481 680 l 1
 475 680 457 686 453 688 c 0
 441 692 381 723 369 729 c 1
 369 731 367 741 367 743 c 0
 367 757 415 881 438 883 c 1
 454 881 535 870 551 870 c 1
 576 866 586 874 606 862 c 1
 633 862 755 868 782 870 c 1
 800 870 815 871 823 883 c 1
 827 887 850 922 852 926 c 0
 854 928 872 944 872 946 c 0
 874 950 885 991 887 995 c 0
 901 1030 915 1048 915 1085 c 2
 915 1102 l 1
 911 1108 887 1133 881 1137 c 1
 879 1137 862 1139 856 1139 c 0
 795 1139 813 1089 774 1073 c 0
 747 1061 723 1059 694 1059 c 0
 624 1059 555 1081 483 1081 c 0
 454 1081 419 1084 403 1053 c 2
 326 905 l 1
 326 897 l 1
 236 735 l 2
 234 733 229 719 227 715 c 0
 217 692 162 590 152 567 c 1
 172 547 l 1
 369 477 l 1
 371 475 385 465 389 463 c 0
 391 461 408 457 410 457 c 0
 467 428 512 412 557 371 c 1
 571 361 631 307 641 295 c 0
 643 293 653 278 655 272 c 1
 667 249 703 176 705 168 c 0
 713 145 713 105 713 80 c 0
 713 47 713 27 705 -8 c 0
 693 -63 627 -166 586 -197 c 0
 574 -205 534 -229 530 -231 c 0
 487 -245 440 -246 395 -246 c 0
 354 -246 332 -248 291 -240 c 1
 289 -238 278 -231 276 -231 c 0
 264 -229 209 -219 201 -217 c 1
 176 -217 l 2
 117 -217 74 -283 74 -338 c 2
397 453 m 0
 393 453 393 444 397 444 c 0
 399 444 399 453 397 453 c 0
EndSplineSet
EndChar

StartChar: four
Encoding: 52 52 109
Width: 1097
VWidth: 0
Flags: W
LayerCount: 2
Fore
SplineSet
39 41 m 0
 39 27 37 -35 53 -35 c 2
 580 -35 l 2
 594 -35 600 -51 600 -63 c 2
 600 -393 l 2
 600 -399 608 -410 614 -414 c 1
 643 -414 l 1
 670 -414 l 2
 672 -414 682 -408 684 -408 c 0
 686 -408 696 -412 698 -414 c 1
 776 -414 l 2
 782 -414 795 -391 797 -385 c 1
 799 -352 803 -195 803 -162 c 2
 803 -43 l 1
 811 -35 l 1
 1008 -35 l 2
 1010 -35 1024 -31 1028 -29 c 0
 1030 -27 1034 -22 1034 -20 c 2
 1034 104 l 2
 1034 114 1024 127 1014 127 c 2
 797 127 l 1
 797 518 l 1
 799 530 803 584 803 596 c 0
 803 614 797 754 797 772 c 2
 797 1094 l 1
 782 1108 l 1
 782 1108 758 1110 750 1110 c 0
 738 1110 700 1108 698 1108 c 0
 669 1106 671 1090 655 1065 c 0
 635 1034 612 1002 594 969 c 1
 553 903 455 745 453 743 c 2
 446 735 l 1
 166 281 l 2
 164 279 160 274 158 272 c 0
 150 262 125 227 123 223 c 0
 119 217 86 153 82 147 c 1
 78 143 55 117 53 113 c 0
 39 84 39 68 39 41 c 0
565 -74 m 0
 561 -74 561 -80 565 -80 c 0
 569 -80 569 -74 565 -74 c 0
186 137 m 2
 186 139 l 1
 188 143 199 164 201 168 c 0
 303 344 411 516 522 688 c 0
 538 713 580 772 580 772 c 1
 594 764 l 1
 594 764 598 735 600 723 c 1
 600 713 l 2
 600 654 592 594 592 535 c 0
 592 496 600 461 600 424 c 2
 600 420 l 2
 600 412 594 338 594 330 c 0
 594 324 600 278 600 272 c 2
 600 256 l 2
 600 215 590 180 594 139 c 1
 580 127 l 1
 476 129 372 119 268 119 c 2
 236 119 l 2
 232 119 207 125 201 127 c 0
 191 129 186 129 186 137 c 2
EndSplineSet
EndChar

StartChar: g
Encoding: 103 103 110
Width: 1162
VWidth: 0
Flags: W
PickledData: "(dp1
S'com.typemytype.robofont.layerData'
p2
(dp3
S'back'
p4
(dp5
S'name'
p6
S'g'
sS'lib'
p7
(dp8
sS'unicodes'
p9
(tsS'width'
p10
I1162
sS'contours'
p11
((dp12
S'points'
p13
((dp14
S'y'
F-464
sS'x'
F623
sS'smooth'
p15
I00
s(dp16
S'y'
F-456
sS'x'
F684
sg15
I00
s(dp17
S'segmentType'
p18
S'curve'
p19
sS'x'
F803
sg15
I01
sS'y'
F-409
s(dp20
S'y'
F-406
sS'x'
F808
sg15
I00
s(dp21
S'y'
F-392
sS'x'
F853
sg15
I00
s(dp22
g18
S'curve'
p23
sS'x'
F858
sg15
I01
sS'y'
F-389
s(dp24
S'y'
F-327
sS'x'
F978
sg15
I00
s(dp25
S'y'
F-234
sS'x'
F1052
sg15
I00
s(dp26
g18
S'curve'
p27
sS'x'
F1052
sg15
I01
sS'y'
F-94
s(dp28
S'y'
F21
sS'x'
F1052
sg15
I00
s(dp29
S'y'
F156
sS'x'
F971
sg15
I00
s(dp30
g18
S'curve'
p31
sS'x'
F708
sg15
I01
sS'y'
F156
s(dp32
g18
S'line'
p33
sS'x'
F457
sg15
I01
sS'y'
F156
s(dp34
S'y'
F156
sS'x'
F386
sg15
I00
s(dp35
S'y'
F176
sS'x'
F324
sg15
I00
s(dp36
g18
S'curve'
p37
sS'x'
F324
sg15
I01
sS'y'
F233
s(dp38
S'y'
F281
sS'x'
F324
sg15
I00
s(dp39
S'y'
F331
sS'x'
F388
sg15
I00
s(dp40
g18
S'curve'
p41
sS'x'
F434
sg15
I01
sS'y'
F331
s(dp42
S'y'
F331
sS'x'
F469
sg15
I00
s(dp43
S'y'
F321
sS'x'
F493
sg15
I00
s(dp44
g18
S'curve'
p45
sS'x'
F536
sg15
I01
sS'y'
F321
s(dp46
S'y'
F321
sS'x'
F839
sg15
I00
s(dp47
S'y'
F517
sS'x'
F934
sg15
I00
s(dp48
g18
S'curve'
p49
sS'x'
F934
sg15
I01
sS'y'
F711
s(dp50
S'y'
F756
sS'x'
F934
sg15
I00
s(dp51
S'y'
F818
sS'x'
F916
sg15
I00
s(dp52
g18
S'curve'
p53
sS'x'
F901
sg15
I00
sS'y'
F859
s(dp54
S'y'
F864
sS'x'
F898
sg15
I00
s(dp55
S'y'
F869
sS'x'
F897
sg15
I00
s(dp56
g18
S'curve'
p57
sS'x'
F897
sg15
I01
sS'y'
F874
s(dp58
S'y'
F897
sS'x'
F897
sg15
I00
s(dp59
S'y'
F915
sS'x'
F924
sg15
I00
s(dp60
g18
S'curve'
p61
sS'x'
F939
sg15
I01
sS'y'
F915
s(dp62
S'y'
F915
sS'x'
F1024
sg15
I00
s(dp63
S'y'
F833
sS'x'
F1049
sg15
I00
s(dp64
g18
S'curve'
p65
sS'x'
F1106
sg15
I01
sS'y'
F833
s(dp66
S'y'
F833
sS'x'
F1143
sg15
I00
s(dp67
S'y'
F860
sS'x'
F1188
sg15
I00
s(dp68
g18
S'curve'
p69
sS'x'
F1188
sg15
I01
sS'y'
F935
s(dp70
S'y'
F954
sS'x'
F1188
sg15
I00
s(dp71
S'y'
F1039
sS'x'
F1168
sg15
I00
s(dp72
g18
S'curve'
p73
sS'x'
F1051
sg15
I01
sS'y'
F1039
s(dp74
S'y'
F1039
sS'x'
F998
sg15
I00
s(dp75
S'y'
F1007
sS'x'
F926
sg15
I00
s(dp76
g18
S'curve'
p77
sS'x'
F858
sg15
I00
sS'y'
F941
s(dp78
S'y'
F1038
sS'x'
F774
sg15
I00
s(dp79
S'y'
F1078
sS'x'
F668
sg15
I00
s(dp80
g18
S'curve'
p81
sS'x'
F546
sg15
I00
sS'y'
F1078
s(dp82
S'y'
F1078
sS'x'
F182
sg15
I00
s(dp83
S'y'
F814
sS'x'
F136
sg15
I00
s(dp84
g18
S'curve'
p85
sS'x'
F136
sg15
I00
sS'y'
F701
s(dp86
S'y'
F501
sS'x'
F136
sg15
I00
s(dp87
S'y'
F374
sS'x'
F307
sg15
I00
s(dp88
g18
S'curve'
p89
sS'x'
F307
sg15
I00
sS'y'
F374
s(dp90
S'y'
F320
sS'x'
F181
sg15
I00
s(dp91
S'y'
F246
sS'x'
F132
sg15
I00
s(dp92
g18
S'curve'
p93
sS'x'
F132
sg15
I01
sS'y'
F171
s(dp94
S'y'
F122
sS'x'
F132
sg15
I00
s(dp95
S'y'
F52
sS'x'
F153
sg15
I00
s(dp96
g18
S'curve'
p97
sS'x'
F254
sg15
I00
sS'y'
F9
s(dp98
S'y'
F-63
sS'x'
F93
sg15
I00
s(dp99
S'y'
F-137
sS'x'
F71
sg15
I00
s(dp100
g18
S'curve'
p101
sS'x'
F71
sg15
I01
sS'y'
F-251
s(dp102
S'y'
F-371
sS'x'
F71
sg15
I00
s(dp103
S'y'
F-432
sS'x'
F258
sg15
I00
s(dp104
g18
S'curve'
p105
sS'x'
F351
sg15
I01
sS'y'
F-454
s(dp106
S'y'
F-463
sS'x'
F390
sg15
I00
s(dp107
S'y'
F-464
sS'x'
F419
sg15
I00
s(dp108
g18
S'curve'
p109
sS'x'
F455
sg15
I01
sS'y'
F-464
s(dp110
g18
S'line'
p111
sS'x'
F493
sg15
I00
sS'y'
F-464
stp112
s(dp113
g13
((dp114
S'y'
F565
sS'x'
F745
sg15
I00
s(dp115
S'y'
F430
sS'x'
F704
sg15
I00
s(dp116
g18
S'curve'
p117
sS'x'
F536
sg15
I01
sS'y'
F430
s(dp118
S'y'
F430
sS'x'
F536
sg15
I00
s(dp119
S'y'
F473
sS'x'
F346
sg15
I00
s(dp120
g18
S'curve'
p121
sS'x'
F346
sg15
I01
sS'y'
F713
s(dp122
S'y'
F878
sS'x'
F346
sg15
I00
s(dp123
S'y'
F971
sS'x'
F424
sg15
I00
s(dp124
g18
S'curve'
p125
sS'x'
F539
sg15
I01
sS'y'
F971
s(dp126
S'y'
F971
sS'x'
F696
sg15
I00
s(dp127
S'y'
F832
sS'x'
F741
sg15
I00
s(dp128
g18
S'curve'
p129
sS'x'
F745
sg15
I01
sS'y'
F706
s(dp130
g18
S'line'
p131
sS'x'
F745
sg15
I00
sS'y'
F688
stp132
s(dp133
g13
((dp134
S'y'
F-155
sS'x'
F248
sg15
I00
s(dp135
S'y'
F-95
sS'x'
F316
sg15
I00
s(dp136
g18
S'curve'
p137
sS'x'
F362
sg15
I01
sS'y'
F-57
s(dp138
S'y'
F-55
sS'x'
F364
sg15
I00
s(dp139
S'y'
F-49
sS'x'
F376
sg15
I00
s(dp140
g18
S'curve'
p141
sS'x'
F379
sg15
I01
sS'y'
F-49
s(dp142
g18
S'line'
p143
sS'x'
F729
sg15
I01
sS'y'
F-49
s(dp144
S'y'
F-49
sS'x'
F736
sg15
I00
s(dp145
S'y'
F-49
sS'x'
F895
sg15
I00
s(dp146
g18
S'curve'
p147
sS'x'
F895
sg15
I01
sS'y'
F-149
s(dp148
S'y'
F-263
sS'x'
F895
sg15
I00
s(dp149
S'y'
F-337
sS'x'
F787
sg15
I00
s(dp150
g18
S'curve'
p151
sS'x'
F548
sg15
I01
sS'y'
F-337
s(dp152
S'y'
F-337
sS'x'
F526
sg15
I00
s(dp153
S'y'
F-334
sS'x'
F467
sg15
I00
s(dp154
g18
S'curve'
p155
sS'x'
F462
sg15
I01
sS'y'
F-334
s(dp156
S'y'
F-334
sS'x'
F454
sg15
I00
s(dp157
S'y'
F-306
sS'x'
F352
sg15
I00
s(dp158
g18
S'curve'
p159
sS'x'
F314
sg15
I01
sS'y'
F-297
s(dp160
S'y'
F-289
sS'x'
F281
sg15
I00
s(dp161
S'y'
F-255
sS'x'
F248
sg15
I00
s(dp162
g18
S'curve'
p163
sS'x'
F248
sg15
I01
sS'y'
F-220
stp164
stp165
sS'components'
p166
(tsS'anchors'
p167
((dp168
S'y'
F1059
sS'x'
F474
sg6
S'top'
p169
stp170
sss."
LayerCount: 2
Fore
SplineSet
536 430 m 0
 474 430 333 468 333 708 c 0
 333 873 424 971 539 971 c 0
 696 971 741 832 745 706 c 1
 745 688 l 2
 745 565 704 430 536 430 c 0
708 156 m 2
 457 156 l 2
 386 156 324 176 324 233 c 0
 324 281 388 331 434 331 c 0
 469 331 493 321 536 321 c 0
 839 321 928 520 928 709 c 0
 928 795 897 873 897 874 c 0
 897 897 905 927 939 927 c 0
 1024 927 1049 833 1106 833 c 0
 1143 833 1188 860 1188 935 c 0
 1188 954 1168 1039 1051 1039 c 0
 998 1039 926 1007 858 941 c 1
 774 1038 668 1078 546 1078 c 0
 192 1078 150 809 150 690 c 0
 150 462 330 383 330 383 c 1
 204 329 132 246 132 171 c 0
 132 122 160 37 284 -3 c 1
 154 -54 71 -137 71 -251 c 0
 71 -421 363 -464 493 -464 c 1
 493 -464 l 1
 799 -464 1052 -363 1052 -94 c 0
 1052 21 971 156 708 156 c 2
387 -28 m 2
 737 -28 l 2
 744 -28 895 -49 895 -149 c 0
 895 -263 787 -337 548 -337 c 0
 316 -337 241 -275 241 -214 c 0
 241 -146 320 -28 387 -28 c 2
474 1059 m 0
EndSplineSet
EndChar

